<svg width="256" height="351" viewBox="0 0 256 351" fill="none" xmlns="http://www.w3.org/2000/svg">
<g clip-path="url(#clip0_99_292)">
<path d="M188.652 135.988C185.484 152.926 176.376 165.722 161.581 174.801C160.669 175.363 159.222 175.63 158.419 176.277C155.556 178.567 157.477 182.17 161.03 181.573C164.389 180.999 170.248 177.624 172.766 175.307C178.335 172.178 182.3 166.993 186.782 162.544C188.829 163.654 190.923 164.902 192.665 166.449C216.589 187.65 212.196 218.237 192.666 240.564C178.736 256.531 154.589 266.717 134.856 255.774C116.154 245.415 102.719 224.027 100.836 202.905L101.346 196.631C102.18 195.851 103.142 196.565 103.914 196.55C109.087 196.393 116.587 195.328 121.408 193.583C123.611 192.78 127.794 191.541 127.906 188.739C128.042 185.168 122.724 187.586 121.159 187.882C102.137 191.4 84.6287 189.572 71.1423 174.033C64.5222 166.409 61.2988 154.189 64.5881 144.521C65.1966 142.722 68.9328 136.556 68.4636 135.458C67.7526 133.783 65.6165 132.82 63.9867 133.92C60.6059 136.187 58.2938 141.178 56.7088 144.804L53.3439 145.455C52.9086 145.362 52.524 145.119 52.1001 145.123C39.6856 145.057 25.7671 138.149 16.8516 129.625C4.64966 117.946 -0.985212 101.756 5.12023 85.6351C13.7232 63.1894 39.4435 45.2549 63.7874 50.6425C77.3872 53.6546 93.0232 65.0159 96.6029 79.248C97.3292 82.1569 96.9797 86.692 96.6316 89.5521C96.3478 91.8589 95.6989 94.1553 95.415 96.4622C95.636 97.7703 98.3449 99.0303 99.4421 98.5611C101.578 97.6372 103.313 91.9246 103.844 89.6571C104.852 85.3103 104.844 81.1504 104.024 76.7897C106.226 75.9868 108.483 74.9957 110.746 74.3903C140.415 66.3854 164.236 76.3133 181.188 101.8C188.515 112.813 191.07 123.072 188.652 135.988ZM129.48 90.2782C130.755 90.2278 131.839 89.4494 133.364 90.1126C135.236 89.5908 142.662 90.6183 141.123 87.0464C140.864 86.4476 140.805 86.4621 140.243 86.2624C138.5 85.6778 135.404 86.8124 133.452 86.1916C129.876 87.3065 123.739 86.2876 120.475 87.6011C117.806 88.6935 119.156 90.3244 121.41 90.5462C123.187 90.71 127.434 90.3428 129.501 90.2606L129.48 90.2782ZM127.957 80.3532C125.679 80.1873 122.035 80.2568 119.649 80.4672C118.35 80.5734 113.496 81.0645 112.565 81.3931C110.265 82.2074 109.428 84.45 112.291 84.7598C117.233 83.6597 124.356 84.624 129.028 83.2901C130.546 82.8551 130.379 80.6464 129.232 80.3029C128.783 80.1508 128.396 80.4082 127.975 80.3739L127.957 80.3532ZM181.575 233.924C181.609 233.504 181.204 232.566 181.009 232.126C179.954 230.885 176.073 233.15 174.835 233.453C173.341 233.833 170.94 234.234 169.361 234.472C166.474 234.93 156.431 235.057 154.69 236.109C154.427 236.261 153.961 236.551 153.863 236.812C154.163 238.088 154.656 238.417 155.883 238.729C160.258 239.855 174.585 237.477 179.043 235.933C179.916 235.619 181.435 234.934 181.537 233.921L181.575 233.924ZM152.128 244.412C152.334 245.661 153.394 246.363 154.571 246.575C157.724 247.101 166.695 246.424 170.068 245.909C172.271 245.568 175.46 245.423 176.198 242.98C176.087 241.508 173.319 241.687 172.273 241.756C166.602 242.123 160.616 242.792 154.894 243.308C153.828 243.395 153.227 242.73 152.107 244.43L152.128 244.412ZM27.2787 79.7731C26.8238 79.4473 25.525 79.5535 24.9211 79.6392C22.8975 79.8982 12.6579 82.6857 11.5109 83.767C10.5915 84.6551 10.7804 85.8835 11.9705 86.4039C12.993 86.8529 17.7231 85.0424 19.117 84.7128C20.9442 84.2645 24.8912 83.7959 26.2925 83.1396C27.4135 82.6146 28.5731 80.6678 27.2787 79.7731ZM93.8219 186.391C96.9756 186.917 107.867 185.819 111.344 185.216C114.584 184.671 115.238 182.548 111.816 182.251L92.742 183.569C89.832 184.545 91.7157 186.008 93.8043 186.37L93.8219 186.391ZM23.9051 91.1869C23.5123 90.8084 20.9148 91.0208 20.2519 91.1209C17.948 91.5113 14.3908 92.3966 12.1385 93.0993C10.9328 93.4826 6.81922 94.342 7.52403 96.0938C7.7049 96.4744 7.9685 96.7846 8.29727 97.0039C9.10163 97.5314 16.5182 95.3617 18.0682 95.0063C19.6183 94.651 24.3934 94.6541 24.333 92.3193C24.3341 92.069 24.084 91.3555 23.9051 91.1869ZM87.6484 178.957C89.6616 179.063 95.2845 179.77 96.8895 178.977C99.6361 177.64 95.0071 176.551 93.8624 176.42C91.6879 176.166 84.6453 175.632 82.6154 175.968C81.9319 176.085 80.9134 176.06 80.6951 176.851C79.9117 179.618 86.3094 178.848 87.6308 178.936L87.6484 178.957ZM21.9421 102.542C21.7655 101.161 19.2777 101.209 18.2467 101.337C16.8859 101.496 10.3691 103.257 9.37732 103.85C8.87265 104.137 8.28104 104.782 8.34915 105.365C8.52784 106.246 8.7801 106.459 9.61555 106.604C10.1656 106.707 13.9431 105.955 14.8241 105.776C15.9202 105.557 19.857 104.741 20.5654 104.317C20.9904 104.063 21.9585 102.813 21.9245 102.521L21.9421 102.542Z" fill="#F28E7A"/>
<path d="M108.841 243.473C108.839 244.435 96.8729 243.597 96.0155 244.432C95.3236 245.127 95.6636 246.156 96.5362 246.554C97.1855 246.857 102.246 246.903 103.309 246.855C105.682 246.797 109.42 245.58 111.508 246.905C112.368 247.456 112.853 248.362 113.802 248.767L99.0584 250.11L98.0531 251.106C97.7788 252.586 98.5697 252.804 99.7764 252.883C103.014 253.089 107.446 252.101 110.847 251.954C112.257 251.895 113.847 252.005 115.289 252.026C116.54 252.032 117.085 251.248 118.521 252.771C119.761 254.104 118.834 254.606 117.378 254.988C113.897 255.88 103.473 255.726 101.271 257.241C100.515 257.776 100.162 258.325 100.909 259.079C102.102 260.274 110.104 258.248 112.012 258.942L74.5683 287.727C68.6392 282.97 63.8603 277.094 58.6852 271.59C35.8636 247.244 14.5569 222.501 -6.34419 196.558C-12.5342 188.854 -19.0685 181.121 -24.7011 173.192C-26.3426 170.882 -28.1496 168.713 -29.183 166.03C-28.9771 165.392 -23.7172 161.564 -22.7419 160.7C-18.0548 156.575 -13.2919 151.282 -8.20676 147.71C-5.32758 145.691 -3.39524 146.792 -0.341729 146.655C7.46731 146.288 15.3798 145.834 23.1559 144.926C26.5814 145.898 29.8092 147.643 33.1395 148.838C40.3792 151.448 47.8838 152.694 55.5636 152.259C55.9947 152.641 55.7964 156.264 55.9369 157.142C58.452 173.81 70.0001 186.899 85.4584 193.105C88.068 194.164 91.3767 194.915 94.1116 195.619C92.5376 205.504 94.9795 216.678 98.6751 225.932C99.106 227.026 99.5245 228.273 100.018 229.315C100.464 230.217 104.54 235.979 102.989 236.585L94.4899 237.145L93.7328 237.931L93.7316 238.894C93.8742 239.271 94.2061 239.452 94.4966 239.668C96.035 240.641 103.498 239.322 105.728 239.599L108.82 243.49L108.841 243.473ZM-1.43247 155.096C1.67998 154.945 5.5761 155.339 8.58327 154.351C9.47363 154.057 9.75808 153.638 9.89168 152.705C9.70273 151.477 6.98732 151.718 5.98639 151.714C1.5349 151.756 -3.21457 152.621 -7.66917 152.702C-8.63605 152.989 -9.27944 154.035 -8.67681 154.912C-7.46733 156.377 -3.05798 155.195 -1.39421 155.099L-1.43247 155.096ZM1.95825 186.335C1.81439 186.92 2.91221 188.338 3.69184 188.459C4.52729 188.604 8.79076 187.795 10.0719 187.669C11.5093 187.516 16.5202 187.461 17.4014 186.57C17.9247 186.054 17.8432 185.162 17.3449 184.659C16.7732 184.112 10.1864 184.366 8.92593 184.475C7.29731 184.612 2.42187 184.659 1.95825 186.335ZM63.2952 265.572C64.6725 265.684 67.3165 265.61 68.8035 265.557C70.1167 265.51 78.6693 264.761 79.1099 264.316C80.2424 263.176 79.0225 262.075 77.7486 261.875C74.5536 261.384 68.5643 262.342 65.0693 262.462C62.8285 262.549 59.0102 261.199 59.2958 264.553C59.5005 264.878 62.6831 265.522 63.2952 265.572ZM67.1847 272.204C68.1525 272.379 76.0795 271.983 77.1756 271.765C79.4681 271.277 80.9678 269.647 78.14 268.666C75.682 269.294 67.2631 268.398 65.6673 269.789C65.3984 270.017 65.2081 270.464 65.027 270.796C65.4353 271.696 66.2728 272.053 67.1847 272.204Z" fill="#F28E7A"/>
<path d="M-52.3776 181.32L-32.9441 181.263L-28.5525 180.773C-27.2934 182.339 -26.113 184.399 -24.9067 185.903C4.71082 222.817 34.9415 259.531 68.6752 292.948C70.417 295.207 67.6147 295.808 66.2113 296.964C59.3596 302.608 52.8376 308.932 45.8846 314.163C45.0428 314.807 43.351 315.247 42.4347 316.097C37.877 314.84 34.5607 311.105 31.1563 307.978C25.3712 302.636 19.7866 297.195 14.5009 291.393C-9.1734 265.456 -31.8911 238.885 -52.9603 210.984C-56.4025 206.429 -59.7705 202.381 -62.463 197.368C-63.0149 196.341 -64.4704 194.586 -64.3595 193.459C-64.3066 192.808 -62.2483 189.991 -61.7085 189.746C-61.4489 189.633 -57.0617 190.143 -56.1166 190.124C-52.8956 190.058 -49.3105 189.541 -46.0626 189.382C-42.8322 189.201 -37.8411 189.626 -34.7502 189.031C-33.8692 188.852 -32.6986 188.427 -32.9765 187.346C-33.6046 184.887 -36.8953 186.757 -38.5496 186.026L-59.2862 187.19L-52.3776 181.32ZM41.7606 297.152C45.146 297.196 52.621 297.149 55.745 296.383C57.4161 295.96 58.9735 295.278 57.4001 293.552C56.6515 293.048 51.8587 293.737 50.6396 293.811C49.5766 293.86 48.6046 293.973 47.5209 294.039C45.7775 294.167 38.5859 294.044 37.7078 294.897C37.0397 295.536 37.3073 296.27 37.9348 296.841C38.7588 297.601 40.6036 297.174 41.7576 297.19L41.7606 297.152ZM42.0629 304.802C43.0721 304.942 49.4418 304.516 50.4262 304.25C52.6723 303.623 53.5434 301.672 50.9109 301.131C48.3288 301.865 43.5651 301.246 41.2715 301.984C38.5622 302.861 39.7034 304.456 42.0836 304.784L42.0629 304.802ZM-47.9892 195.079C-51.2164 195.221 -57.5426 195.111 -60.3242 195.693C-61.0284 195.828 -62.0874 196.301 -61.8498 197.167C-61.4003 198.744 -60.0157 198.53 -58.6942 198.618C-54.977 198.843 -45.0399 198.592 -41.551 197.836C-40.4342 197.599 -39.4537 196.909 -40.0635 195.646C-40.9358 193.823 -45.5345 195.201 -46.9831 195.257C-47.3895 195.281 -47.7566 195.059 -48.0068 195.058L-47.9892 195.079ZM-36.8703 203.974C-37.4544 203.58 -48.319 203.871 -49.777 204.041C-51.4884 204.249 -54.4447 204.374 -53.0245 206.8C-50.6711 207.223 -47.8038 207.244 -45.3511 207.155C-43.9613 207.114 -38.2131 206.753 -37.3134 206.345C-37.0124 206.196 -36.6412 206.13 -36.4219 205.801C-36.0775 205.117 -36.2128 204.412 -36.8703 203.974Z" fill="#F28E7A"/>
<path d="M18.8053 142.069L-2.74006 143.706C-2.85467 142.984 -2.51346 143.051 -2.1794 142.731C-1.57333 142.145 -0.0436048 140.382 0.357642 140.184C0.699946 140 6.91972 139.524 7.90619 139.469C10.1707 139.326 12.4869 139.495 14.7174 139.06L18.8053 142.069Z" fill="#F28E7A"/>
<path d="M8.79182 132.84L12.2385 136.394C10.7836 136.526 9.1271 136.295 7.69599 136.371C6.84498 136.417 5.17483 137.302 4.53082 136.46L8.81251 132.823L8.79182 132.84Z" fill="#F28E7A"/>
</g>
<defs>
<clipPath id="clip0_99_292">
<rect width="246.91" height="251.307" fill="white" transform="translate(95.5177) rotate(49.6485)"/>
</clipPath>
</defs>
</svg>
