<svg width="32" height="32" viewBox="0 0 32 32" fill="none" xmlns="http://www.w3.org/2000/svg">
<path d="M4.73829 26.8665C4.12495 26.8665 3.59317 26.6412 3.14295 26.1908C2.69251 25.7406 2.46729 25.2088 2.46729 24.5955V7.40546C2.46729 6.78991 2.69251 6.25624 3.14295 5.80446C3.59317 5.35246 4.12495 5.12646 4.73829 5.12646H27.2616C27.8772 5.12646 28.4108 5.35246 28.8626 5.80446C29.3146 6.25624 29.5406 6.78991 29.5406 7.40546V24.5955C29.5406 25.2088 29.3146 25.7406 28.8626 26.1908C28.4108 26.6412 27.8772 26.8665 27.2616 26.8665H4.73829ZM27.2616 9.42213L16.6136 16.4328C16.5094 16.4881 16.4115 16.5338 16.32 16.5698C16.2284 16.6058 16.1217 16.6238 16 16.6238C15.8782 16.6238 15.7715 16.6058 15.68 16.5698C15.5884 16.5338 15.4905 16.4881 15.3863 16.4328L4.73829 9.42213V24.5955H27.2616V9.42213ZM16 14.6721L27.1283 7.40546H4.90495L16 14.6721ZM4.73829 9.67946V8.24546V8.27246V7.40546V8.2598V8.22146V9.67946Z" fill="currentColor"/>
</svg>
