<svg width="281" height="277" viewBox="0 0 281 277" fill="none" xmlns="http://www.w3.org/2000/svg">
<g clip-path="url(#clip0_100_366)">
<path d="M2.3374 174.445C4.22532 172.471 8.45066 170.107 10.878 168.551C18.5195 163.705 27.0302 158.769 35.0613 154.61C36.1401 154.042 43.6618 150.153 44.0214 150.482L43.3022 157.063C36.3499 160.713 28.948 164.243 22.3553 168.462C19.2687 170.436 13.0656 173.727 15.5229 178.125C17.2909 181.296 36.0802 189.284 40.3954 191.079C70.1226 203.464 102.367 214.803 132.843 225.393C144.351 229.402 156.727 234.01 168.354 237.33C182.559 241.369 187.743 237.45 197.752 228.206C204.494 221.953 210.847 214.893 217.5 208.461C227.239 199.037 237.728 189.792 247.047 179.98C249.715 177.168 258.165 168.252 259.004 165.081C260.982 157.512 250.344 154.191 244.56 155.119C244.051 144.438 240.844 133.309 231.165 127.565C223.164 122.779 210.997 120.984 201.797 119.428C189.721 117.394 182.349 115 170.632 119.937C163.709 122.839 144.291 131.814 140.006 137.079C134.552 143.72 136.23 153.862 138.657 161.431C135.451 160.982 132.034 164.842 136.26 165.979C140.095 166.996 141.774 166.158 144.59 169.928C146.029 171.872 146.269 175.163 149.295 174.535C150.314 174.325 151.003 173.428 151.842 173.099C154.959 171.842 159.634 174.206 161.732 176.659C164.189 179.561 163.11 182.493 167.965 180.578C172.729 178.693 173.808 176.988 179.382 179.591C184.297 181.894 183.997 185.125 186.634 188.596C188.912 191.587 191.339 188.207 193.796 187.16C197.932 185.395 204.345 186.322 207.551 189.613C208.989 191.079 209.319 193.412 211.836 192.934C213.335 192.635 214.204 189.254 216.571 188.386C217.26 188.117 219.028 187.758 219.748 187.758C221.665 187.788 224.093 189.643 225.501 189.044C227.809 188.087 226.79 183.36 229.577 181.505C231.674 180.129 233.412 181.505 235.3 180.937C236.349 180.638 236.979 178.454 238.807 178.963L239.376 177.736C240.125 177.646 240.994 177.497 241.504 178.185L210.488 208.52C204.135 213.965 198.441 220.188 192.058 225.573C183.488 232.783 179.052 234.159 167.905 231.137C153.79 227.278 138.118 221.085 124.153 216.149C109.08 210.794 93.2571 205.349 78.4235 199.485C77.1349 198.977 75.6965 198.498 74.5278 197.75C74.5278 197.421 79.1427 194.1 79.6821 193.951C80.5811 193.652 79.8319 194.848 79.9218 195.357C80.0716 196.584 81.0905 197.69 82.3491 197.9C84.8364 197.9 83.7276 193.622 88.0728 193.053C92.0285 192.545 94.1261 195.118 96.6733 195.177C101.258 195.267 97.872 185.425 103.895 186.023C105.064 186.143 107.401 188.386 108.33 187.249C109.379 184.527 107.431 179.142 111.897 179.022C113.605 178.963 116.901 180.817 118.07 178.903C119.388 176.719 116.601 173.428 117.89 171.782C119.179 170.137 121.066 172.919 121.606 169.868C121.846 168.522 121.246 167.145 122.685 166.278C123.883 165.739 124.692 167.325 125.861 167.445C127.989 167.654 128.079 164.902 128.978 163.615C129.787 162.419 134.791 159.726 130.236 158.35C126.61 157.273 125.531 161.88 124.782 162.06C121.995 161.012 118.22 162.329 117.47 165.41C117.291 166.218 117.47 167.624 117.171 168.103C116.901 168.492 115.582 168.611 115.013 168.94C113.125 170.047 113.275 173.159 113.335 175.043C108.061 173.667 104.555 176.45 103.895 181.685C103.566 182.104 100.779 182.074 99.73 182.493C97.2127 183.54 95.7144 186.352 95.4147 188.955C90.3803 187.489 84.1471 186.861 80.9707 191.917C80.4912 191.587 80.3114 190.66 79.8019 190.421C77.4346 189.224 71.7708 194.639 69.9728 196.165L51.2734 189.254C51.1535 189.074 53.9105 186.442 54.2701 186.113C56.4877 184.078 61.8218 180.638 63.2302 178.484C63.7996 177.646 64.0693 176.539 63.3801 175.672C62.3012 174.325 60.9827 175.432 59.9339 176.18C55.259 179.531 51.1535 183.839 46.6585 187.429L31.705 180.937C31.6451 180.578 31.705 180.279 31.8548 179.95C32.3043 179.082 34.9714 176.479 35.8404 175.642C38.7772 172.74 42.1934 170.197 45.3999 167.594L48.6064 168.851C46.239 170.616 43.6019 172.022 41.2045 173.727C39.1368 175.193 32.634 179.082 37.7883 180.638L52.592 170.885C56.6974 170.765 59.814 167.654 62.9905 165.44C64.339 165.679 71.9506 178.693 73.5389 180.758C75.8763 183.809 78.4534 185.664 82.5889 185.245C85.1361 184.976 94.0063 180.638 95.5646 178.633C98.9508 174.266 94.5756 169.389 93.5867 165.081C93.4069 164.273 92.6278 159.128 92.8076 158.828C94.6655 157.961 98.771 156.046 99.5801 154.132C99.7599 153.683 99.3703 153.204 99.4003 153.174C99.5202 153.055 102.157 152.576 102.936 152.247C106.383 150.781 109.05 147.699 109.349 143.9L115.642 147.041C112.706 149.106 107.342 151.349 105.034 153.982C103.146 156.136 104.674 158.081 107.282 157.213C110.728 154.64 119.149 148.477 123.434 148.866C126.55 149.165 126.85 153.443 129.038 153.114C133.383 151.02 128.708 144.768 125.322 144.05C124.123 143.81 120.557 144.169 120.137 143.601C119.898 142.554 120.557 141.806 120.437 140.669C120.107 136.899 117.62 132.203 117.021 128.343L119.928 129.091C120.827 131.036 122.205 139.712 123.464 140.639C124.093 141.088 125.142 141.148 125.681 140.489C126.94 138.874 123.733 132.173 123.674 130.019C123.793 129.899 126.371 130.527 126.58 130.766C127.27 131.574 128.318 137.707 129.157 139.293C129.787 140.46 131.285 140.789 132.124 139.652C133.083 137.677 130.236 132.232 130.626 131.694C133.503 132.322 141.054 136.002 141.564 130.826C141.804 128.463 139.406 127.715 137.668 127.147C130.956 125.022 120.227 122.061 113.395 120.894C107.881 119.937 104.165 122.121 99.3104 124.334C97.0629 122.33 94.4558 121.313 91.4591 121.073C97.5424 116.526 105.753 115.389 113.095 116.855C123.674 118.979 134.432 122.958 145.1 125.022C149.445 125.172 149.835 120.146 146.149 118.979L110.788 109.705C104.675 96.8408 98.4414 83.9766 92.0884 71.232C84.5367 56.124 75.3968 40.3877 68.6243 25.0703C67.8152 23.2454 65.3279 17.5911 65.6575 15.9157C65.9872 14.2404 69.8529 12.5052 71.4112 12.3556C74.4379 12.0565 77.045 13.7318 79.8918 14.5097C104.015 21.1512 131.495 24.6814 156.308 29.6775C175.786 33.5966 195.265 37.6952 214.683 42.0032C223.014 43.8581 234.851 45.6232 242.552 48.3157C243.961 48.7944 244.68 49.0337 245.399 50.4398C253.041 81.1045 260.922 111.68 269.463 142.105C269.523 144.917 266.736 147.101 264.578 148.477C260.772 147.699 256.397 146.114 252.591 145.665C247.617 145.067 246.598 149.704 250.194 151.379C255.168 153.713 262.84 152.965 266.975 157.482C272.519 163.525 265.927 169.12 262.001 173.727C254.749 182.253 246.688 190.989 238.926 199.097C225.172 213.427 209.829 229.313 195.265 242.685C185.885 251.301 182.319 250.823 170.272 247.412C162.301 245.139 154.03 242.057 146.119 239.365C100.269 223.778 53.431 206.755 9.19983 187.16C7.10214 186.232 2.3374 184.407 1.07879 182.672C-0.958963 179.89 0.179781 176.809 2.3374 174.535V174.445ZM261.701 138.425C263.529 136.361 263.14 134.716 262.6 132.292C259.813 119.967 254.809 106.055 250.973 93.879C247.647 83.2885 244.111 69.5566 239.765 59.6841C238.027 55.7351 235.63 51.9356 230.985 51.2176C180.311 40.9861 129.727 30.216 79.3524 18.6382C73.8685 18.9673 76.116 23.036 77.2847 26.3567C84.8064 47.7772 96.4336 71.8902 106.233 92.5926C107.671 95.6441 110.099 101.777 111.867 104.2C112.945 105.666 114.833 106.025 116.452 106.564C130.926 111.35 146.778 113.923 161.522 117.932C165.837 118.201 166.526 112.906 162.421 111.68C149.535 107.82 135.031 106.295 122.415 101.927C115.732 99.6231 115.642 97.2896 112.736 91.366C105.514 76.617 99.1906 61.3893 92.2982 46.4908L92.2382 45.4137C94.9053 46.6104 94.6955 44.6359 95.5346 43.2298C96.7333 41.2553 98.5013 38.832 99.9397 37.0071C100.269 36.5883 101.708 34.3445 102.187 34.7933L103.386 38.4431C101.828 39.4902 100.509 40.8963 99.4003 42.452C98.5912 43.5589 96.2238 46.6403 98.771 47.3583C100.869 47.9567 102.757 43.3196 103.895 41.9733C104.195 41.6442 104.225 41.2852 104.824 41.4348L123.404 85.1732C121.756 84.9638 117.59 90.6779 117.44 91.6652C117.171 93.1909 118.339 94.268 119.748 93.6397C121.156 93.0114 123.374 88.5538 124.722 87.5067L126.071 91.9045C125.112 92.8319 122.685 94.8663 122.805 96.2425L124.273 97.7084L128.139 94.8663C128.978 95.1056 129.757 95.5245 130.626 95.704C163.41 102.585 196.373 108.688 229.277 115.03C227.959 116.646 224.662 117.932 225.921 120.445C227.389 122.719 231.644 116.676 233.233 116.167C234.491 115.778 235.96 116.496 237.218 116.706C237.398 117.364 236.949 117.334 236.649 117.633C234.971 119.308 229.397 122.898 233.383 124.873C234.971 124.873 239.706 118.531 241.174 117.872C242.522 117.244 244.32 118.351 245.819 118.022L240.095 124.394C239.226 126.159 240.545 127.715 242.343 126.638C244.35 125.441 247.197 120.924 249.295 119.667C249.655 119.458 250.943 118.979 251.273 119.069C252.052 119.278 255.558 132.771 256.097 134.596C255.378 135.284 247.407 132.861 245.729 133.01C243.122 133.25 242.732 136.81 244.65 138.246C245.759 139.083 253.97 140.819 255.618 140.908C257.716 140.998 260.233 140.041 261.641 138.455L261.701 138.425ZM102.247 168.791C100.599 170.855 101.918 172.979 104.465 172.171C110.398 166.607 117.38 162.06 122.924 156.106C123.434 154.102 121.935 153.204 120.078 153.952L102.247 168.791ZM135.9 172.74C133.772 173.099 131.015 175.881 130.506 177.945C130.027 179.77 130.116 184.796 133.113 183.869C135.271 183.211 132.604 179.142 135.78 177.227C138.957 175.313 138.657 179.471 140.515 179.621C143.572 179.89 142.703 173.278 138.477 172.68C137.668 172.56 136.739 172.59 135.93 172.74H135.9ZM48.6064 176.061C46.3888 176.509 41.0247 181.835 43.7217 183.45C45.5497 184.557 47.0181 181.386 48.037 180.458C48.906 179.651 53.0115 177.736 50.5542 176.3C49.835 175.881 49.4155 175.911 48.6363 176.061H48.6064ZM67.1559 184.826C68.7741 182.852 67.1859 180.399 64.9383 181.446C64.6087 181.595 59.5743 186.023 59.3046 186.412C58.7052 187.249 58.4055 187.788 58.885 188.805C60.5332 192.246 65.4777 185.664 67.1559 184.796V184.826ZM148.546 182.672C145.34 183.031 141.474 186.322 142.942 189.763C145.849 191.827 146.059 187.579 148.216 187.01C152.831 185.784 150.254 192.964 154.09 190.54C157.027 188.686 153.491 182.164 148.576 182.702L148.546 182.672ZM175.756 193.143C176.745 192.156 175.696 189.314 174.977 188.267C172.759 185.006 167.995 184.916 165.028 187.249C163.799 188.237 161.312 192.036 162.87 193.382C167.215 195.028 165.178 189.433 170.302 190.271C172.52 190.63 172.25 192.754 173.029 193.263C173.658 193.682 175.187 193.712 175.726 193.173L175.756 193.143ZM70.1826 186.98C68.5943 187.309 65.7175 190.271 67.6054 191.737C71.0516 193.442 75.3369 185.903 70.1826 186.98ZM123.614 188.656C121.426 189.015 118.609 191.707 120.078 194.011C121.666 196.494 123.913 192.425 126.011 193.023C128.768 193.801 126.76 197.87 129.187 198.199C131.075 198.468 131.705 196.225 131.675 194.699C131.585 190.181 127.839 187.908 123.584 188.656H123.614ZM193.497 200.413C196.164 203.105 196.763 194.998 200.089 197.661C202.007 199.186 200.149 201.161 200.868 202.178C201.857 203.584 204.015 201.849 204.285 200.263C205.993 190.81 193.317 191.019 193.047 198.349C193.047 198.917 193.107 200.024 193.497 200.413ZM109.859 199.276C110.039 199.067 111.297 198.588 111.627 198.528C114.534 198.139 113.754 201.221 115.253 201.52C118.549 202.148 118.19 198.528 116.901 196.554C114.653 193.203 109.02 193.442 106.862 196.763C104.015 201.131 108.301 205.02 109.619 201.191C109.799 200.682 109.499 199.755 109.859 199.276ZM149.505 199.246C147.377 199.605 144.92 201.789 144.65 204.003C144.381 206.217 145.519 207.144 147.527 206.217C148.726 205.648 148.786 202.956 151.333 203.225C153.88 203.494 153.67 206.187 154.06 208.131C156.098 209.597 157.566 207.294 157.596 205.319C157.596 200.742 153.79 198.528 149.505 199.276V199.246ZM181.06 200.233C179.112 200.533 178.243 204.152 180.341 204.482C184.237 205.11 184.027 199.785 181.06 200.233ZM131.255 211.662C134.462 209.089 128.738 206.097 127.27 209.538C126.281 211.871 129.757 212.858 131.255 211.662ZM183.847 220.008C185.615 220.397 187.024 219.59 187.383 217.824C188.642 211.751 182.199 209.777 177.734 212.828C176.355 213.786 174.677 216.508 176.325 217.765C178.303 219.29 179.712 215.072 182.259 215.461C185.046 215.88 182.948 219.41 183.877 220.008H183.847ZM163.11 215.521C160.083 215.521 155.409 219.709 157.716 222.043C159.634 223.987 160.563 221.115 161.432 220.427C162.631 219.47 164.459 220.098 165.238 218.902C166.227 217.346 164.878 215.521 163.11 215.521Z" fill="#F28E7A"/>
<path d="M36.0802 228.355C35.4808 227.458 33.2033 224.257 33.473 223.299L44.0514 210.315C43.6918 208.999 42.7928 208.939 41.8937 209.807L31.7649 221.056L30.5662 217.406L37.5785 208.131C38.3277 206.636 36.7394 205.918 35.5707 206.785C35.0013 207.204 32.0047 211.213 31.3154 212.14C30.746 212.888 30.0568 213.846 29.7871 214.773C29.0679 215.252 28.2888 213.128 28.2588 212.619L34.1922 204.541C53.491 213.008 73.2092 220.457 93.0173 227.697C120.407 237.719 148.007 247.562 175.966 255.909C177.165 256.627 175.816 259.229 176.475 260.606L158.165 272.542C156.877 273.081 154.27 271.794 152.951 271.286L170.841 260.306C171.92 259.648 173.059 258.152 171.201 257.674C170.332 257.434 167.905 258.96 166.976 259.469C161.012 262.64 155.319 266.409 149.595 269.97L144.65 268.474L160.323 260.187L160.863 258.751C160.263 256.268 154.3 259.977 152.951 260.665C151.603 261.354 142.732 266.23 142.493 266.828C142.343 267.187 142.583 267.486 142.673 267.816L136.05 265.662L150.494 257.554C151.363 256.836 151.093 255.699 150.074 255.28C149.175 255.041 147.228 256.268 146.329 256.716C143.152 258.302 139.946 260.097 136.829 261.802C135.69 262.431 133.023 264.525 132.004 264.435C113.305 257.973 94.4857 251.81 75.8163 245.288C65.3579 241.638 54.2401 238.138 44.0514 233.92C39.856 232.185 38.7472 232.215 36.1701 228.355L37.6085 229.313C37.8182 229.283 38.927 228.116 39.1368 227.847C40.1557 226.56 46.1191 217.525 46.3588 216.508C46.8683 214.354 45.1901 214.474 43.9615 215.79C42.3433 217.525 38.4775 223.389 37.1889 225.603C36.8593 226.171 35.9303 227.787 36.1401 228.355H36.0802ZM47.2578 220.756C46.8383 220.876 42.553 227.009 42.3133 227.757C41.9537 228.834 41.8038 229.701 42.9726 230.27C43.3621 230.42 43.6918 230.33 44.0514 230.15C44.8605 229.791 48.9659 223.658 49.2356 222.701C49.6552 221.235 48.6962 220.338 47.2878 220.756H47.2578ZM112.166 247.801C113.245 248.878 114.653 247.203 113.934 246.216C113.155 245.139 110.728 246.305 112.166 247.801ZM117.65 249.925C114.863 250.464 116.571 254.562 119.059 252.678C120.347 251.69 119.268 249.626 117.65 249.925ZM137.908 252.917C136.409 253.067 128.288 257.584 126.73 258.691C126.311 258.99 125.681 259.259 125.352 259.648C124.093 261.204 125.232 262.131 127.03 261.653C128.229 261.324 137.189 256.537 138.297 255.639C139.736 254.503 139.616 252.708 137.908 252.887V252.917Z" fill="#F28E7A"/>
<path d="M279.412 129.57C279.172 128.044 278.123 123.706 277.104 122.749C276.385 122.061 275.067 121.971 274.587 122.928C273.568 124.993 277.494 130.318 277.434 132.711C277.434 133.369 276.595 134.566 276.175 135.104C275.966 135.374 276.175 135.703 275.426 135.523C275.276 134.327 274.857 133.16 274.437 132.023C264.039 104.649 259.634 74.4929 250.943 46.4309C249.804 43.4692 247.917 42.0032 244.89 41.2254C239.406 39.8193 232.933 39.1611 227.239 37.9645C190.77 30.3656 154.42 22.3479 117.83 15.3174C107.282 13.2831 96.2538 11.8471 85.8253 9.48363C83.1283 8.85537 80.4912 8.13737 77.9141 7.09028L85.226 1.13683L88.3426 -0.059845C141.624 8.73571 194.695 18.8177 247.857 28.2714C252.442 29.5578 253.071 30.8742 254.569 35.1523C261.971 64.2913 273.388 93.3405 280.281 122.48C280.91 125.142 281.839 127.356 279.382 129.51L279.412 129.57Z" fill="#F28E7A"/>
<path d="M181.06 123.377C188.492 122.569 204.644 125.95 212.406 127.685C222.714 129.989 230.656 132.173 234.012 143.242C239.556 161.551 224.452 170.077 208.21 169.928C194.306 169.808 190.29 156.315 175.337 155.747C165.747 155.388 153.311 163.316 145.639 153.922C139.226 146.054 143.572 141.088 150.734 136.81C156.727 133.22 174.737 124.065 181.09 123.377H181.06ZM196.733 140.19L191.579 128.942C190.17 126.698 187.593 127.326 187.773 130.078C187.953 132.95 193.527 142.195 193.407 142.973L183.997 151.499C182.918 152.696 183.637 155.119 185.316 155.089C186.994 155.059 193.676 148.926 195.265 147.49C197.093 149.704 198.741 156.435 201.947 156.764C204.015 156.974 204.345 155.538 203.865 153.832C203.386 152.127 198.981 145.695 199.16 144.708C200.539 142.643 205.993 140.968 204.494 137.947C202.816 134.476 197.302 140.579 196.763 140.19H196.733ZM208.57 130.976C206.532 131.694 209.049 136.421 209.619 137.767C210.338 139.502 214.084 147.729 215.313 148.298C216.961 149.046 218.909 148.088 218.429 146.234L212.076 132.681C211.357 131.365 210.158 130.437 208.57 130.976ZM173.389 134.327C171.141 131.574 166.466 137.737 165.687 137.558C164.698 136.092 163.29 132.472 161.192 134.716C159.484 136.54 161.612 138.724 162.151 140.639C160.743 142.614 155.828 145.186 155.648 147.699C155.588 148.597 156.398 149.973 157.386 150.003C158.915 150.063 162.99 145.875 164.369 144.827C166.047 146.742 168.354 153.623 171.021 153.802C173.059 153.952 173.509 152.546 173.029 150.781L167.995 142.015C167.875 140.609 175.726 137.169 173.419 134.327H173.389ZM220.886 141.267C220.587 140.968 219.628 140.759 219.208 140.878C217.44 141.836 218.579 146.084 220.647 145.007C221.665 144.468 221.636 142.015 220.886 141.267ZM185.705 145.067C186.874 143.9 185.585 141.447 184.237 142.075C181.989 143.092 184.087 146.712 185.705 145.067ZM228.168 144.917C227.599 144.229 226.191 143.9 225.381 144.409C223.044 146.473 220.587 148.477 218.309 150.601C217.051 151.798 211.956 156.525 211.387 157.602C210.817 158.679 210.817 159.696 211.507 160.713C212.406 161.431 213.215 161.012 214.054 160.594C215.313 159.965 221.486 154.012 222.954 152.606C224.183 151.439 228.288 147.61 228.528 146.234C228.618 145.755 228.468 145.276 228.138 144.917H228.168Z" fill="#F28E7A"/>
<path d="M243.871 218.064C245.1 218.303 246.208 217.166 246.778 216.149C248.576 212.948 249.954 206.815 251.363 203.135C251.812 201.969 252.412 200.592 253.011 199.485C253.43 199.815 253.041 200.652 252.951 201.071C252.382 203.435 247.976 216.508 246.898 217.884C246.298 218.632 244.38 219.739 243.571 220.517C227.239 236.134 210.308 251.212 193.437 266.26C191.998 267.546 183.368 276.521 181.809 275.385C182.379 274.427 181.989 273.32 182.199 272.303C182.469 271.017 186.245 268.683 187.443 267.606C188.762 266.38 194.006 261.383 194.066 259.947C194.066 259.529 193.946 258.9 193.556 258.811C192.148 258.541 184.536 266.529 182.948 267.756C181.48 262.79 184.956 262.072 187.593 259.14C189.781 256.716 190.59 255.639 193.077 253.336C211.387 236.283 228.828 218.303 246.358 200.473L244.021 209.089C243.481 210.704 239.496 220.547 240.215 221.355L241.534 220.517C245.01 213.038 247.077 204.93 249.834 197.152L250.434 199.216L243.841 218.034L243.871 218.064Z" fill="#F28E7A"/>
<path d="M102.457 137.857C104.255 144.857 100.569 148.028 93.7066 147.101C88.5523 146.413 92.7477 142.135 88.9419 140.25C85.3459 138.485 85.0462 144.259 81.5401 145.635C77.974 147.011 74.6177 143.96 72.4001 145.456C69.8829 147.191 72.0705 150.422 69.7631 153.414C66.6165 157.482 63.2602 155.238 59.1548 156.076C57.8662 157.004 58.975 161.072 56.1581 162.688C48.067 167.325 49.1158 153.563 51.3634 149.435C53.3112 149.764 57.0571 150.601 57.5965 147.849C57.9561 145.964 55.5587 144.648 54.9294 143.032C51.8728 135.314 59.874 129.271 66.9462 132.861C65.0882 134.446 63.4101 135.822 64.0394 138.575C64.2791 139.682 65.268 140.28 66.2869 139.652C67.2159 139.083 67.2159 136.062 69.9129 135.314C72.4301 134.626 73.3891 137.079 74.8874 136.331C77.6444 134.955 72.2803 129.839 69.9129 131.514C69.853 126.698 75.7864 122.958 80.0417 125.202C82.5889 126.548 81.63 129.749 83.7277 130.796C87.2638 132.621 87.6833 128.612 89.4813 128.014C91.2793 127.416 93.7666 128.074 95.1151 129.39C97.5424 131.754 96.074 136.301 97.2727 137.827C99.1307 140.19 101.948 137.378 102.427 137.827L102.457 137.857Z" fill="#F28E7A"/>
<path d="M86.8443 150.781C85.7355 159.038 86.7544 166.816 90.1107 174.415C89.811 175.672 82.3792 178.843 81.0307 178.633C80.761 178.604 80.5212 178.484 80.3414 178.304L69.2537 161.73L73.3891 159.397C74.9773 160.743 77.0151 165.47 79.0828 165.679C81.1505 165.889 81.6 164.273 81.5701 162.538C81.5701 161.072 80.0418 152.935 80.5512 152.426C82.8586 152.666 84.6866 150.841 86.8443 150.781Z" fill="#F28E7A"/>
<path d="M173.179 161.73C173.628 162.119 167.995 168.222 167.695 169.03C167.096 170.735 168.564 171.633 169.972 170.317C171.531 168.881 175.337 162.389 176.146 161.88C176.985 161.371 178.183 162.149 179.142 162.06L179.082 162.807L172.01 172.65L168.085 173.907L164.698 170.317V169.658C166.376 168.133 168.414 163.675 169.942 162.478C170.332 162.179 173.029 161.611 173.179 161.73Z" fill="#F28E7A"/>
<path d="M176.146 264.465L175.996 266.948L165.178 274.906L161.222 274.068L176.146 264.465Z" fill="#F28E7A"/>
<path d="M190.799 182.553L189.481 180.159L195.894 172.082L198.381 173.159C198.831 173.458 198.711 173.578 198.561 173.966C198.411 174.385 193.826 181.027 193.407 181.416C192.957 181.864 191.339 182.852 190.799 182.523V182.553Z" fill="#F28E7A"/>
<path d="M184.776 164.064L178.423 172.919L175.157 172.65L181.809 163.196L184.776 164.064Z" fill="#F28E7A"/>
<path d="M244.68 166.457C247.048 166.786 250.284 168.222 248.666 171.005C248.366 171.513 246.059 174.176 245.639 174.295C245.22 174.385 242.582 173.907 242.552 173.518C243.871 171.633 243.841 169.359 244.201 167.235C244.261 166.906 244.291 166.607 244.68 166.487V166.457Z" fill="#F28E7A"/>
<path d="M218.639 174.984L212.226 184.497C210.937 185.634 210.578 183.749 209.349 183.6C209.199 183.121 209.529 183.031 209.679 182.762C210.368 181.655 214.294 176.36 215.073 175.732C215.462 175.402 218.399 174.804 218.639 174.984Z" fill="#F28E7A"/>
<path d="M205.363 175.313L201.707 180.458L197.063 180.608L201.048 174.475C202.157 173.817 204.165 175.193 205.363 175.313Z" fill="#F28E7A"/>
<path d="M187.114 178.304L185.915 176.629C185.735 176.39 185.825 176.21 185.915 175.971C186.125 175.223 191.009 168.94 191.549 169.06L193.407 170.795C193.347 171.214 188.912 177.018 188.282 177.646C187.953 178.005 187.713 178.424 187.114 178.304Z" fill="#F28E7A"/>
<path d="M186.814 165.739C187.173 165.47 189.271 166.697 188.942 167.684C188.432 169.21 184.596 172.65 183.787 174.505C183.038 174.894 181.749 174.325 181.15 173.817C180.641 173.398 180.88 173.548 181.15 173.159C182.798 170.735 185.405 168.402 186.844 165.739H186.814Z" fill="#F28E7A"/>
<path d="M117.411 141.507L114.923 140.16L111.777 127.565C112.496 127.565 113.395 127.326 113.725 128.104L117.44 141.477L117.411 141.507Z" fill="#F28E7A"/>
<path d="M166.526 163.047L162.211 168.881L157.896 167.355C159.334 163.765 163.2 163.705 166.526 163.047Z" fill="#F28E7A"/>
<path d="M175.816 270.747L175.097 276.671C172.909 277.568 170.752 276.372 168.504 276.372L169.014 275.385L175.816 270.747Z" fill="#F28E7A"/>
<path d="M211.686 175.971L207.371 181.805L204.704 181.266L208.03 176.15L211.686 175.971Z" fill="#F28E7A"/>
<path d="M218.938 182.553C218.609 182.553 216.301 182.971 216.661 182.104C218.879 180.129 220.047 176.42 221.815 174.325C222.205 173.847 222.714 173.548 223.284 173.308L218.908 182.523L218.938 182.553Z" fill="#F28E7A"/>
<path d="M111.087 138.874L109.259 138.545C108.9 135.972 106.413 132.98 109.259 131.245L111.087 138.874Z" fill="#F28E7A"/>
<path d="M31.7649 203.494C30.2666 205.349 29.008 207.503 27.5396 209.358C27.3298 209.627 27.5396 209.956 26.7904 209.777C26.9702 209.089 26.0712 208.161 26.1611 207.683C26.281 206.965 29.6373 204.123 29.7871 202.866L31.735 203.494H31.7649Z" fill="#F28E7A"/>
<path d="M156.577 164.393C155.558 167.295 153.461 166.906 150.943 167.385L152.682 164.483L156.607 164.423L156.577 164.393Z" fill="#F28E7A"/>
<path d="M150.584 163.376L148.756 165.679L146.299 162.897C147.467 160.923 149.026 163.196 150.584 163.346V163.376Z" fill="#F28E7A"/>
<path d="M231.225 176.599C230.746 176.689 230.086 176.868 230.266 176.15C230.925 173.877 233.502 171.244 234.072 168.671C234.761 169.18 234.521 169.269 234.312 169.898C233.622 171.962 231.794 174.325 231.195 176.569L231.225 176.599Z" fill="#F28E7A"/>
<path d="M186.454 256.507C186.994 256.956 183.488 259.888 183.128 259.499V256.896L186.454 256.507Z" fill="#F28E7A"/>
<path d="M27.7793 201.819C27.2699 202.238 25.352 205.229 24.7826 204.811L24.2133 203.315C25.2621 201.998 25.9813 200.981 27.7793 201.819Z" fill="#F28E7A"/>
<path d="M228.288 171.663L225.771 176.27L224.632 176.958C224.333 176.659 227.419 170.765 228.288 171.663Z" fill="#F28E7A"/>
<path d="M145.28 161.73C143.751 161.73 142.673 160.205 142.972 158.739C143.961 159.606 145.639 160.085 145.28 161.73Z" fill="#F28E7A"/>
<path d="M235.9 162.059L238.207 155.448C237.967 157.662 237.848 160.713 235.9 162.059Z" fill="#F28E7A"/>
<path d="M249.864 113.026C211.057 104.799 171.771 98.7555 133.233 89.4513C132.394 88.6735 131.944 87.6264 131.405 86.6392C129.038 82.1217 126.79 76.5572 124.662 71.8303C118.579 58.3977 113.125 44.6658 107.132 31.1733L229.936 57.2309C231.944 58.3677 232.993 59.8636 233.862 61.9279C235.45 65.6076 236.739 70.4542 238.027 74.3433C242.223 87.1477 245.909 100.162 249.894 113.026H249.864ZM140.725 64.8896C141.923 66.1162 146.478 62.6758 147.437 61.6586C149.056 59.9533 148.157 58.1583 145.849 58.7567C145.07 58.9661 140.545 62.1971 140.335 62.8852C140.185 63.4237 140.305 64.5007 140.695 64.8896H140.725ZM152.082 66.7445C151.213 66.7445 145.4 71.232 144.92 72.0697C143.781 74.0442 145.25 75.6597 147.377 74.5228C147.917 74.2536 152.172 70.6037 152.562 70.0951C153.401 69.0181 153.73 66.8043 152.052 66.7445H152.082ZM160.113 78.4419C163.56 75.1511 157.536 72.5782 156.637 77.1555C156.158 79.5788 158.675 79.8181 160.113 78.4419Z" fill="#F28E7A"/>
<path d="M91.8487 44.3966C91.0995 44.5462 91.3092 44.3368 91.0995 43.9778C90.8597 43.529 90.2005 41.8537 90.3203 41.4049C92.9874 38.1141 95.2649 33.6265 98.0218 30.5152C98.2915 30.1861 98.831 29.3783 99.3104 29.498C99.9098 30.0365 100.299 30.6648 99.9997 31.4725C99.2805 33.3274 95.7144 37.426 94.3659 39.4902C93.4069 40.9861 92.1184 42.6913 91.8487 44.4265V44.3966Z" fill="#F28E7A"/>
<path d="M89.1816 38.1141L88.4923 37.9046L87.3236 34.4642C90.0806 33.7462 90.8897 30.3058 92.8076 28.3612L94.8153 28.6903L94.9951 29.5279L89.1816 38.144V38.1141Z" fill="#F28E7A"/>
<path d="M84.2071 26.1772C85.0162 26.3268 89.3913 27.1346 89.5112 27.6731L86.3647 32.1307C85.9751 32.1307 83.9673 26.4166 84.2071 26.1772Z" fill="#F28E7A"/>
</g>
<defs>
<clipPath id="clip0_100_366">
<rect width="281" height="277" fill="white"/>
</clipPath>
</defs>
</svg>
