<svg width="533" height="530" viewBox="0 0 533 530" fill="none" xmlns="http://www.w3.org/2000/svg">
<path d="M97.557 127.938C101.497 122.508 99.567 113.808 93.707 110.548C97.537 109.518 100.607 106.118 101.257 102.208C101.907 98.298 100.077 94.0881 96.787 91.8881C103.677 91.0281 110.637 90.1781 117.537 90.8881C119.567 91.0981 121.637 91.4381 123.627 90.9981C126.447 90.3681 129.407 88.2381 131.927 89.6581C132.967 90.248 133.607 91.318 134.367 92.2281C136.727 95.068 140.587 96.5781 144.247 96.0981C142.147 95.9481 140.407 97.9881 140.117 100.068C139.827 102.148 140.577 104.228 141.317 106.198C141.827 107.558 142.477 109.068 143.827 109.598C145.677 110.328 147.737 108.698 148.367 106.808C148.997 104.918 148.717 102.868 148.787 100.878C148.857 98.8881 149.487 96.6781 151.247 95.7381C153.467 94.548 156.967 95.6581 158.187 93.4481C159.077 91.828 157.797 89.8881 157.777 88.0381C157.747 85.7181 159.697 83.8681 161.697 82.6781C163.697 81.4881 165.957 80.5781 167.377 78.7481C168.037 77.8881 168.517 76.8381 169.427 76.2581C170.407 75.6281 171.657 75.6881 172.817 75.8181C182.527 76.8481 192.897 80.718 201.587 76.2681C202.747 75.6781 203.857 74.9381 205.107 74.5781C207.897 73.7981 211.967 74.3881 212.727 71.5881C212.917 70.898 212.827 70.0981 213.277 69.548C213.687 69.038 214.417 68.9281 215.067 68.8481C218.577 68.4481 222.957 68.4581 224.647 71.5681C225.317 72.7981 225.527 74.4681 226.787 75.0681C228.007 75.6481 229.407 74.8181 230.497 74.0281C234.827 70.9081 239.147 67.7881 243.477 64.6681C244.547 63.8981 245.667 63.0581 246.167 61.8381C246.957 59.8881 245.907 57.7481 245.487 55.6981C244.887 52.7581 245.667 49.5781 247.547 47.2481L248.167 46.4081C248.587 44.2981 251.847 46.7581 253.307 45.1781C253.887 44.5481 253.887 43.5881 253.837 42.7381C253.707 40.0081 253.567 37.2881 253.437 34.5581C255.697 34.3181 257.957 34.0781 260.217 33.8481C261.027 33.7581 261.847 33.6681 262.587 33.3181C264.787 32.2581 265.287 29.3581 265.217 26.9081C265.147 24.4581 264.897 21.7481 266.427 19.8381C268.237 17.5781 271.597 17.5681 274.277 16.4681C278.267 14.8181 280.607 10.7781 283.227 7.33805C285.847 3.89805 289.837 0.628052 294.037 1.61805C297.637 2.46805 299.777 6.05805 301.577 9.28805C304.287 14.1481 307.127 18.9281 310.117 23.6181C314.557 30.5981 319.477 37.5681 326.437 42.0481C331.987 45.6181 338.887 47.7081 342.567 53.1881C344.287 55.7581 345.097 58.8081 345.887 61.7981C348.657 72.3681 351.417 82.9481 354.187 93.5181C354.887 96.188 355.647 98.9781 357.537 100.988C360.377 104.008 365.117 104.598 367.967 107.608C369.247 108.958 370.037 110.698 370.547 112.488C372.317 118.658 370.737 125.688 366.497 130.518L366.917 130.098C365.627 131.238 365.797 133.248 365.767 134.968C365.717 137.958 364.747 140.848 364.137 143.778C363.527 146.708 363.317 149.898 364.677 152.568C365.037 153.268 365.497 153.938 365.607 154.708C365.807 156.178 364.677 157.458 363.627 158.508C361.837 160.308 360.027 162.118 357.847 163.428C354.737 165.288 351.087 166.008 347.787 167.498C344.487 168.988 341.307 171.738 341.047 175.348C340.817 178.438 342.767 181.638 341.637 184.518C341.257 185.488 340.547 186.328 340.327 187.348C339.867 189.478 341.667 191.398 343.437 192.678C345.207 193.958 347.277 195.268 347.737 197.398C347.847 197.898 347.847 198.448 347.617 198.908C346.827 200.518 344.347 199.858 342.737 200.658C341.677 201.178 341.057 202.458 341.287 203.608C341.517 204.758 342.577 205.698 343.747 205.788L344.527 205.678C345.717 210.078 346.957 214.588 349.677 218.258C351.587 220.838 354.137 222.868 356.147 225.358C356.547 225.848 356.937 226.388 357.057 227.008C357.417 228.928 355.257 230.228 353.607 231.278C351.307 232.748 349.437 234.868 348.257 237.328C347.877 238.118 347.567 238.958 346.977 239.608C344.667 242.178 340.137 240.258 337.117 241.938C335.147 243.038 334.287 245.458 334.197 247.718C334.107 249.978 334.637 252.208 334.687 254.468C334.767 258.388 333.427 262.468 334.817 266.128C335.697 268.448 337.577 270.248 339.527 271.788C341.417 273.278 343.527 274.648 345.917 274.938C348.307 275.228 351.007 274.178 351.947 271.968C352.757 270.088 352.157 267.858 352.767 265.908C353.827 262.498 358.197 261.198 361.677 261.968C365.157 262.738 368.127 264.948 371.347 266.498C374.487 267.998 377.907 268.898 380.887 270.698C385.177 273.298 388.167 277.538 391.017 281.658C393.137 279.288 396.807 279.388 399.977 279.628C409.467 280.338 418.997 280.598 428.507 280.388C428.917 280.388 429.337 280.368 429.697 280.178C431.047 279.468 430.317 277.418 429.427 276.178C428.537 274.938 427.817 272.878 429.167 272.178L428.787 272.548C430.097 270.868 430.457 268.658 431.117 266.638C431.777 264.618 433.027 262.498 435.097 261.998C437.327 261.448 439.507 262.978 441.117 264.608C443.737 263.758 445.997 261.858 447.297 259.428C447.717 258.648 448.047 257.798 448.677 257.168C450.487 255.348 453.507 256.278 456.027 256.718C459.697 257.368 463.597 256.648 466.807 254.738C468.387 253.798 469.787 252.588 471.377 251.668C474.217 250.008 477.507 249.328 480.717 248.608C482.307 248.248 483.957 247.848 485.197 246.808C486.017 246.118 486.637 245.178 487.577 244.658C490.377 243.128 493.547 246.228 496.727 246.258C498.317 246.268 499.797 245.508 501.207 244.758C505.467 242.498 509.817 240.168 513.007 236.558C514.057 235.368 515.037 233.998 516.517 233.418C518.927 232.478 521.547 234.008 523.677 235.468C525.737 236.868 527.787 238.278 529.847 239.678C530.387 240.048 530.977 240.488 531.097 241.138C531.197 241.688 530.927 242.238 530.647 242.728C529.297 245.078 527.607 247.228 525.647 249.108C526.357 250.358 528.417 249.998 529.387 251.058C530.257 252.018 529.767 253.628 528.827 254.518C527.887 255.408 526.627 255.878 525.607 256.688C523.367 258.448 522.637 261.528 522.567 264.378C522.497 267.228 522.937 270.108 522.417 272.908C521.897 275.708 520.087 278.548 517.287 279.098L517.387 278.808C521.737 286.548 525.227 294.778 527.787 303.278C528.337 305.118 528.797 307.288 527.627 308.808L527.257 308.858C525.687 309.308 524.477 310.588 523.657 311.998C522.837 313.408 522.347 314.988 521.687 316.488C518.177 324.528 510.467 329.798 502.957 334.338C500.407 335.878 497.577 337.738 497.057 340.678C496.607 343.248 498.047 346.208 496.557 348.348C495.097 350.448 491.687 350.318 490.127 352.348C489.297 353.428 489.177 354.878 489.097 356.238C489.017 357.608 488.927 358.988 488.847 360.358C488.627 363.898 488.517 367.778 490.677 370.588L490.797 370.748C489.057 370.718 487.817 372.428 487.197 374.048C486.577 375.668 486.187 377.508 484.857 378.638C483.977 379.388 482.807 379.698 481.687 379.988C479.777 380.478 477.857 380.968 475.947 381.468C475.337 381.628 474.687 381.808 474.287 382.298C473.977 382.688 473.877 383.198 473.807 383.688C473.477 385.888 473.377 388.148 472.687 390.268C472.407 391.128 472.007 391.998 471.307 392.578C470.787 393.008 470.147 393.258 469.507 393.468C466.027 394.598 462.257 394.798 458.677 394.048C456.677 393.628 454.757 392.928 452.807 392.348C443.877 389.718 434.167 389.778 425.277 392.538C421.937 393.578 418.557 395.098 416.447 397.878C416.107 398.328 415.767 398.838 415.237 399.058C414.627 399.318 413.927 399.118 413.297 398.928C410.277 397.988 407.257 397.058 404.237 396.118C401.517 395.278 398.297 393.838 398.087 390.998L397.277 391.108C395.817 398.478 387.127 403.478 380.027 401.018C378.877 400.618 377.757 400.058 376.547 399.928C375.337 399.798 373.947 400.248 373.427 401.358C371.887 399.128 369.377 397.388 366.667 397.518C363.957 397.648 361.397 400.208 361.897 402.868C360.897 402.658 359.897 402.458 358.897 402.248C358.047 404.598 356.667 406.758 354.897 408.518C353.917 406.798 351.057 407.308 349.957 408.948C348.857 410.588 348.987 412.738 349.157 414.698C349.227 415.468 349.327 416.318 349.877 416.858C350.757 417.708 352.287 417.378 353.287 418.088C354.197 418.738 354.347 420.088 353.967 421.138C353.587 422.188 352.787 423.028 352.067 423.878C348.497 428.048 346.147 433.248 345.387 438.688C345.277 439.448 345.207 440.238 345.487 440.948C346.067 442.428 347.867 442.978 348.897 444.188C350.637 446.228 349.677 449.438 348.067 451.588C346.457 453.738 344.257 455.548 343.407 458.098C342.797 459.918 342.917 462.058 341.717 463.558C341.137 464.278 340.327 464.768 339.497 465.178C330.477 469.738 318.997 467.958 310.527 473.488C307.757 475.298 305.477 477.828 303.957 480.758C303.637 481.368 303.357 482.018 303.367 482.708C303.387 483.408 303.727 484.048 304.047 484.668C305.877 488.108 307.837 491.688 311.087 493.838C312.147 494.538 313.337 495.078 314.267 495.948C316.757 498.258 316.787 502.118 316.647 505.508L317.067 504.948C313.837 506.488 312.157 510.658 313.397 514.018C304.697 513.128 296.107 508.328 287.657 510.548C285.677 511.068 283.717 511.968 281.677 511.748C278.677 511.418 275.687 508.698 273.037 510.138C272.367 510.508 271.847 511.108 271.187 511.498C269.417 512.548 267.137 511.878 265.317 510.928C263.497 509.978 261.687 508.738 259.627 508.688C257.747 508.638 255.707 509.578 254.077 508.628C253.277 508.158 252.667 507.258 251.737 507.198C251.127 507.158 250.577 507.518 250.077 507.868C247.357 509.778 244.897 512.058 242.767 514.618C240.647 517.178 238.707 520.138 235.647 521.428C231.957 522.978 227.217 521.288 225.337 517.748C224.917 516.958 224.597 516.058 223.887 515.528C223.337 515.108 222.627 514.978 221.947 514.858C219.077 514.338 216.207 513.818 213.337 513.308C212.157 513.098 210.867 512.808 210.167 511.848C209.687 511.188 209.567 510.288 209.017 509.688C208.137 508.728 206.587 508.908 205.327 509.238C198.097 511.158 191.647 515.858 187.587 522.138L187.087 522.018C180.257 522.708 174.197 517.738 167.467 516.408C163.967 515.718 160.147 515.978 157.067 514.178C156.707 513.968 156.327 513.728 155.917 513.758C155.607 513.778 155.337 513.958 155.077 514.128C149.857 517.578 145.517 522.348 142.557 527.858C137.677 526.968 133.597 523.748 129.107 521.638C123.687 519.098 117.657 518.208 111.717 517.448C107.397 516.898 102.667 516.198 99.767 512.938C98.437 511.438 97.597 509.478 95.987 508.268C94.377 507.058 91.497 507.188 90.937 509.118C89.417 506.428 87.897 503.738 86.387 501.048C84.857 498.338 83.317 495.598 82.377 492.628C81.607 490.198 81.257 487.658 80.917 485.128C80.547 482.378 80.167 479.638 79.797 476.888C79.707 476.228 79.617 475.548 79.767 474.898C80.037 473.698 81.037 472.818 81.977 472.018C84.557 469.788 87.097 467.258 88.117 463.998C89.837 458.508 86.687 452.578 82.507 448.608L82.297 448.718C84.997 446.528 87.407 443.988 89.457 441.188C90.837 439.298 92.047 436.658 90.657 434.778C90.127 434.058 89.317 433.618 88.537 433.178C84.657 430.948 81.157 428.058 78.247 424.648C77.217 423.448 76.257 422.158 75.627 420.708C75.017 419.278 74.747 417.728 74.477 416.188C73.937 413.058 73.407 409.838 74.077 406.738C74.557 404.508 75.657 402.418 75.897 400.138C76.277 396.538 74.477 393.078 72.487 390.058C70.267 386.698 67.747 383.528 64.947 380.628C62.927 378.528 60.707 376.458 59.767 373.708C58.347 369.538 60.197 364.758 58.647 360.628C65.737 361.098 72.767 362.408 79.557 364.508L80.007 364.558C79.077 363.018 79.677 360.758 81.257 359.878C82.247 359.328 83.607 359.208 84.157 358.218C84.587 357.448 84.327 356.508 84.117 355.648C83.537 353.298 83.417 350.838 83.747 348.448C83.927 347.168 84.647 345.588 85.927 345.738C86.287 345.778 86.677 345.968 87.007 345.798C87.447 345.578 87.407 344.938 87.287 344.458C86.587 341.608 85.607 338.838 84.367 336.178L84.347 336.938C83.907 328.288 79.397 320.348 74.067 313.528C72.637 311.708 71.107 309.898 69.127 308.698C66.027 306.818 62.237 306.638 58.627 306.318C49.807 305.528 40.947 303.508 33.317 299.018C31.967 298.228 30.617 297.318 29.777 295.998C28.967 294.748 28.687 293.238 28.247 291.818C27.147 288.308 24.777 285.018 21.347 283.718C18.527 282.658 15.317 283.028 12.527 281.908C8.20703 280.178 6.01703 275.448 4.44703 271.068C2.82703 266.548 1.41703 261.868 1.34703 257.068C1.27703 252.268 2.71703 247.278 6.10703 243.868L5.86703 243.918C9.24703 243.438 10.517 238.948 9.48703 235.698C8.45703 232.448 6.00703 229.828 4.72703 226.668C3.38703 223.348 3.47703 219.328 5.51703 216.378C7.55703 213.428 11.667 211.898 14.957 213.328C17.797 214.558 19.537 217.578 22.347 218.878C28.297 221.638 34.517 215.558 41.007 214.568C45.057 213.948 49.547 215.308 53.077 213.228C59.047 209.708 58.247 198.698 64.967 196.988C65.987 196.728 67.067 196.748 68.037 196.348C70.137 195.498 71.117 192.928 70.837 190.678C70.557 188.428 69.337 186.418 68.147 184.488C65.217 179.768 62.247 174.998 58.317 171.078C57.427 170.188 56.467 169.328 55.927 168.198C55.427 167.158 55.307 165.948 54.677 164.978C53.697 163.478 51.797 162.968 50.267 162.058C44.667 158.718 44.617 150.768 45.257 144.278C48.937 145.388 53.207 144.158 55.737 141.258C56.777 140.058 57.557 138.598 58.867 137.698C60.907 136.298 63.747 136.658 65.927 137.828C68.107 138.998 69.827 140.858 71.667 142.508C77.497 147.738 84.727 151.088 91.847 154.358C94.157 155.418 97.887 155.808 98.307 153.298C98.747 150.698 94.977 149.988 92.557 148.938C88.487 147.168 87.097 141.728 88.527 137.528C89.957 133.328 93.457 130.198 97.037 127.578" fill="#F28E7A"/>
<path d="M98.847 128.698C103.207 122.478 100.997 113.028 94.467 109.248L94.107 111.988C98.477 110.728 102.027 106.968 102.727 102.428C103.427 97.888 101.337 93.238 97.547 90.588L96.787 93.388C101.437 92.808 106.097 92.228 110.777 92.138C113.197 92.088 115.597 92.178 118.007 92.438C120.157 92.668 122.287 92.898 124.417 92.348C126.207 91.888 127.917 90.798 129.787 90.688C131.877 90.558 132.797 92.888 134.097 94.128C136.777 96.708 140.567 98.018 144.257 97.598C146.127 97.388 146.237 94.628 144.257 94.598C141.027 94.548 138.777 97.488 138.577 100.518C138.447 102.458 139.057 104.378 139.717 106.178C140.227 107.548 140.757 108.998 141.827 110.038C144.237 112.368 147.787 111.018 149.307 108.378C151.117 105.248 149.367 101.488 150.857 98.348C152.097 95.728 155.807 96.978 157.987 95.728C159.267 94.998 159.987 93.648 160.017 92.188C160.047 90.588 158.997 88.958 159.367 87.378C160.087 84.328 164.247 83.238 166.487 81.618C167.887 80.608 168.637 79.328 169.717 78.038C170.797 76.748 172.887 77.308 174.357 77.508C181.457 78.468 188.617 80.608 195.837 79.598C197.627 79.348 199.357 78.888 201.027 78.188C202.697 77.488 204.107 76.388 205.817 75.958C208.187 75.368 211.067 75.728 212.997 73.968C213.407 73.588 213.737 73.138 213.967 72.628C214.197 72.118 214.147 70.888 214.487 70.538C214.797 70.218 215.827 70.288 216.247 70.248C216.977 70.188 217.707 70.158 218.437 70.178C219.737 70.208 221.167 70.378 222.277 71.118C223.387 71.858 223.677 73.148 224.237 74.318C224.877 75.658 226.027 76.708 227.577 76.768C229.387 76.838 230.897 75.618 232.277 74.628C235.557 72.268 238.837 69.898 242.107 67.538C244.997 65.458 248.397 63.518 247.927 59.438C247.727 57.708 246.957 56.088 246.847 54.348C246.737 52.728 247.057 51.078 247.817 49.638C248.267 48.768 249.297 47.918 249.587 46.988C249.757 46.458 249.567 47.048 249.347 47.008C249.517 47.038 249.727 47.008 249.907 47.038C250.457 47.088 250.997 47.218 251.557 47.248C252.867 47.308 254.177 46.828 254.867 45.658C255.747 44.188 255.367 42.198 255.287 40.578C255.187 38.578 255.087 36.568 254.997 34.568L253.497 36.068C255.597 35.848 257.687 35.628 259.787 35.408C261.497 35.228 263.167 35.048 264.507 33.858C266.897 31.738 266.787 28.258 266.717 25.348C266.687 23.758 266.647 21.918 267.757 20.648C268.677 19.588 270.197 19.238 271.497 18.888C274.677 18.048 277.327 16.898 279.627 14.468C281.927 12.038 283.497 9.13804 285.747 6.72804C287.997 4.31804 291.177 2.00804 294.497 3.32804C297.387 4.47804 299.007 7.70804 300.437 10.258C302.417 13.798 304.457 17.288 306.587 20.748C310.427 26.988 314.397 33.328 319.657 38.478C322.147 40.918 324.937 42.998 327.967 44.698C330.817 46.298 333.807 47.658 336.547 49.468C339.287 51.278 341.607 53.758 342.877 56.938C344.307 60.548 345.067 64.458 346.047 68.198C348.227 76.528 350.407 84.858 352.587 93.198C353.447 96.488 354.327 100.018 356.897 102.438C359.257 104.658 362.417 105.528 365.117 107.218C370.857 110.808 370.667 119.768 368.147 125.258C367.447 126.778 366.547 128.188 365.467 129.458C364.227 130.908 366.207 132.968 367.587 131.578L368.007 131.158L365.887 129.038C364.757 130.178 364.397 131.638 364.317 133.198C364.217 135.098 364.197 136.898 363.787 138.778C362.957 142.618 361.717 146.408 362.407 150.378C362.547 151.208 362.807 152.008 363.147 152.778C363.487 153.548 364.227 154.408 364.127 155.238C363.947 156.728 361.827 158.248 360.837 159.188C359.417 160.538 357.917 161.758 356.167 162.668C354.417 163.578 352.657 164.118 350.867 164.738C347.667 165.848 344.437 167.158 342.117 169.728C339.667 172.438 339.227 175.528 339.947 179.018C340.287 180.658 340.897 182.518 340.197 184.148C339.497 185.778 338.527 186.988 338.847 188.888C339.457 192.478 343.047 193.728 345.287 196.058C345.677 196.468 346.647 197.618 346.277 198.248C346.037 198.668 345.137 198.648 344.707 198.708C343.007 198.928 341.397 199.298 340.417 200.858C339.437 202.418 339.577 204.548 340.857 205.938C341.977 207.158 343.377 207.368 344.927 207.148L343.077 206.098C344.497 211.338 346.077 216.518 349.707 220.698C351.467 222.718 353.907 224.458 355.307 226.758C356.387 228.528 352.677 230.068 351.577 230.918C349.627 232.428 348.027 234.388 346.947 236.608C346.507 237.518 346.177 238.598 345.247 239.118C344.377 239.608 343.277 239.608 342.307 239.638C340.187 239.698 337.897 239.648 336.057 240.858C334.087 242.148 333.097 244.408 332.797 246.678C332.417 249.598 333.267 252.488 333.187 255.408C333.107 258.328 332.457 261.128 332.797 264.008C333.407 269.128 337.867 273.308 342.357 275.428C344.557 276.468 347.057 276.908 349.407 276.078C351.617 275.298 353.297 273.578 353.747 271.248C354.157 269.108 353.447 266.508 355.197 264.848C356.587 263.528 358.747 263.128 360.597 263.338C363.537 263.678 366.167 265.458 368.707 266.838C371.377 268.298 374.217 269.278 377.017 270.448C379.817 271.618 382.147 273.198 384.227 275.338C386.307 277.478 388.037 279.968 389.747 282.438C390.277 283.208 391.397 283.488 392.107 282.738C394.627 280.098 399.247 281.108 402.457 281.318C407.287 281.638 412.127 281.848 416.967 281.928C419.347 281.968 421.727 281.978 424.107 281.968C425.257 281.968 426.407 281.948 427.557 281.928C428.597 281.908 429.697 281.968 430.617 281.408C432.087 280.518 432.197 278.698 431.677 277.228C431.417 276.468 431.007 275.848 430.587 275.178C430.367 274.828 430.157 274.458 430.047 274.058C429.977 273.798 429.987 273.478 429.967 273.498L428.147 271.138L427.767 271.508L430.127 273.328C431.857 270.948 431.897 267.928 433.327 265.428C433.957 264.318 434.937 263.308 436.317 263.408C437.807 263.518 439.097 264.698 440.107 265.688C440.467 266.048 441.067 266.248 441.567 266.078C444.797 264.958 447.347 262.748 448.907 259.698C449.757 258.038 450.617 257.488 452.487 257.638C454.107 257.768 455.687 258.248 457.307 258.408C460.937 258.748 464.707 257.838 467.807 255.938C469.547 254.868 471.097 253.508 472.927 252.568C474.597 251.708 476.407 251.188 478.217 250.738C480.027 250.288 481.957 250.018 483.717 249.348C485.377 248.718 486.437 247.678 487.707 246.488C488.977 245.298 490.407 245.858 491.827 246.408C493.327 246.988 494.797 247.658 496.427 247.768C498.367 247.898 500.157 247.058 501.827 246.188C503.497 245.318 505.097 244.458 506.687 243.508C509.907 241.588 512.607 239.328 515.087 236.528C516.517 234.908 517.927 234.228 520.047 235.088C522.167 235.948 524.007 237.488 525.857 238.758C526.817 239.418 527.777 240.068 528.737 240.728C529.077 240.968 529.617 241.188 529.617 241.628C529.617 241.978 529.047 242.628 528.867 242.918C527.677 244.818 526.257 246.518 524.657 248.068C524.207 248.498 524.047 249.348 524.427 249.888C525.217 251.028 526.257 251.368 527.527 251.748C527.987 251.888 528.387 251.928 528.407 252.438C528.437 253.078 527.657 253.658 527.217 253.958C525.997 254.798 524.677 255.388 523.697 256.538C522.717 257.688 522.067 259.018 521.677 260.458C520.767 263.778 521.357 267.188 521.237 270.568C521.137 273.418 520.127 276.928 516.967 277.658L518.817 279.508L518.917 279.218L516.177 279.578C518.767 284.208 521.077 288.998 523.027 293.928C523.987 296.348 524.867 298.798 525.667 301.278C526.297 303.238 527.717 306.138 526.417 308.068L527.717 307.328C525.057 307.678 523.167 309.738 522.027 312.048C520.737 314.668 519.887 317.378 518.217 319.808C515.027 324.468 510.347 327.948 505.647 330.968C501.367 333.718 495.347 336.278 495.567 342.268C495.617 343.668 496.067 345.198 495.787 346.588C495.527 347.848 494.477 348.368 493.387 348.818C491.067 349.778 488.937 350.658 488.127 353.258C487.647 354.778 487.687 356.498 487.587 358.068C487.487 359.758 487.347 361.458 487.337 363.158C487.327 366.258 487.857 369.338 489.847 371.808L490.907 369.248C487.327 369.428 486.257 372.778 485.157 375.598C484.497 377.288 483.487 377.968 481.767 378.438C479.817 378.968 477.847 379.438 475.897 379.948C474.147 380.408 472.857 381.218 472.497 383.098C472.137 384.978 472.097 386.768 471.697 388.578C471.517 389.368 471.327 390.258 470.867 390.928C470.337 391.718 469.427 391.958 468.557 392.208C466.627 392.768 464.647 393.018 462.637 392.968C458.687 392.888 455.097 391.278 451.317 390.348C447.537 389.418 443.677 388.938 439.817 388.908C435.947 388.878 432.067 389.318 428.297 390.188C425.017 390.948 421.597 391.978 418.757 393.858C417.957 394.388 417.187 394.988 416.507 395.658C416.187 395.978 415.887 396.308 415.607 396.658C415.417 396.898 415.127 397.478 414.837 397.608C414.157 397.918 412.577 397.088 411.897 396.878C410.787 396.528 409.667 396.188 408.557 395.838C406.617 395.238 404.567 394.748 402.707 393.908C401.497 393.358 399.867 392.468 399.687 390.978C399.557 389.918 398.837 389.388 397.787 389.528L396.977 389.638C396.497 389.698 396.027 390.238 395.927 390.688C394.937 395.358 390.997 398.848 386.407 399.868C383.947 400.418 381.707 399.998 379.387 399.128C376.907 398.198 373.747 397.908 372.237 400.588H374.827C372.827 397.808 369.617 395.518 366.027 396.088C362.437 396.658 360.077 399.778 360.557 403.248L362.407 401.398C361.407 401.188 360.407 400.988 359.407 400.778C358.557 400.598 357.867 401.028 357.557 401.828C356.757 403.948 355.527 405.828 353.937 407.438L356.297 407.738C355.087 405.928 352.907 405.528 350.947 406.368C348.717 407.328 347.827 409.578 347.667 411.878C347.527 413.878 347.507 416.928 349.327 418.218C350.247 418.868 351.277 418.728 352.247 419.168C353.387 419.688 352.447 421.158 351.927 421.828C350.327 423.928 348.657 425.838 347.387 428.178C346.117 430.518 345.197 432.918 344.577 435.428C344.037 437.618 343.267 440.428 344.717 442.408C345.947 444.088 348.557 444.648 348.407 447.098C348.257 449.548 346.367 451.388 344.857 453.158C343.197 455.108 342.087 457.028 341.617 459.558C341.407 460.648 341.287 461.908 340.497 462.758C339.637 463.678 338.197 464.208 337.047 464.658C334.787 465.548 332.397 466.118 330.017 466.568C325.167 467.488 320.177 467.918 315.477 469.508C310.777 471.098 306.667 473.938 303.867 478.098C303.107 479.218 302.287 480.518 302.037 481.868C301.767 483.358 302.437 484.638 303.127 485.908C304.417 488.318 305.787 490.708 307.647 492.728C308.567 493.728 309.627 494.608 310.787 495.328C311.947 496.048 313.287 496.668 314.097 497.898C315.527 500.068 315.357 502.998 315.247 505.478C315.177 507.108 317.227 507.328 318.047 506.238L318.467 505.678C319.437 504.378 317.617 503.008 316.417 503.628C312.597 505.578 310.677 510.328 312.057 514.388L313.507 512.488C308.207 511.908 303.177 509.948 297.947 508.998C295.437 508.538 292.857 508.278 290.307 508.548C289.097 508.678 287.907 508.908 286.727 509.248C285.397 509.638 284.047 510.198 282.657 510.248C280.367 510.328 278.377 508.778 276.187 508.338C275.207 508.138 274.187 508.118 273.237 508.448C272.057 508.848 271.337 509.888 270.217 510.338C268.017 511.218 265.477 509.118 263.617 508.238C262.567 507.738 261.507 507.338 260.347 507.218C259.027 507.068 257.777 507.428 256.467 507.518C255.267 507.598 254.747 507.108 253.827 506.438C252.847 505.728 251.727 505.478 250.567 505.918C249.517 506.318 248.607 507.118 247.737 507.808C246.657 508.658 245.617 509.548 244.627 510.508C242.837 512.238 241.337 514.178 239.757 516.088C238.357 517.778 236.757 519.578 234.577 520.218C232.767 520.748 230.787 520.408 229.177 519.458C228.347 518.968 227.617 518.318 227.087 517.528C226.467 516.598 226.147 515.488 225.347 514.678C224.437 513.758 223.207 513.508 221.977 513.278C220.547 513.018 219.107 512.758 217.667 512.498C216.227 512.238 214.877 512.018 213.487 511.738C212.287 511.498 211.617 511.268 211.107 510.118C209.947 507.508 207.657 507.068 205.037 507.728C202.417 508.388 200.117 509.378 197.877 510.618C193.237 513.178 189.297 516.888 186.397 521.318L188.087 520.628C186.707 520.308 185.257 520.598 183.847 520.368C182.077 520.088 180.357 519.498 178.687 518.848C175.267 517.508 171.967 515.778 168.367 514.988C164.767 514.198 161.087 514.448 157.747 512.718C155.867 511.738 154.637 512.558 153.077 513.698C151.597 514.768 150.187 515.938 148.857 517.198C145.867 520.058 143.337 523.398 141.357 527.038L143.047 526.348C138.917 525.538 135.457 523.158 131.807 521.218C127.887 519.128 123.687 517.838 119.327 517.018C115.237 516.248 111.007 516.058 106.967 515.058C105.197 514.618 103.417 513.988 101.977 512.838C100.537 511.688 99.647 509.918 98.457 508.468C97.267 507.018 95.587 505.908 93.597 505.928C91.747 505.958 90.217 506.908 89.587 508.658L92.327 508.298C89.937 504.068 87.347 499.898 85.257 495.518C83.167 491.138 82.677 486.308 82.027 481.528C81.857 480.318 81.697 479.108 81.527 477.898C81.387 476.858 80.997 475.568 81.567 474.608C82.037 473.818 82.907 473.218 83.587 472.628C84.417 471.898 85.217 471.148 85.967 470.338C88.757 467.328 90.557 463.598 90.107 459.418C89.607 454.798 86.947 450.688 83.667 447.518C83.167 447.038 82.447 446.968 81.847 447.288L81.637 447.398L83.457 449.758C86.197 447.518 88.627 444.948 90.727 442.098C92.497 439.688 93.967 436.138 91.697 433.548C90.687 432.398 89.187 431.768 87.917 430.968C86.317 429.948 84.797 428.818 83.367 427.568C80.877 425.388 77.987 422.698 76.877 419.498C76.357 417.998 76.137 416.398 75.877 414.838C75.537 412.788 75.247 410.688 75.417 408.608C75.707 405.098 77.797 402.028 77.527 398.418C77.257 394.808 75.547 391.778 73.637 388.928C71.727 386.078 69.447 383.158 67.037 380.548C64.627 377.938 61.467 375.438 60.917 371.668C60.367 367.898 61.507 363.988 60.207 360.238L58.757 362.138C62.567 362.398 66.347 362.898 70.087 363.638C71.947 364.008 73.797 364.438 75.627 364.918C77.107 365.308 78.597 365.898 80.117 366.068C81.317 366.208 81.897 364.718 81.417 363.808C79.967 361.078 84.327 360.778 85.397 359.228C86.247 357.998 85.987 356.618 85.677 355.258C85.277 353.538 85.107 351.808 85.207 350.038C85.247 349.348 85.277 348.608 85.517 347.948C85.707 347.428 85.747 347.328 86.197 347.288C86.987 347.218 87.507 347.428 88.177 346.868C88.707 346.428 88.967 345.768 88.977 345.078C88.997 343.578 88.287 341.908 87.817 340.508C87.237 338.778 86.537 337.088 85.777 335.428C85.127 334.008 83.007 334.798 82.977 336.188L82.957 336.948H85.957C85.397 327.388 80.427 318.778 74.477 311.518C73.057 309.788 71.447 308.168 69.457 307.108C67.467 306.048 65.197 305.538 62.937 305.238C58.057 304.598 53.217 304.318 48.397 303.208C43.577 302.098 38.867 300.428 34.557 297.958C32.477 296.768 31.007 295.558 30.297 293.198C29.687 291.168 29.087 289.188 27.927 287.388C26.767 285.588 25.327 284.088 23.507 283.058C21.507 281.908 19.267 281.618 17.017 281.348C14.767 281.078 12.727 280.678 11.007 279.218C9.46704 277.908 8.38704 276.168 7.49704 274.368C6.39704 272.138 5.59704 269.738 4.84704 267.378C3.97704 264.638 3.24704 261.808 3.01704 258.938C2.60704 253.938 3.65704 248.658 7.24704 244.948C8.33704 243.818 7.21704 242.168 5.78704 242.438L5.54704 242.488C3.64704 242.848 4.45704 245.718 6.34704 245.378C8.85704 244.928 10.537 242.778 11.127 240.388C11.797 237.698 11.157 235.128 9.90704 232.708C8.41704 229.818 6.18704 227.268 5.57704 223.978C5.04704 221.098 5.73704 217.848 8.04704 215.908C10.207 214.098 13.207 213.758 15.567 215.348C17.927 216.938 19.597 219.388 22.357 220.478C27.997 222.698 33.497 218.508 38.617 216.758C41.787 215.678 44.857 216.048 48.137 215.948C50.917 215.858 53.617 215.168 55.667 213.188C58.867 210.088 59.597 205.468 61.717 201.718C62.797 199.808 64.127 198.658 66.317 198.278C67.807 198.028 69.137 197.778 70.297 196.728C71.317 195.808 71.987 194.488 72.277 193.148C72.967 189.858 71.417 186.838 69.747 184.108C67.987 181.248 66.207 178.388 64.217 175.678C63.107 174.168 61.937 172.688 60.667 171.308C59.397 169.928 57.677 168.658 57.047 166.738C56.517 165.118 55.977 163.748 54.557 162.688C53.317 161.768 51.797 161.318 50.547 160.428C45.747 156.988 46.337 149.438 46.827 144.308L44.927 145.758C48.067 146.638 51.507 146.188 54.297 144.488C55.737 143.608 56.837 142.448 57.847 141.118C58.907 139.708 59.937 138.418 61.837 138.328C65.517 138.158 68.197 141.378 70.687 143.608C73.477 146.108 76.587 148.228 79.837 150.078C83.087 151.928 86.547 153.558 89.977 155.148C92.367 156.248 95.457 157.538 98.017 156.158C100.577 154.778 100.357 151.488 98.247 149.878C96.137 148.268 93.197 148.248 91.397 146.268C89.277 143.928 89.107 140.228 90.247 137.418C91.697 133.828 94.827 131.158 97.867 128.918C99.407 127.788 97.907 125.178 96.357 126.328C91.397 129.988 86.067 135.048 86.587 141.788C86.797 144.558 87.887 147.348 90.077 149.148C91.137 150.018 92.347 150.508 93.617 150.978C94.507 151.308 96.257 151.708 96.787 152.588C97.227 153.318 96.457 153.638 95.847 153.708C94.627 153.838 93.367 153.418 92.267 152.928C88.897 151.398 85.527 149.818 82.277 148.028C79.027 146.238 75.897 144.238 73.107 141.788C70.517 139.518 68.137 136.788 64.737 135.748C62.937 135.198 60.937 135.168 59.187 135.918C57.437 136.668 56.377 138.148 55.237 139.618C52.977 142.548 49.307 143.888 45.707 142.888C44.697 142.608 43.897 143.388 43.807 144.338C43.327 149.338 43.117 155.038 45.747 159.528C47.127 161.888 49.117 163.188 51.497 164.398C52.937 165.138 53.587 165.828 54.077 167.388C54.567 168.948 55.297 170.148 56.417 171.308C61.047 176.138 65.057 181.598 68.217 187.508C69.327 189.578 70.507 193.598 67.647 194.958C66.357 195.568 64.797 195.418 63.467 195.988C62.537 196.388 61.707 196.968 60.987 197.688C57.967 200.708 57.267 205.238 55.207 208.848C54.047 210.878 52.497 212.328 50.127 212.788C47.017 213.388 43.797 212.668 40.667 213.168C37.797 213.628 35.147 214.938 32.517 216.118C30.167 217.178 27.457 218.438 24.807 218.088C21.907 217.698 20.117 215.158 17.967 213.458C15.817 211.758 13.097 210.938 10.267 211.578C3.15704 213.178 0.937038 221.368 3.50704 227.488C4.83704 230.648 7.50704 233.338 8.26704 236.728C8.75704 238.928 8.08704 242.058 5.53704 242.508L6.33704 245.398L6.57704 245.348L5.11704 242.838C-1.95296 250.148 -0.532962 260.948 2.45704 269.738C3.79704 273.688 5.30704 277.908 8.35704 280.888C9.88704 282.378 11.757 283.398 13.837 283.878C16.207 284.418 18.737 284.298 21.017 285.198C22.937 285.958 24.457 287.498 25.507 289.238C26.677 291.158 27.017 293.298 27.847 295.358C29.597 299.698 34.897 301.768 38.927 303.418C43.507 305.288 48.347 306.468 53.237 307.188C55.677 307.548 58.127 307.788 60.587 308.008C63.047 308.228 65.387 308.488 67.527 309.528C69.917 310.678 71.627 312.748 73.217 314.808C74.807 316.868 76.437 319.208 77.817 321.558C80.587 326.278 82.597 331.468 82.917 336.968C83.027 338.888 85.877 338.918 85.917 336.968L85.937 336.208L83.137 336.968C83.927 338.678 84.597 340.418 85.157 342.218C85.297 342.658 85.427 343.108 85.547 343.548C85.637 343.888 85.677 344.668 85.897 344.888L85.927 345.108C86.887 344.658 87.097 344.408 86.567 344.358C86.277 344.208 85.817 344.258 85.497 344.288C82.377 344.668 82.107 348.788 82.117 351.188C82.117 352.898 82.377 354.598 82.767 356.258C82.907 356.878 83.117 357.348 82.587 357.748C82.097 358.098 81.367 358.208 80.827 358.468C78.287 359.728 77.467 362.908 78.767 365.338L80.067 363.078C78.557 362.908 76.947 362.178 75.457 361.798C73.617 361.338 71.767 360.928 69.907 360.578C66.207 359.878 62.467 359.418 58.707 359.148C57.767 359.078 56.957 360.168 57.257 361.048C58.397 364.358 57.497 367.838 57.807 371.248C58.107 374.468 59.587 377.038 61.727 379.398C63.867 381.758 66.297 384.158 68.337 386.778C70.377 389.398 72.577 392.338 73.767 395.508C74.377 397.148 74.687 398.868 74.377 400.608C74.067 402.348 73.347 403.878 72.897 405.528C71.937 409.028 72.417 412.618 73.007 416.138C73.597 419.658 74.507 422.358 76.687 425.058C78.867 427.758 81.207 429.888 83.857 431.868C85.347 432.978 86.937 433.888 88.497 434.868C90.207 435.938 89.957 437.478 89.077 439.088C87.267 442.408 84.177 445.298 81.277 447.668C79.907 448.788 81.657 450.788 83.097 450.028L83.307 449.918L81.487 449.688C84.297 452.398 86.827 456.028 87.107 460.038C87.407 464.418 84.657 467.678 81.567 470.428C80.147 471.688 78.607 472.918 78.297 474.908C78.147 475.878 78.327 476.828 78.457 477.788C78.637 479.078 78.807 480.368 78.987 481.668C79.637 486.428 80.067 491.228 81.977 495.688C84.087 500.618 87.057 505.218 89.687 509.878C90.357 511.068 92.007 510.688 92.427 509.518C92.807 508.468 94.677 509.108 95.257 509.568C96.577 510.608 97.337 512.278 98.377 513.568C100.607 516.328 104.027 517.628 107.407 518.298C111.217 519.048 115.107 519.318 118.917 520.058C122.937 520.838 126.807 522.028 130.417 523.968C134.217 526.018 137.887 528.468 142.197 529.308C142.837 529.438 143.557 529.228 143.887 528.618C145.517 525.608 147.517 522.848 149.907 520.398C151.097 519.178 152.357 518.028 153.707 516.978C154.357 516.478 155.017 515.998 155.707 515.538C155.797 515.478 156.027 515.278 156.137 515.258C156.007 515.278 155.837 515.228 156.167 515.378C156.597 515.568 157.007 515.838 157.447 516.028C160.697 517.458 164.297 517.218 167.707 517.998C171.117 518.778 174.117 520.308 177.267 521.588C178.997 522.288 180.767 522.918 182.607 523.268C183.507 523.438 184.427 523.558 185.347 523.588C185.997 523.608 186.637 523.458 187.237 523.588C187.917 523.748 188.557 523.478 188.927 522.898C191.407 519.108 194.747 515.938 198.657 513.658C200.667 512.488 202.797 511.558 205.027 510.898C205.747 510.688 207.027 510.168 207.767 510.568C208.187 510.798 208.327 511.428 208.507 511.828C208.757 512.388 209.057 512.878 209.507 513.298C211.217 514.918 214.147 514.968 216.337 515.368C217.617 515.598 218.887 515.828 220.167 516.058C221.567 516.308 222.947 516.288 223.667 517.658C225.577 521.298 229.047 523.758 233.297 523.498C237.987 523.208 240.797 519.498 243.527 516.138C245.107 514.188 246.857 512.398 248.787 510.788C249.297 510.358 249.827 509.948 250.367 509.558C250.637 509.358 251.257 508.768 251.627 508.748C252.017 508.728 252.477 509.268 252.787 509.508C253.297 509.898 253.837 510.218 254.457 510.388C256.737 511.018 258.997 509.728 261.267 510.538C263.537 511.348 265.457 513.008 267.927 513.418C268.927 513.588 269.987 513.588 270.957 513.268C272.147 512.878 272.877 511.838 273.997 511.388C275.787 510.658 278.227 512.378 279.897 512.888C282.707 513.758 285.187 512.808 287.897 512.068C290.607 511.328 293.467 511.358 296.237 511.788C302.057 512.698 307.577 514.888 313.447 515.528C314.387 515.628 315.187 514.478 314.897 513.628C313.917 510.768 315.177 507.638 317.877 506.258L315.827 504.208L315.407 504.768L318.207 505.528C318.397 500.938 317.947 496.328 313.727 493.668C311.677 492.378 309.937 491.158 308.507 489.158C307.857 488.258 307.277 487.308 306.727 486.338C306.177 485.368 305.177 484.058 304.987 482.928C304.807 481.878 305.767 480.658 306.317 479.818C306.977 478.818 307.737 477.898 308.587 477.058C310.267 475.378 312.267 474.078 314.437 473.138C318.717 471.278 323.467 470.738 328.037 469.988C332.607 469.238 337.527 468.438 341.367 465.898C343.537 464.468 344.087 462.428 344.557 460.008C345.027 457.588 346.397 455.968 347.977 454.148C350.617 451.098 353.307 446.018 349.547 442.658C348.827 442.008 347.697 441.548 347.137 440.738C346.527 439.858 346.987 438.438 347.187 437.468C347.677 435.038 348.467 432.668 349.577 430.458C350.847 427.928 352.567 425.868 354.287 423.648C355.757 421.748 356.547 418.828 354.427 417.038C353.487 416.248 352.407 416.388 351.357 415.948C350.437 415.568 350.637 413.768 350.627 412.918C350.607 411.788 350.657 410.318 351.557 409.498C352.017 409.068 353.227 408.618 353.677 409.298C354.207 410.088 355.317 410.328 356.037 409.598C357.997 407.608 359.447 405.278 360.427 402.668L358.577 403.718C359.577 403.928 360.577 404.128 361.577 404.338C362.787 404.588 363.577 403.638 363.427 402.488C363.157 400.528 365.377 399.008 367.117 399.028C369.197 399.048 371.047 400.508 372.207 402.128C372.837 403.008 374.207 403.178 374.797 402.128C375.507 400.858 377.337 401.588 378.367 401.978C379.607 402.438 380.787 402.848 382.107 403.028C384.547 403.358 387.057 403.028 389.347 402.128C393.957 400.318 397.757 396.448 398.797 391.518L397.747 392.568L398.557 392.458L396.657 391.008C397.037 394.258 399.617 395.978 402.477 397.078C404.347 397.798 406.297 398.318 408.207 398.908C410.117 399.498 412.157 400.418 414.157 400.648C416.157 400.878 416.987 399.538 418.207 398.208C419.347 396.958 420.767 396.048 422.277 395.318C425.697 393.668 429.647 392.788 433.397 392.308C437.407 391.788 441.517 391.788 445.527 392.308C449.537 392.828 453.437 394.278 457.447 395.278C461.337 396.248 465.467 396.218 469.327 395.108C471.127 394.588 472.717 393.838 473.617 392.108C474.477 390.478 474.747 388.588 474.987 386.788C475.117 385.818 475.027 384.428 475.437 383.538C475.817 382.708 477.497 382.638 478.337 382.428C480.437 381.888 482.777 381.548 484.727 380.558C486.437 379.688 487.357 378.148 488.017 376.408C488.517 375.098 489.067 372.348 490.867 372.258C492.247 372.188 492.737 370.708 491.927 369.698C489.707 366.948 490.267 362.718 490.467 359.458C490.577 357.698 490.387 355.568 491.037 353.908C491.607 352.468 493.327 352.068 494.627 351.528C496.027 350.948 497.357 350.168 498.117 348.808C499.037 347.158 498.817 345.288 498.637 343.498C498.457 341.708 498.507 340.138 499.747 338.708C500.867 337.428 502.337 336.528 503.777 335.658C509.907 331.928 516.047 327.848 520.337 321.968C521.407 320.508 522.317 318.928 523.047 317.278C523.847 315.468 524.377 313.408 525.647 311.848C526.087 311.298 526.737 310.658 527.397 310.418C528.107 310.158 528.617 310.178 529.097 309.448C530.107 307.898 530.027 305.988 529.647 304.248C528.677 299.748 526.807 295.268 525.037 291.028C523.267 286.788 521.087 282.278 518.747 278.088C518.087 276.908 516.397 277.268 516.007 278.448L515.907 278.738C515.527 279.878 516.697 280.828 517.757 280.588C521.007 279.828 523.157 276.838 523.857 273.698C524.747 269.718 523.517 265.598 524.467 261.648C524.867 259.998 525.617 258.538 527.057 257.578C528.497 256.618 530.037 255.968 530.857 254.388C531.567 253.018 531.637 251.228 530.507 250.048C529.987 249.508 529.307 249.198 528.597 248.958C528.167 248.818 527.257 248.778 526.997 248.398L526.767 250.218C528.247 248.788 529.577 247.218 530.747 245.528C531.747 244.078 533.237 242.158 532.437 240.308C531.677 238.558 529.287 237.498 527.787 236.468C526.007 235.248 524.267 233.898 522.347 232.898C520.687 232.028 518.827 231.428 516.937 231.808C515.047 232.188 513.777 233.488 512.597 234.848C509.937 237.948 506.687 240.138 503.127 242.098C501.427 243.038 499.577 244.318 497.657 244.708C495.847 245.078 494.097 244.088 492.457 243.468C490.937 242.898 489.287 242.508 487.697 243.038C485.907 243.638 485.077 245.368 483.487 246.218C481.797 247.118 479.697 247.328 477.847 247.768C475.837 248.248 473.867 248.838 471.997 249.718C470.127 250.598 468.457 251.978 466.687 253.118C464.917 254.258 463.067 254.978 461.047 255.318C459.027 255.658 456.947 255.398 454.887 255.008C453.037 254.658 451.047 254.338 449.247 255.098C447.237 255.948 446.687 257.828 445.577 259.518C444.467 261.208 442.717 262.528 440.777 263.208L442.237 263.598C439.557 260.958 435.527 259.028 432.287 261.968C429.377 264.608 429.747 268.838 427.547 271.848C426.527 273.248 428.717 274.828 429.907 273.668L430.287 273.298C431.477 272.128 429.927 269.998 428.467 270.938C427.007 271.878 426.717 273.588 427.277 275.198C427.577 276.058 428.087 276.738 428.537 277.518C428.687 277.788 428.827 278.068 428.907 278.368C428.967 278.528 428.997 278.698 428.997 278.868C428.987 279.048 428.977 279.058 428.977 278.918C428.767 279.128 427.397 278.958 427.087 278.968C426.597 278.968 426.107 278.988 425.607 278.988C424.297 279.008 422.977 279.008 421.667 279.008C419.287 279.008 416.907 278.968 414.527 278.908C409.687 278.788 404.857 278.518 400.027 278.178C396.527 277.928 392.617 277.918 390.007 280.648L392.367 280.948C389.457 276.758 386.427 272.448 382.037 269.668C379.727 268.198 377.127 267.298 374.597 266.308C372.067 265.318 369.677 263.898 367.227 262.608C363.267 260.528 358.447 259.168 354.357 261.768C352.557 262.918 351.417 264.658 351.117 266.768C350.797 269.078 351.467 271.888 348.907 273.088C346.567 274.188 344.047 273.128 342.047 271.808C340.047 270.488 337.827 268.698 336.637 266.488C335.267 263.938 335.737 260.918 336.017 258.168C336.157 256.798 336.267 255.418 336.207 254.038C336.137 252.508 335.867 250.988 335.767 249.458C335.627 247.298 335.807 244.308 338.047 243.208C339.827 242.338 342.077 242.768 343.987 242.538C346.267 242.268 348.047 241.238 349.097 239.148C350.237 236.888 351.387 234.878 353.427 233.288C355.257 231.848 357.877 230.848 358.517 228.358C359.227 225.568 356.297 223.188 354.577 221.438C352.347 219.178 350.327 216.958 348.937 214.078C347.547 211.198 346.807 208.288 346.007 205.318C345.777 204.458 344.967 204.158 344.157 204.268C343.987 204.288 343.817 204.308 343.657 204.338L343.467 204.368C343.937 204.368 343.957 204.328 343.537 204.238C343.087 203.718 342.527 203.488 342.877 202.658C343.387 201.448 345.467 201.728 346.507 201.458C349.727 200.648 349.887 197.148 348.127 194.788C347.237 193.588 346.017 192.708 344.817 191.848C343.617 190.988 342.107 189.948 341.817 188.458C341.527 186.968 343.017 185.578 343.327 184.198C343.687 182.618 343.417 181.008 343.097 179.448C342.777 177.888 342.307 176.308 342.667 174.728C343.027 173.148 343.997 171.968 345.137 170.968C347.607 168.788 350.887 167.958 353.917 166.868C357.307 165.648 360.157 163.968 362.777 161.498C364.917 159.478 368.027 156.918 366.847 153.608C366.527 152.708 365.947 151.938 365.637 151.038C365.307 150.088 365.177 149.098 365.167 148.098C365.137 146.148 365.557 144.258 366.007 142.368C366.517 140.248 367.057 138.128 367.227 135.948C367.337 134.508 366.857 132.318 367.987 131.198C369.347 129.828 367.237 127.708 365.867 129.078L365.447 129.498L367.567 131.618C372.077 126.368 373.897 119.038 372.057 112.318C371.107 108.838 369.147 106.078 365.987 104.298C363.217 102.728 359.747 101.828 357.887 99.048C356.887 97.568 356.367 95.828 355.907 94.118C355.337 92.038 354.817 89.958 354.267 87.878C353.157 83.628 352.047 79.388 350.937 75.138C349.827 70.888 348.677 66.488 347.537 62.158C346.587 58.528 345.647 54.768 343.337 51.718C339.197 46.238 332.387 44.238 326.867 40.568C320.667 36.458 316.197 30.288 312.217 24.118C309.977 20.638 307.817 17.108 305.727 13.538C303.857 10.328 302.247 6.85804 299.907 3.95804C297.817 1.36804 294.827 -0.37196 291.417 0.0680398C288.007 0.50804 284.987 2.92804 282.797 5.54804C280.607 8.16804 278.967 11.148 276.427 13.398C273.887 15.648 270.737 15.658 267.827 16.998C264.427 18.568 263.617 21.928 263.687 25.378C263.717 26.918 263.847 28.448 263.427 29.948C262.917 31.728 261.737 32.218 259.997 32.408C257.817 32.638 255.637 32.868 253.467 33.098C252.687 33.178 251.927 33.718 251.967 34.598C252.057 36.518 252.157 38.448 252.247 40.368C252.287 41.148 252.837 43.938 252.027 44.268C251.327 44.558 250.057 44.008 249.307 44.038C247.987 44.088 247.387 44.748 246.797 45.808C246.597 46.168 245.747 47.178 245.377 47.808C244.527 49.288 244.027 50.928 243.857 52.618C243.707 54.078 243.877 55.528 244.247 56.948C244.637 58.468 245.487 60.348 244.517 61.798C243.667 63.068 241.987 63.938 240.767 64.818C239.197 65.948 237.617 67.088 236.047 68.218C234.477 69.348 232.897 70.488 231.327 71.618C230.467 72.238 228.207 74.468 227.177 73.518C226.387 72.778 226.237 71.198 225.607 70.298C224.857 69.218 223.807 68.458 222.597 67.968C220.157 66.968 217.307 67.068 214.747 67.408C213.397 67.588 212.177 68.108 211.657 69.458C211.257 70.488 211.577 71.598 210.387 72.098C209.407 72.508 208.257 72.568 207.217 72.708C205.787 72.888 204.457 73.148 203.147 73.758C201.567 74.498 200.137 75.418 198.457 75.958C196.777 76.498 195.217 76.738 193.547 76.838C190.227 77.018 186.907 76.598 183.647 76.058C180.387 75.518 176.887 74.818 173.467 74.418C171.987 74.238 170.397 74.098 169.017 74.808C167.637 75.518 167.047 76.868 166.077 78.018C164.177 80.268 160.997 81.018 158.827 82.968C157.747 83.938 156.827 85.188 156.467 86.608C156.057 88.228 156.567 89.688 156.887 91.258C157.207 92.828 156.487 93.338 154.947 93.518C153.537 93.688 152.087 93.708 150.777 94.338C147.587 95.858 147.277 99.648 147.297 102.748C147.307 104.468 147.437 106.638 145.917 107.818C144.497 108.928 143.547 107.688 142.997 106.408C142.277 104.748 141.527 102.808 141.557 100.978C141.577 99.428 142.497 97.588 144.257 97.618V94.618C142.347 94.828 140.457 94.588 138.717 93.748C136.977 92.908 135.857 91.678 134.707 90.238C133.457 88.668 131.887 87.608 129.797 87.698C127.897 87.778 126.187 88.658 124.407 89.238C122.287 89.928 120.197 89.688 118.027 89.448C115.627 89.188 113.217 89.098 110.797 89.148C106.107 89.248 101.447 89.818 96.807 90.398C95.337 90.578 94.757 92.298 96.047 93.198C98.797 95.118 100.367 98.678 99.787 101.998C99.207 105.318 96.587 108.158 93.317 109.108C92.087 109.468 91.827 111.198 92.957 111.848C98.177 114.868 99.697 122.298 96.267 127.188C95.157 128.768 97.757 130.278 98.857 128.698H98.847Z" fill="#F28E7A"/>
<path d="M194.967 239.058C204.019 239.058 211.357 231.72 211.357 222.668C211.357 213.616 204.019 206.278 194.967 206.278C185.915 206.278 178.577 213.616 178.577 222.668C178.577 231.72 185.915 239.058 194.967 239.058Z" fill="#0E2825"/>
<path d="M120.287 188.568C119.927 188.568 119.757 188.408 119.757 188.078V156.848C119.757 156.518 119.937 156.358 120.287 156.358H124.847C125.047 156.358 125.187 156.408 125.257 156.508C125.337 156.608 125.377 156.718 125.377 156.848V184.288H137.467C137.827 184.288 137.997 184.468 137.997 184.828V188.078C137.997 188.408 137.817 188.568 137.467 188.568H120.287Z" fill="#0E2825"/>
<path d="M139.597 188.568C139.197 188.568 139.007 188.408 139.007 188.078V156.848C139.007 156.518 139.187 156.358 139.537 156.358H157.257C157.617 156.358 157.787 156.518 157.787 156.848V160.098C157.787 160.458 157.607 160.638 157.257 160.638H144.637V170.178H156.137C156.497 170.178 156.667 170.338 156.667 170.668V173.768C156.667 174.098 156.487 174.258 156.137 174.258H144.637V184.288H157.257C157.617 184.288 157.787 184.468 157.787 184.828V188.078C157.787 188.408 157.607 188.568 157.257 188.568H139.597Z" fill="#0E2825"/>
<path d="M168.767 188.568C168.527 188.568 168.327 188.438 168.177 188.178L158.697 156.948C158.577 156.558 158.717 156.358 159.107 156.358H164.087C164.447 156.358 164.657 156.488 164.737 156.748L170.307 176.958C170.627 178.078 170.907 179.208 171.167 180.348C171.427 181.498 171.667 182.658 171.907 183.838H172.027C172.307 182.688 172.587 181.548 172.887 180.398C173.187 179.248 173.467 178.118 173.747 177.008L179.377 156.748C179.457 156.488 179.677 156.358 180.027 156.358H184.947C185.377 156.358 185.517 156.538 185.357 156.898L175.817 188.178C175.737 188.438 175.537 188.568 175.227 188.568H168.767Z" fill="#0E2825"/>
<path d="M186.867 188.568C186.547 188.568 186.397 188.408 186.397 188.078V156.848C186.397 156.518 186.577 156.358 186.927 156.358H204.647C205.007 156.358 205.177 156.518 205.177 156.848V160.098C205.177 160.458 204.997 160.638 204.647 160.638H192.027V170.668H202.927C203.287 170.668 203.457 170.828 203.457 171.158V174.258C203.457 174.618 203.277 174.798 202.927 174.798H192.027V188.078C192.027 188.408 191.867 188.568 191.557 188.568H186.877H186.867Z" fill="#0E2825"/>
<path d="M218.307 188.958C214.317 188.958 211.287 188.058 209.207 186.258C207.137 184.458 206.097 181.828 206.097 178.388V166.588C206.097 163.118 207.137 160.478 209.207 158.668C211.277 156.868 214.317 155.968 218.307 155.968C222.297 155.968 225.327 156.868 227.407 158.668C229.477 160.468 230.517 163.108 230.517 166.588V178.388C230.517 181.828 229.477 184.458 227.407 186.258C225.337 188.058 222.297 188.958 218.307 188.958ZM218.307 184.688C220.477 184.688 222.117 184.158 223.227 183.088C224.337 182.018 224.887 180.388 224.887 178.198V166.788C224.887 164.558 224.337 162.908 223.227 161.848C222.117 160.778 220.477 160.248 218.307 160.248C216.137 160.248 214.557 160.778 213.447 161.848C212.337 162.918 211.787 164.558 211.787 166.788V178.198C211.787 180.398 212.337 182.028 213.447 183.088C214.557 184.158 216.177 184.688 218.307 184.688Z" fill="#0E2825"/>
<path d="M254.177 188.568C253.777 188.568 253.587 188.408 253.587 188.078V156.848C253.587 156.518 253.787 156.358 254.177 156.358H262.827C267.767 156.358 271.457 157.478 273.907 159.728C276.357 161.978 277.577 165.378 277.577 169.928V173.818C277.577 178.768 276.367 182.468 273.967 184.908C271.557 187.348 267.907 188.568 263.007 188.568H254.177ZM259.217 184.338H262.657C265.857 184.338 268.207 183.498 269.707 181.828C271.207 180.158 271.957 177.538 271.957 173.958V169.778C271.957 166.668 271.207 164.348 269.707 162.848C268.207 161.338 265.817 160.588 262.537 160.588H259.217V184.338Z" fill="#0E2825"/>
<path d="M232.587 183.578C232.997 184.928 233.797 187.048 234.287 188.188C234.517 188.698 234.877 188.568 235.437 188.358C248.467 184.048 255.317 169.638 251.427 156.708C251.277 156.548 251.027 156.518 250.687 156.568C237.567 159.148 228.477 170.168 232.587 183.558V183.588V183.578ZM237.487 181.898C237.307 181.858 237.187 181.628 237.097 181.328C236.937 180.768 236.837 180.188 236.757 179.628C235.677 172.008 239.627 166.028 246.617 163.008C246.887 162.908 247.127 162.868 247.287 162.958C247.517 163.078 247.557 163.498 247.557 163.778C247.717 170.878 243.897 178.578 237.497 181.898H237.477H237.487Z" fill="#0E2825"/>
</svg>
