<svg width="37" height="37" viewBox="0 0 37 37" fill="none" xmlns="http://www.w3.org/2000/svg">
<path d="M36.3021 20.7759L35.8675 17.059C35.8514 16.9252 35.7485 16.8195 35.6161 16.8021L32.1403 16.3256V16.3202L28.0868 15.7648L27.1975 15.643V15.6483L26.4673 15.548L27.4355 15.1531L32.0534 13.2673L35.1614 11.9984C35.3392 11.9262 35.4008 11.704 35.2857 11.5501L33.0524 8.54798C32.9721 8.4409 32.829 8.40075 32.706 8.45161L29.4576 9.77799L29.4549 9.77398L25.6676 11.3212L24.8371 11.6598L24.8397 11.6638L23.9304 12.0346L24.7742 10.9464L27.8314 7.00209L29.8882 4.34799C30.0059 4.19541 29.9484 3.97323 29.7719 3.89694L26.3376 2.41396C26.2145 2.36042 26.0714 2.3979 25.9885 2.50363L23.8381 5.2782L23.8327 5.27552L21.3252 8.5105L20.7756 9.21987L20.7809 9.22254L19.7405 10.565L20.0093 8.60687L20.686 3.66137L21.142 0.33404C21.1687 0.143983 21.0069 -0.0206434 20.817 0.00210993L17.1032 0.437099C16.9695 0.45316 16.8638 0.556219 16.8464 0.688724L16.3703 4.1673H16.365L15.81 8.22408L15.6883 9.11413H15.6936L15.4168 11.1311L14.6144 9.16365L12.7301 4.54206L11.4623 1.43155C11.3901 1.25354 11.1681 1.19197 11.0143 1.30708L8.01462 3.54225C7.90763 3.62256 7.86751 3.76577 7.91833 3.88891L9.24364 7.13995L9.23963 7.14263L10.7856 10.9331L11.1239 11.7642L11.128 11.7615L12.0039 13.9111L10.3296 12.6114L6.38841 9.5518L3.73646 7.4933C3.584 7.37551 3.362 7.43307 3.28577 7.60974L1.80399 11.0468C1.7505 11.17 1.78795 11.3132 1.8936 11.3962L4.66591 13.5483L4.66323 13.5537L7.8956 16.0633L8.60439 16.6133L8.60706 16.608L9.97517 17.6707L8.59904 17.482L3.65755 16.8047L0.332915 16.3483C0.143012 16.3216 -0.0214811 16.4835 0.00125372 16.6736L0.435891 20.3904C0.451939 20.5242 0.554914 20.63 0.687311 20.6474L4.16307 21.1239V21.1292L8.21656 21.6847L9.10589 21.8065V21.8011L10.4727 21.9885L9.56326 22.3606L4.94541 24.2464L1.83743 25.5152C1.65956 25.5875 1.59804 25.8097 1.71305 25.9636L3.94642 28.9657C4.02666 29.0728 4.16975 29.1129 4.29279 29.0621L7.5412 27.7357L7.54387 27.7397L11.3312 26.1925L12.1617 25.8539L12.159 25.8498L13.4148 25.3372L12.8103 26.1175L9.75317 30.0619L7.69633 32.716C7.57864 32.8686 7.63615 33.0907 7.81268 33.167L11.247 34.65C11.37 34.7036 11.5131 34.6661 11.596 34.5603L13.7465 31.7858L13.7518 31.7885L16.2593 28.5535L16.809 27.8441L16.8036 27.8414L17.6208 26.7867L17.4964 27.6982L16.8197 32.6437L16.3637 35.971C16.3369 36.1611 16.4987 36.3257 16.6886 36.303L20.4024 35.868C20.5362 35.8519 20.6418 35.7489 20.6592 35.6164L21.1353 32.1378H21.1407L21.6956 28.081L21.8173 27.191H21.812L21.8695 26.776L21.9604 27.0009L23.8448 31.6225L25.1126 34.733C25.1848 34.911 25.4068 34.9726 25.5606 34.8575L28.5602 32.6223C28.6672 32.542 28.7073 32.3988 28.6565 32.2756L27.3312 29.0246L27.3352 29.0219L25.7893 25.2315L25.4643 24.4338L25.5539 24.5034L29.495 27.563L32.147 29.6215C32.2994 29.7393 32.5215 29.6818 32.5977 29.5051L34.0795 26.068C34.1329 25.9449 34.0955 25.8017 33.9899 25.7187L31.2175 23.5665L31.2202 23.5611L27.9879 21.0516L27.2791 20.5015L27.2764 20.5068L26.3429 19.7814L27.7043 19.9675L32.6458 20.6447L35.9705 21.1011C36.1604 21.1279 36.3249 20.9659 36.3021 20.7759ZM24.6164 16.6749H21.1888C21.1366 16.6749 21.0952 16.7177 21.0952 16.7699V20.1856L20.2914 21.5896C20.266 21.6351 20.2807 21.6927 20.3262 21.7195L21.6381 22.4837C21.6836 22.5105 21.6983 22.568 21.6729 22.6135L21.2624 23.3296C21.2369 23.3751 21.1794 23.3912 21.134 23.3644L18.9086 22.0688L16.7288 23.3376C16.6833 23.3644 16.6258 23.3483 16.6004 23.3028L16.1898 22.5868C16.1644 22.5413 16.1791 22.4837 16.2246 22.4569L17.5365 21.6927C17.582 21.6659 17.5967 21.6084 17.5713 21.5629L16.7675 20.1588V16.7418C16.7675 16.6896 16.7261 16.6468 16.6739 16.6468H13.2463L13.1928 15.6296H17.6823C17.7344 15.6296 17.7759 15.6724 17.7759 15.7246V19.859C17.7759 19.8751 17.7799 19.8925 17.7879 19.9059L18.9394 21.9162L20.0748 19.9327C20.0828 19.9179 20.0868 19.9019 20.0868 19.8858V15.7514C20.0868 15.6992 20.1283 15.6564 20.1804 15.6564H24.6699L24.6164 16.6736V16.6749Z" fill="#F28E7A"/>
</svg>
