<svg width="137" height="60" viewBox="0 0 137 60" fill="none" xmlns="http://www.w3.org/2000/svg">
<g clip-path="url(#clip0_100_432)">
<path d="M49.3737 23.6067C47.661 23.6067 46.2894 23.5956 45.2292 23.5734C45.0513 23.0254 44.8252 22.3736 44.4693 21.7108C42.082 16.6525 37.4371 12.9902 32.3103 12.1274C31.2427 11.9237 30.1454 11.8237 29.0481 11.8237C22.7314 11.8237 16.9929 15.0639 14.0644 20.2851C13.4305 21.3886 12.9745 22.5144 12.5742 23.5068L12.5482 23.5734C11.3916 23.5956 9.85324 23.6067 7.89223 23.6067C6.19442 23.6067 4.41134 23.5993 2.78026 23.5919C1.77937 23.5882 0.834077 23.5845 0 23.5808C3.02121 7.29124 16.752 0 29.037 0C40.032 0 54.1298 5.96556 57.6663 22.7736L57.6885 22.8772C57.7478 23.1291 57.7997 23.3623 57.8442 23.5771C56.7098 23.5771 55.4013 23.5845 54.0334 23.5919C52.5024 23.5993 50.8973 23.6067 49.3737 23.6067Z" fill="currentColor"/>
<path d="M128.526 23.6067C126.813 23.6067 125.442 23.5956 124.381 23.5734C124.203 23.0254 123.977 22.3736 123.621 21.7108C121.234 16.6525 116.589 12.9902 111.462 12.1274C110.395 11.9237 109.298 11.8237 108.2 11.8237C101.884 11.8237 96.1451 15.0639 93.2165 20.2851C92.5826 21.3886 92.1267 22.5143 91.7263 23.5068L91.6967 23.5771C90.5401 23.5993 89.0017 23.6104 87.0407 23.6104C85.3429 23.6104 83.5598 23.603 81.9287 23.5956C80.9278 23.5919 79.9825 23.5882 79.1484 23.5845C82.1697 7.29124 95.9041 0 108.189 0C119.184 0 133.282 5.96556 136.818 22.7736L136.841 22.8772C136.9 23.129 136.952 23.3623 136.996 23.5771C135.862 23.5771 134.553 23.5845 133.186 23.5919C131.655 23.5993 130.049 23.6067 128.526 23.6067Z" fill="currentColor"/>
<path d="M70.5221 60C62.0145 60 51.3235 55.3824 49.0326 42.4033C49.2884 42.3922 49.6109 42.3848 50.0149 42.3848L50.23 42.3774C51.4384 42.307 52.7285 42.2737 54.2891 42.2737C55.5718 42.2737 56.8915 42.2959 58.1704 42.3181C59.1268 42.3329 60.0795 42.3514 61.0285 42.3588C61.4103 42.37 61.5919 42.4107 61.6475 42.4292H61.6513C61.8181 42.581 62.1776 43.0846 62.4149 43.4179C62.6521 43.7512 62.9228 44.1326 63.223 44.5103C64.9616 46.6803 67.6381 48.006 70.3924 48.0726C70.511 48.0763 70.6296 48.08 70.7483 48.08C75.5859 48.08 77.9065 44.6806 79.4375 42.3255H88.3195C89.7059 42.3255 91.0182 42.3255 92.1118 42.3255C90.0692 54.5307 79.8304 60 70.5184 60H70.5221Z" fill="currentColor"/>
</g>
<defs>
<clipPath id="clip0_100_432">
<rect width="137" height="60" fill="white"/>
</clipPath>
</defs>
</svg>
