<svg width="93" height="62" viewBox="0 0 93 62" fill="none" xmlns="http://www.w3.org/2000/svg">
<g clip-path="url(#clip0_111_493)">
<path d="M39.6462 29.5882C39.0344 29.5882 38.5445 29.5843 38.1658 29.5763C38.1022 29.3797 38.0214 29.1458 37.8943 28.908C37.0416 27.0931 35.3824 25.7791 33.5511 25.4695C33.1698 25.3965 32.7778 25.3606 32.3859 25.3606C30.1295 25.3606 28.0798 26.5231 27.0337 28.3965C26.8073 28.7924 26.6444 29.1963 26.5014 29.5524L26.4921 29.5763C26.079 29.5843 25.5295 29.5882 24.829 29.5882C24.2225 29.5882 23.5856 29.5856 23.003 29.5829C22.6455 29.5816 22.3078 29.5803 22.0099 29.5789C23.0891 23.7357 27.9937 21.1196 32.3819 21.1196C36.3093 21.1196 41.3451 23.26 42.6083 29.2906L42.6162 29.3278C42.6374 29.4182 42.656 29.5019 42.6718 29.5789C42.2667 29.5789 41.7992 29.5816 41.3106 29.5843C40.7638 29.5869 40.1904 29.5896 39.6462 29.5896V29.5882Z" fill="#F28E7A"/>
<path d="M67.9193 29.5884C67.3076 29.5884 66.8177 29.5844 66.439 29.5764C66.3754 29.3798 66.2946 29.146 66.1675 28.9081C65.3148 27.0932 63.6556 25.7792 61.8243 25.4697C61.443 25.3966 61.051 25.3607 60.6591 25.3607C58.4027 25.3607 56.3529 26.5233 55.3069 28.3966C55.0804 28.7925 54.9176 29.1964 54.7746 29.5525L54.764 29.5778C54.3508 29.5857 53.8013 29.5897 53.1008 29.5897C52.4944 29.5897 51.8575 29.5871 51.2748 29.5844C50.9173 29.5831 50.5797 29.5817 50.2817 29.5804C51.3609 23.7371 56.2655 21.1211 60.6538 21.1211C64.5812 21.1211 69.6169 23.2615 70.8801 29.2921L70.8881 29.3293C70.9093 29.4196 70.9278 29.5034 70.9437 29.5804C70.5385 29.5804 70.0711 29.5831 69.5825 29.5857C69.0356 29.5884 68.4622 29.591 67.918 29.591L67.9193 29.5884Z" fill="#F28E7A"/>
<path d="M47.2005 42.6462C44.1616 42.6462 40.3427 40.9894 39.5244 36.3326C39.6158 36.3286 39.731 36.326 39.8753 36.326L39.9521 36.3233C40.3838 36.2981 40.8446 36.2861 41.4021 36.2861C41.8602 36.2861 42.3316 36.2941 42.7884 36.3021C43.1301 36.3074 43.4704 36.314 43.8093 36.3167C43.9457 36.3207 44.0106 36.3353 44.0305 36.3419H44.0318C44.0914 36.3964 44.2198 36.5771 44.3046 36.6967C44.3893 36.8163 44.486 36.9531 44.5932 37.0886C45.2143 37.8672 46.1703 38.3428 47.1541 38.3668C47.1965 38.3681 47.2389 38.3694 47.2813 38.3694C49.0093 38.3694 49.8382 37.1497 50.3851 36.3047H53.5577C54.0529 36.3047 54.5217 36.3047 54.9123 36.3047C54.1827 40.6839 50.5254 42.6462 47.1992 42.6462H47.2005Z" fill="#F28E7A"/>
<path d="M93 10.7021L74.838 0.102367C74.4779 -0.107555 74.0171 0.0173349 73.8078 0.381376L70.5213 6.13562C70.3134 6.49967 70.4366 6.96601 70.7967 7.17593L81.3091 13.3115C81.6693 13.5214 81.7938 13.9878 81.5845 14.3518L75.1426 25.6304H75.1386V25.6384V53.0678C75.1386 53.4889 74.8009 53.8304 74.3852 53.8304H46.9264H46.5013H46.0763H18.6175C18.2017 53.8304 17.864 53.4889 17.864 53.0678V25.6384V25.6304H17.8601L11.4181 14.3518C11.2102 13.9878 11.3334 13.5214 11.6935 13.3115L22.2059 7.17593C22.5661 6.96601 22.6905 6.49967 22.4813 6.13562L19.1922 0.381376C18.9843 0.0173349 18.5235 -0.107555 18.162 0.102367L0 10.7021V10.7034L9.6795 27.6499C9.74571 27.7655 9.78013 27.8971 9.78013 28.0313V55.5523V61.2374C9.78013 61.6586 10.1178 62.0001 10.5336 62.0001H46.5H82.4664C82.8822 62.0001 83.2199 61.6586 83.2199 61.2374V55.5523V28.0313C83.2199 27.8971 83.2543 27.7655 83.3205 27.6499L93 10.7034V10.7021Z" fill="#F28E7A"/>
</g>
<defs>
<clipPath id="clip0_111_493">
<rect width="93" height="62" fill="white"/>
</clipPath>
</defs>
</svg>
