<svg width="614" height="95" viewBox="0 0 614 95" fill="none" xmlns="http://www.w3.org/2000/svg">
<path d="M60.59 45.0922C59.65 45.0922 58.89 45.0922 58.31 45.0722C58.21 44.7722 58.09 44.4122 57.89 44.0422C56.59 41.2722 54.04 39.2722 51.24 38.8122C50.7 38.7122 50.1 38.6522 49.49 38.6522C46.04 38.6522 42.92 40.4222 41.32 43.2722C40.98 43.8522 40.73 44.4722 40.51 45.0122L40.49 45.0622C39.78 45.0722 38.88 45.0822 37.93 45.0822C36.98 45.0822 33.6 45.0722 33.6 45.0722C33.6 45.0522 33.6 45.0422 33.6 45.0222C35.23 36.1422 42.75 32.1422 49.47 32.1422C55.48 32.1422 63.19 35.4022 65.12 44.6022C65.16 44.7722 65.2 44.9322 65.22 45.0722C64.6 45.0722 61.4 45.0922 60.57 45.0922H60.59Z" fill="#FCEFE6"/>
<path d="M103.79 45.0922C102.85 45.0922 102.09 45.0922 101.51 45.0722C101.41 44.7722 101.29 44.4122 101.09 44.0422C99.79 41.2722 97.25 39.2722 94.44 38.8122C93.9 38.7122 93.3 38.6522 92.69 38.6522C89.25 38.6522 86.12 40.4222 84.52 43.2722C84.19 43.8522 83.94 44.4622 83.72 45.0022L83.69 45.0722C82.98 45.0822 82.08 45.0922 81.13 45.0922C80.18 45.0922 76.8 45.0822 76.8 45.0822C76.8 45.0622 76.8 45.0522 76.8 45.0322C78.43 36.1522 85.95 32.1522 92.67 32.1522C98.68 32.1522 106.39 35.4122 108.32 44.6122C108.36 44.7822 108.4 44.9422 108.42 45.0822C107.8 45.0822 104.6 45.1022 103.77 45.1022L103.79 45.0922Z" fill="#FCEFE6"/>
<path d="M72.13 64.9822C67.47 64.9822 61.62 62.4522 60.37 55.3222C60.51 55.3222 60.7 55.3122 60.93 55.3122H61.05C61.71 55.2722 62.42 55.2522 63.27 55.2522C63.98 55.2522 64.68 55.2622 65.39 55.2722C65.92 55.2722 66.44 55.2922 66.97 55.2922C67.22 55.2922 67.31 55.3322 67.31 55.3322C67.39 55.4022 67.59 55.6922 67.73 55.8722C67.87 56.0722 68.02 56.2722 68.17 56.4722C69.12 57.6622 70.58 58.3822 72.08 58.4122H72.25C74.89 58.4122 76.15 56.5522 76.98 55.2722C76.98 55.2722 83.35 55.2722 83.94 55.2722C82.83 61.9722 77.23 64.9722 72.13 64.9722V64.9822Z" fill="#FCEFE6"/>
<path d="M142.12 16.3022L114.37 0.162219C113.82 -0.157781 113.11 0.0322322 112.8 0.582232L107.78 9.34224C107.46 9.90224 107.65 10.6022 108.2 10.9322L124.26 20.2722C124.81 20.5922 125 21.3022 124.68 21.8622L114.84 39.0422V80.8322C114.84 81.4722 114.32 81.9922 113.69 81.9922H71.73H71.08H28.45C27.81 81.9922 27.3 81.4722 27.3 80.8322V39.0522V39.0422L17.46 21.8622C17.14 21.3022 17.33 20.6022 17.88 20.2722L33.94 10.9322C34.49 10.6122 34.68 9.90224 34.36 9.34224L29.34 0.582232C29.02 0.0222322 28.32 -0.167781 27.77 0.162219L0 16.3022L14.79 42.1122C14.89 42.2922 14.94 42.4922 14.94 42.6922V84.6022V93.2622C14.94 93.9022 15.46 94.4223 16.09 94.4223H71.05H126.01C126.65 94.4223 127.16 93.9022 127.16 93.2622V42.6922C127.16 42.4922 127.21 42.2922 127.31 42.1122L142.1 16.3022H142.12Z" fill="#FCEFE6"/>
<path d="M171.75 92.4122C170.75 92.4122 170.25 91.9522 170.25 91.0322V3.40222C170.25 2.48222 170.75 2.02222 171.75 2.02222H184.55C185.1 2.02222 185.49 2.16222 185.71 2.43222C185.93 2.71222 186.04 3.03222 186.04 3.40222V80.4122H219.96C220.96 80.4122 221.46 80.9222 221.46 81.9322V91.0422C221.46 91.9622 220.96 92.4222 219.96 92.4222H171.74L171.75 92.4122Z" fill="#FCEFE6"/>
<path d="M225.94 92.4122C224.83 92.4122 224.28 91.9522 224.28 91.0322V3.40222C224.28 2.48222 224.78 2.02222 225.78 2.02222H275.49C276.49 2.02222 276.99 2.48222 276.99 3.40222V12.5122C276.99 13.5222 276.49 14.0322 275.49 14.0322H240.07V40.8022H272.33C273.33 40.8022 273.83 41.2622 273.83 42.1822V50.8722C273.83 51.7922 273.33 52.2522 272.33 52.2522H240.07V80.4022H275.49C276.49 80.4022 276.99 80.9122 276.99 81.9222V91.0322C276.99 91.9522 276.49 92.4122 275.49 92.4122H225.94Z" fill="#FCEFE6"/>
<path d="M307.8 92.4122C307.13 92.4122 306.58 92.0422 306.14 91.3122L279.54 3.68222C279.21 2.58222 279.59 2.02222 280.7 2.02222H294.67C295.67 2.02222 296.28 2.39222 296.5 3.12222L312.13 59.8422C313.02 62.9722 313.82 66.1422 314.54 69.3622C315.26 72.5822 315.95 75.8522 316.62 79.1622H316.95C317.72 75.9422 318.53 72.7222 319.36 69.5022C320.19 66.2822 320.99 63.1122 321.77 59.9822L337.57 3.12222C337.79 2.38222 338.4 2.02222 339.4 2.02222H353.2C354.42 2.02222 354.81 2.53221 354.36 3.54221L327.59 91.3122C327.37 92.0522 326.81 92.4122 325.93 92.4122H307.81H307.8Z" fill="#FCEFE6"/>
<path d="M358.58 92.4122C357.69 92.4122 357.25 91.9522 357.25 91.0322V3.40222C357.25 2.48222 357.75 2.02222 358.75 2.02222H408.46C409.46 2.02222 409.96 2.48222 409.96 3.40222V12.5122C409.96 13.5222 409.46 14.0322 408.46 14.0322H373.04V42.1822H403.63C404.63 42.1822 405.13 42.6422 405.13 43.5622V52.2522C405.13 53.2622 404.63 53.7722 403.63 53.7722H373.04V91.0322C373.04 91.9522 372.6 92.4122 371.71 92.4122H358.57H358.58Z" fill="#FCEFE6"/>
<path d="M446.81 93.5222C435.61 93.5222 427.11 90.9922 421.29 85.9322C415.47 80.8722 412.56 73.5123 412.56 63.8523V30.7322C412.56 20.9822 415.47 13.5722 421.29 8.51224C427.11 3.45224 435.61 0.922241 446.81 0.922241C458.01 0.922241 466.51 3.45224 472.33 8.51224C478.15 13.5722 481.06 20.9822 481.06 30.7322V63.8523C481.06 73.5123 478.15 80.8722 472.33 85.9322C466.51 90.9922 458 93.5222 446.81 93.5222ZM446.81 81.5122C452.9 81.5122 457.51 80.0222 460.61 77.0222C463.71 74.0322 465.27 69.4523 465.27 63.2923V31.2722C465.27 25.0122 463.72 20.3923 460.61 17.4023C457.51 14.4123 452.9 12.9122 446.81 12.9122C440.72 12.9122 436.28 14.4123 433.18 17.4023C430.08 20.3923 428.52 25.0122 428.52 31.2722V63.2923C428.52 69.4523 430.07 74.0322 433.18 77.0222C436.28 80.0122 440.83 81.5122 446.81 81.5122Z" fill="#FCEFE6"/>
<path d="M547.46 92.4122C546.35 92.4122 545.8 91.9522 545.8 91.0322V3.40222C545.8 2.48222 546.35 2.02222 547.46 2.02222H571.74C585.59 2.02222 595.96 5.1722 602.83 11.4722C609.7 17.7722 613.14 27.3222 613.14 40.1122V51.0122C613.14 64.9022 609.76 75.2822 603 82.1322C596.24 88.9822 585.98 92.4122 572.24 92.4122H547.47H547.46ZM561.6 80.5422H571.24C580.22 80.5422 586.81 78.1922 591.03 73.5022C595.24 68.8122 597.35 61.4522 597.35 51.4222V39.6922C597.35 30.9522 595.24 24.4622 591.03 20.2322C586.82 16.0022 580.11 13.8822 570.91 13.8822H561.6V80.5422Z" fill="#FCEFE6"/>
<path d="M486.88 78.4023C488.03 82.1823 490.28 88.1423 491.66 91.3323C492.3 92.7623 493.33 92.4023 494.88 91.8023C531.45 79.7023 550.66 39.2823 539.74 2.98228C539.32 2.53228 538.62 2.44229 537.66 2.59229C500.84 9.84229 475.34 40.7423 486.86 78.3223L486.89 78.4123L486.88 78.4023ZM500.63 73.6923C500.13 73.5723 499.78 72.9423 499.53 72.0923C499.08 70.5123 498.81 68.9023 498.59 67.3223C495.56 45.9323 506.63 29.1623 526.27 20.6823C527.04 20.3923 527.71 20.2923 528.15 20.5523C528.8 20.8923 528.91 22.0623 528.92 22.8523C529.38 42.7623 518.64 64.3923 500.7 73.7123H500.64L500.63 73.6923Z" fill="#FCEFE6"/>
</svg>
