<svg width="32" height="32" viewBox="0 0 32 32" fill="none" xmlns="http://www.w3.org/2000/svg">
<path d="M15.9999 26.5408C18.9288 23.8837 21.0936 21.4859 22.4942 19.3475C23.8947 17.2093 24.5949 15.2855 24.5949 13.5761C24.5949 10.9855 23.7649 8.8648 22.1049 7.21414C20.4447 5.56369 18.4096 4.73847 15.9996 4.73847C13.5896 4.73847 11.5547 5.56369 9.89491 7.21414C8.23491 8.8648 7.40491 10.9855 7.40491 13.5761C7.40491 15.2855 8.1218 17.2079 9.55558 19.3435C10.9896 21.4792 13.1377 23.8784 15.9999 26.5408ZM15.9896 28.8341C15.7414 28.8341 15.4924 28.7926 15.2426 28.7095C14.9928 28.6264 14.7742 28.4932 14.5869 28.3101C13.6216 27.4552 12.5866 26.4751 11.4819 25.3698C10.377 24.2645 9.35391 23.0745 8.41258 21.7998C7.47124 20.5251 6.68947 19.1896 6.06724 17.7931C5.44502 16.3969 5.13391 14.9913 5.13391 13.5761C5.13391 10.1913 6.2268 7.49225 8.41258 5.47914C10.5981 3.46603 13.1272 2.45947 15.9999 2.45947C18.8726 2.45947 21.403 3.46603 23.5912 5.47914C25.7797 7.49225 26.8739 10.1913 26.8739 13.5761C26.8739 14.9913 26.5615 16.3969 25.9366 17.7931C25.3117 19.1896 24.5286 20.5251 23.5872 21.7998C22.6459 23.0745 21.6228 24.2645 20.5179 25.3698C19.4132 26.4751 18.3809 27.4552 17.4209 28.3101C17.2274 28.4932 17.0025 28.6264 16.7462 28.7095C16.49 28.7926 16.2378 28.8341 15.9896 28.8341ZM16.0029 15.7225C16.6667 15.7225 17.2316 15.4898 17.6976 15.0245C18.1638 14.5589 18.3969 13.9942 18.3969 13.3305C18.3969 12.6667 18.1629 12.1018 17.6949 11.6358C17.2267 11.1696 16.6607 10.9365 15.9969 10.9365C15.3331 10.9365 14.7695 11.1705 14.3059 11.6385C13.8426 12.1067 13.6109 12.6727 13.6109 13.3365C13.6109 14.0003 13.8436 14.5639 14.3089 15.0275C14.7745 15.4908 15.3391 15.7225 16.0029 15.7225Z" fill="#FCEFE6"/>
</svg>
