<svg width="54" height="60" viewBox="0 0 54 60" fill="none" xmlns="http://www.w3.org/2000/svg">
<g clip-path="url(#clip0_100_410)">
<path d="M5.22785 59.2073C1.21029 57.6965 0.436719 52.9535 0.648826 49.1392C0.998179 37.1268 -0.386756 24.2104 0.11232 12.3219C0.149751 4.58194 2.71999 0.334266 11.0171 0.297115C18.4409 -0.111554 30.1193 -0.0991701 37.6428 0.297115C40.2131 0.458105 42.9455 0.643864 45.1789 1.95656C47.1627 3.14541 48.7473 5.43643 48.061 7.38071C47.6243 8.53241 46.3766 9.01538 45.2038 8.73055C42.7334 8.13612 42.1719 6.60052 38.903 6.78628C34.6109 6.78628 27.2121 6.78628 22.0966 6.78628C17.5301 6.78628 13.1257 6.78628 8.68395 6.78628C6.20104 6.78628 6.16361 6.99681 6.15114 9.4612C6.15114 20.9535 6.12618 34.9225 6.16361 46.0309C6.10123 48.6315 8.8711 47.9132 11.0546 48.0866C13.6997 48.198 16.8064 47.7522 19.3766 48.6439C21.1359 49.3374 21.323 51.1083 21.6599 53.4612C22.0467 55.7275 22.5083 58.8234 20.1752 59.3436C18.628 59.8265 16.9312 59.7646 15.2967 59.8513C12.0777 59.9256 8.35955 60.3714 5.46491 59.294L5.2528 59.2073H5.22785Z" fill="#0E2825"/>
<path d="M32.1155 15.9504C34.2241 15.1702 37.4681 15.2321 40.2629 15.1826C45.9024 14.9845 53.451 15.3188 53.7504 21.5727C53.8752 30.2786 53.9376 45.9566 53.9875 52.099C54.237 59.0835 47.5619 60.1609 41.7102 59.9504C37.1437 59.8761 31.8909 60.6068 28.7467 56.8049C27.3493 54.9845 27.6987 53.4241 27.6113 49.9938C27.5988 47.3931 27.5739 44.8173 27.5489 42.1671C27.5115 36.8173 27.4616 30.7616 27.4242 25.6222C27.1247 20.904 27.7735 17.8451 31.9034 16.0123L32.103 15.938L32.1155 15.9504ZM47.8613 21.9071C45.7402 21.2755 41.1987 21.7337 38.4912 21.5975C36.4699 21.7337 35.0475 21.2383 33.8872 22.229C33.6002 22.6625 33.6002 23.3312 33.5878 23.9256C33.5878 28.582 33.5503 42.291 33.6002 46.229C33.6626 47.7027 34.1367 47.9628 36.1455 48.0247C38.4413 48.0619 42.0471 48.0371 44.4052 48.0371C46.3017 47.938 48.4727 48.4581 48.4353 46.229C48.4852 43.1702 48.4353 34.2414 48.4602 28.1981C48.3354 26.4643 48.822 22.39 47.9487 21.9566L47.8613 21.9071ZM38.853 51.2569C37.3433 51.8018 36.707 53.7585 37.5804 55.1331C38.6284 57.1145 42.4838 57.0526 43.6816 55.6284C45.0041 54.2043 44.3428 52.0619 42.5462 51.2817C41.4108 50.8359 40.3502 50.8482 39.0776 51.1702L38.8655 51.2445L38.853 51.2569Z" fill="#0E2825"/>
</g>
<defs>
<clipPath id="clip0_100_410">
<rect width="54" height="60" fill="white"/>
</clipPath>
</defs>
</svg>
