<svg width="44" height="60" viewBox="0 0 44 60" fill="none" xmlns="http://www.w3.org/2000/svg">
<g clip-path="url(#clip0_100_418)">
<path d="M43.1408 15.5439C46.3597 18.6754 38.0111 24.0201 36.3183 26.3341L41.4224 29.4152C47.4113 35.8793 42.1277 44.0411 34.0869 44.7454C31.1245 45.0095 22.0578 43.5758 23.0709 39.5641L25.3279 37.3255C29.5471 38.734 37.3571 41.5511 38.2291 35.0744C37.4084 30.4465 29.3419 32.5592 27.5722 30.8363C24.3148 27.6798 32.4069 22.9512 33.7663 20.3731C29.8036 19.9707 21.1857 22.3224 23.5582 15.7955C24.6098 14.1983 41.8456 14.2612 43.1408 15.5188V15.5439Z" fill="currentColor"/>
<path d="M2.33404 59.7359C-1.98773 58.9814 1.12856 52.5047 2.87266 50.5806C5.65552 47.5246 14.9146 44.607 10.2723 39.4383C5.79659 37.4135 6.37368 43.45 2.37251 42.8967C-1.62865 42.3433 0.500174 37.7405 2.50076 36.005C10.6313 28.8996 21.8525 38.4196 15.3635 47.5749L7.73305 54.1145L16.6203 54.4288C19.0184 55.5858 17.5564 59.7359 16.2996 59.7359C12.4524 59.7359 5.71964 60.327 2.32122 59.7359H2.33404Z" fill="currentColor"/>
<path d="M10.7466 0.566033C12.5933 2.4147 10.9903 16.9777 11.5289 20.3984C15.1069 18.9521 19.48 23.6555 15.9789 25.7054C15.1582 26.1959 3.15469 26.2713 1.80815 25.8815C-2.38538 24.6616 1.37212 18.5245 5.80931 20.3858V7.89783C4.36017 8.67754 3.20599 9.57043 1.52601 8.74042C-4.01406 6.45159 7.91249 -2.27614 10.7466 0.566033Z" fill="currentColor"/>
</g>
<defs>
<clipPath id="clip0_100_418">
<rect width="44" height="60" fill="white"/>
</clipPath>
</defs>
</svg>
