<svg width="69" height="60" viewBox="0 0 69 60" fill="none" xmlns="http://www.w3.org/2000/svg">
<g clip-path="url(#clip0_100_403)">
<path d="M12.2584 29.8564V38.8507C12.2584 39.0256 13.2426 40.5372 13.5239 40.7121C15.6074 41.2742 22.4205 41.8114 22.4205 38.8507V29.8564C26.4598 29.619 31.2404 29.8564 33.3495 33.7664C35.1135 37.0394 35.1007 51.9176 33.5413 55.303C31.9818 58.6883 28.8629 59.4129 25.3093 59.6752C20.9249 59.9875 11.1335 60.1749 7.01755 59.5003C4.44827 59.0756 2.22411 57.6765 1.15038 55.303C-0.357956 52.005 -0.383521 37.5266 1.15038 34.1912C3.11889 29.9063 7.98903 29.594 12.2712 29.8439L12.2584 29.8564Z" fill="#0E2825"/>
<path d="M46.5667 29.8564V38.8508C46.5667 39.0257 47.5509 40.5372 47.8322 40.7121C49.9157 41.2743 56.7288 41.8114 56.7288 38.8508V29.8564C60.9981 29.5941 65.8811 29.9189 67.8496 34.2037C69.3963 37.5766 69.4218 52.4673 67.6578 55.7402C66.4307 58.0138 63.9893 59.263 61.4455 59.6003C57.1634 60.175 46.8479 60.075 42.4124 59.6878C40.674 59.5379 38.9867 59.1381 37.6317 58.0263C38.7566 49.4941 38.7566 40.0126 37.6317 31.4929C40.2266 29.4192 43.435 29.8314 46.5795 29.8689L46.5667 29.8564Z" fill="#0E2825"/>
<path d="M29.4126 0.0624738V9.05685C29.4126 9.23174 30.3968 10.7433 30.6781 10.9182C32.7616 11.4803 39.5747 12.0175 39.5747 9.05685V0.0624738C45.5185 -0.18737 49.1488 0.062474 49.7623 6.55841C50.2481 11.6178 50.9128 22.3485 45.7358 25.0094C42.1056 26.8832 25.8207 26.8457 22.4461 24.5472C18.2918 21.7239 18.7136 10.5434 19.2377 5.95879C19.9407 1.27715e-05 24.0951 -0.18737 29.4126 0.0624738Z" fill="#0E2825"/>
</g>
<defs>
<clipPath id="clip0_100_403">
<rect width="69" height="60" fill="white"/>
</clipPath>
</defs>
</svg>
