<svg width="32" height="32" viewBox="0 0 32 32" fill="none" xmlns="http://www.w3.org/2000/svg">
<path d="M26.516 28.1996C23.9058 28.1996 21.25 27.5721 18.5487 26.317C15.8471 25.0619 13.3425 23.2805 11.035 20.973C8.72766 18.6656 6.9451 16.1599 5.68733 13.4556C4.42955 10.7516 3.80066 8.09719 3.80066 5.4923C3.80066 5.00986 3.96255 4.60608 4.28633 4.28097C4.60988 3.95563 5.01177 3.79297 5.49199 3.79297H10.1587C10.5602 3.79297 10.8973 3.92141 11.17 4.1783C11.4427 4.43497 11.6314 4.77252 11.7363 5.19097L12.634 9.2513C12.6907 9.63419 12.6832 9.97597 12.6117 10.2766C12.5401 10.5775 12.3917 10.8353 12.1663 11.05L8.80866 14.3613C9.3651 15.2964 9.95499 16.1703 10.5783 16.983C11.2014 17.7954 11.8939 18.5689 12.6557 19.3033C13.4568 20.1317 14.2929 20.8813 15.164 21.552C16.0353 22.2229 16.9444 22.809 17.8913 23.3103L21.0977 20.02C21.3572 19.7382 21.6543 19.5475 21.989 19.448C22.3239 19.3486 22.6617 19.3317 23.0023 19.3973L26.8093 20.2403C27.2278 20.3556 27.5653 20.5684 27.822 20.8786C28.0789 21.1889 28.2073 21.5494 28.2073 21.9603V26.5083C28.2073 26.9914 28.0445 27.3941 27.719 27.7163C27.3934 28.0385 26.9924 28.1996 26.516 28.1996ZM7.67333 12.3046L10.3653 9.62697L9.60666 6.07197H6.08766C6.12677 6.97352 6.26866 7.92752 6.51333 8.93397C6.75799 9.94041 7.14466 11.064 7.67333 12.3046ZM19.997 24.4366C20.8817 24.8482 21.8453 25.1846 22.888 25.446C23.9309 25.7073 24.9443 25.8629 25.9283 25.9126V22.3793L22.6143 21.6936L19.997 24.4366Z" fill="currentColor"/>
</svg>
