<svg width="242" height="200" viewBox="0 0 242 200" fill="none" xmlns="http://www.w3.org/2000/svg">
<g clip-path="url(#clip0_108_362)">
<path d="M35.5419 97.6563C35.9301 96.2523 35.0675 95.669 34.5067 94.589C33.3206 92.3426 31.2286 89.1241 31.1854 86.5104C31.1423 83.1623 32.9539 79.231 33.9029 75.9909C38.324 60.9137 42.8962 45.6637 47.6408 30.5432C50.2289 23.199 51.5876 14.5156 54.3697 7.34418C57.0224 0.475185 64.4629 -0.194434 70.8466 0.0431731C86.806 0.64799 112.363 10.5843 123.016 22.7454C126.101 26.2663 127.287 30.3704 125.475 34.8417C125.108 35.749 124.418 36.6562 124.03 37.5418C115.856 55.7295 107.618 73.7444 99.4009 91.8889C97.1796 96.8139 94.2681 105.8 90.6017 109.45C87.9921 112.042 82.8377 111.632 80.5085 114.742C79.689 114.116 78.9988 113.382 78.1793 112.734C68.4743 105.152 50.8327 99.0171 38.6475 97.8291C38.0652 97.7643 35.7576 97.9803 35.5419 97.6779V97.6563ZM78.74 106.318C78.5459 106.469 77.9636 108.089 78.1577 108.349C78.3303 108.543 78.5459 108.608 78.7832 108.673C79.7968 108.953 86.655 106.469 87.8628 105.821C89.3077 105.044 89.092 103.186 87.7118 103.402C87.1079 103.488 86.3531 104.05 85.7492 104.266C84.0023 104.893 82.2123 105.497 80.4438 106.059C80.034 106.189 78.8263 106.275 78.7616 106.34L78.74 106.318ZM38.2809 88.6921C39.3161 89.7721 40.4591 88.9081 41.6022 88.7353C43.9745 88.3896 46.3684 88.2168 48.7623 88.2384C49.776 88.2384 51.4366 88.8217 52.1914 88.1736C53.3129 87.2016 52.364 86.316 51.2209 86.0352C49.2799 85.5384 44.1686 85.7112 42.1413 86.1216C41.71 86.208 39.2298 86.9208 38.9495 87.072C38.3672 87.4176 38.1299 88.0656 38.2809 88.6921ZM81.3065 100.918C81.9103 100.68 82.1691 99.6004 81.7162 98.9955C81.0692 98.1099 76.7775 95.0642 75.656 94.373C73.0464 92.7746 68.8625 90.7873 65.8863 90.0097C65.2177 89.8369 63.9453 89.5993 63.5139 90.3337C63.061 91.1113 63.2767 91.4137 63.9668 91.8457C66.1451 93.1634 69.4448 94.049 71.8818 95.3234C74.6208 96.7707 77.597 99.4923 80.0987 100.702C80.3791 100.832 81.0477 101.026 81.3065 100.918ZM89.6528 100.81C90.4723 100.875 90.9037 99.7948 91.2487 99.1683C93.0172 96.0363 94.57 92.213 95.9934 88.9081C96.3816 88.0008 97.9344 85.3872 97.7619 84.5879C97.309 82.4927 95.2386 84.9119 94.7425 85.8408C92.5212 90.0313 90.9899 94.9346 88.5313 99.1035C88.3588 100.032 88.5313 100.745 89.6096 100.832L89.6528 100.81ZM38.6044 78.8638C39.9415 77.8269 39.769 76.0989 40.2219 74.6517C41.1924 71.5412 42.6158 68.1499 43.3922 65.0178C43.8667 63.1169 41.9041 63.2033 41.0846 64.8018C40.0709 66.789 38.8632 71.3684 38.2162 73.658C37.979 74.522 36.9869 77.7189 37.3535 78.3022C37.5692 78.6478 38.1946 79.0366 38.6044 78.8422V78.8638ZM85.512 85.992C84.714 86.532 83.2259 87.504 84.3689 88.4977C85.1669 88.8217 89.89 85.7112 90.2998 84.9551C90.4939 84.5879 90.3861 84.0911 90.6017 83.7023C90.192 83.4863 89.9763 83.4647 89.545 83.6159C89.0921 83.7671 86.0943 85.6032 85.5335 85.992H85.512ZM84.0454 80.7214C82.9887 81.175 79.0635 83.3783 78.4597 84.1343C77.8127 84.9335 77.748 86.0136 79.0204 85.7328C80.6379 85.3656 82.6005 83.7455 84.0023 82.8599C84.714 82.4063 86.4609 82.0607 86.5903 81.0454C86.7844 79.5334 84.6709 80.4622 84.067 80.7214H84.0454ZM56.5695 67.5883C62.2199 69.7915 66.1451 69.2083 71.6877 69.9427C78.8047 70.8716 84.8434 76.0125 91.9173 78.151C94.9582 79.0798 99.4872 80.0734 101.622 77.0277C103.326 74.6085 104.728 70.5475 106.043 67.7611C110.918 57.3928 115.943 47.0029 120.558 36.4402C121.528 34.1937 122.52 33.1353 122.068 30.392C120.817 22.7238 107.273 15.9196 100.932 12.9819C91.486 8.59701 74.7502 2.41924 64.3119 4.6657C60.2358 5.52973 58.0576 7.14977 56.7636 11.2539C53.4207 21.9462 50.9406 33.0273 47.8565 43.806C46.9507 46.9381 45.6136 50.1134 44.7725 53.2455C44.1255 55.6215 43.4569 58.5592 45.4626 60.4817C47.9643 62.9009 53.3345 66.3138 56.5695 67.5883Z" fill="#F28E7A"/>
<path d="M19.9708 135.436C19.5826 134.01 19.4316 129.625 19.8198 128.178C21.5236 121.849 25.9879 115.023 32.501 112.971C39.7474 110.66 52.1267 114.915 58.9418 117.896C61.7455 119.127 64.4197 120.812 67.1156 122.259C67.2881 122.605 62.9748 125.391 62.8669 126.774C62.8238 127.443 63.5571 127.681 64.0962 127.443C65.3687 126.882 67.4822 124.614 68.6252 123.663L69.0135 123.62L70.631 125.391C69.5526 126.255 68.7547 127.508 67.8273 128.502C67.3312 129.042 66.0157 129.301 66.5117 130.446C67.245 132.239 69.2723 129.28 69.9408 128.653C70.6741 127.983 71.4936 127.4 72.2269 126.731L73.6934 128.286C73.4131 129.107 72.6798 129.517 72.1838 130.144C72.0112 130.36 71.9681 130.727 71.774 130.943C70.8682 131.958 68.8194 132.995 69.4879 134.593C70.3937 136.689 73.9738 131.396 74.5345 130.64C74.7718 130.554 75.2678 131.742 75.3325 131.958C76.8422 138.201 73.4346 148.655 68.2155 152.457C56.1381 161.248 35.1537 154.358 25.5997 144.551C23.6587 142.542 20.6825 138.157 19.9492 135.414L19.9708 135.436ZM44.2764 150.599C49.9054 152.176 49.5603 146.085 44.1255 145.394C42.9393 145.242 40.8689 145.286 40.5023 146.733C39.9847 148.677 42.7452 150.167 44.2764 150.599ZM53.9815 146.042C54.2403 146.128 56.9792 146.366 57.2596 146.344C57.4537 146.344 58.1438 145.998 58.3164 145.89C61.271 143.795 56.7204 140.598 54.2618 140.771C50.4014 141.03 51.1994 145.178 54.003 146.063L53.9815 146.042ZM38.1515 139.885C39.6396 140.231 41.8825 140.015 42.0982 138.157C42.2923 136.494 40.9552 136.451 39.9847 135.825C39.5965 135.565 39.5102 135.068 38.8201 134.809C37.5908 134.377 34.8087 134.399 34.3989 135.997C33.8813 138.028 36.4909 139.497 38.1299 139.885H38.1515ZM43.2197 126.86C43.4785 127.443 46.0018 127.767 46.735 128.005C52.9463 130.1 64.0747 135.825 67.9135 141.181C68.6684 142.218 69.3154 144.551 70.7604 143.946C72.7014 143.147 69.7899 139.129 68.9703 138.179C64.5923 133.081 54.7147 127.638 48.2447 125.78C47.3173 125.521 43.8882 124.592 43.2844 125.564C43.2412 125.888 43.1334 126.623 43.2412 126.86H43.2197ZM30.1718 125.435C31.1854 125.651 32.3501 125.154 33.3421 125.154C34.5499 125.154 37.03 125.931 37.7849 124.895C38.4319 124.031 37.7417 123.447 36.8791 123.253C35.7792 123.015 31.6599 122.756 30.6247 122.972C29.3091 123.231 28.5759 125.089 30.1718 125.435Z" fill="#F28E7A"/>
<path d="M28.8347 109.213C29.2229 106.016 29.8052 104.072 32.9971 102.992C40.1141 100.594 53.4208 105.476 60.1927 108.154C65.3903 110.206 75.0737 114.742 78.3734 119.235C80.336 121.914 80.4007 123.512 78.6754 126.407C78.546 126.623 78.2872 127.249 77.9852 126.968L76.7991 124.787C67.6979 115.326 46.4547 105.756 33.3422 107.895C32.6305 108.003 28.9857 109.429 28.8347 109.191V109.213Z" fill="#F28E7A"/>
<path d="M128.667 124.419C128.883 122.648 128.84 120.639 129.465 118.955C130.845 115.174 137.078 111.265 140.248 108.737C156.208 95.9499 172.038 83.1623 188.126 70.5476C193.108 66.6379 196.969 62.0801 203.956 64.4994C213.704 67.8691 223.862 80.4191 229.534 88.6705C234.43 95.7987 243.747 113.209 241.741 121.892C240.469 127.4 236.393 128.653 232.036 131.245C213.855 142.089 195.761 153.062 177.516 163.668C174.582 165.374 167.358 169.889 164.381 170.062C160.931 170.256 157.588 167.513 154.202 168.83C152.757 164.467 151.226 160.104 149.112 156C144.648 147.338 138.933 139.238 131.665 132.736C130.888 132.045 127.804 129.906 127.481 129.344C127.287 128.999 128.257 127.4 128.408 126.752C128.602 125.975 128.559 125.197 128.667 124.398V124.419ZM160.133 162.005C158.666 161.573 157.2 159.909 155.97 161.961C155.97 162.221 156.143 162.393 156.294 162.588C156.984 163.43 161.319 164.726 162.548 164.964C165.287 165.482 167.487 164.553 169.838 163.257C170.355 162.977 172.598 161.659 172.879 161.335C173.892 160.212 172.21 159.412 171.218 159.736C170.226 160.06 168.63 161.313 167.616 161.832C166.43 162.437 164.856 163.02 163.497 162.825C162.786 162.717 160.78 162.221 160.09 162.005H160.133ZM144.669 112.28C144.864 111.459 143.483 111.265 142.944 111.438C141.564 111.87 138.523 114.915 137.445 116.103C136.366 117.291 134.749 118.717 136.172 120.207C137.941 120.531 138.566 118.501 139.58 117.378C140.852 115.974 142.383 114.872 143.699 113.619C143.807 113.511 144.648 112.388 144.669 112.302V112.28ZM142.448 126.428C142.362 126.882 143.009 127.746 143.289 128.113C144.993 130.252 147.301 132.261 149.091 134.464C153.943 140.447 158.278 147.986 160.909 155.179C161.125 155.784 160.909 156.756 162.031 156.993C163.454 157.296 163.303 155.46 163.174 154.574C162.052 146.971 152.649 133.038 146.977 127.876C145.963 126.947 143.397 124.463 142.448 126.428ZM237.471 119.084C237.493 118.695 237.191 118.004 237.148 117.486C236.091 106.556 227.442 92.4938 220.671 83.94C216.551 78.7342 206.07 67.3723 198.931 68.0419C195.157 68.3875 190.262 73.1397 187.199 75.6021C176.135 84.48 165.309 93.4874 154.374 102.495C153.124 103.51 151.355 104.461 150.406 105.821C149.522 107.117 149.393 109.688 149.522 111.2C150.255 118.803 158.149 123.879 161.901 129.841C164.727 134.313 166.15 139.367 168.997 143.838C171.002 147.014 174.216 151.183 177.084 153.559C181.462 157.166 184.266 154.444 188.256 152.133C201.11 144.659 213.942 137.229 226.817 129.733C229.297 128.286 234.344 126.126 235.918 123.944C236.781 122.756 237.385 120.488 237.493 119.063L237.471 119.084Z" fill="#F28E7A"/>
<path d="M99.746 143.601C101.816 142.24 104.21 141.009 106.561 140.231C116.784 136.883 123.707 144.292 129.314 151.679C137.811 162.89 147.02 177.298 132.333 187.925C120.838 196.242 109.624 189.913 101.299 180.624C94.9151 173.496 89.2215 159.672 93.5132 150.362C94.3759 148.504 95.9287 146.647 97.6972 145.61C99.3362 146.042 100.954 146.15 102.571 146.711C103.779 147.143 105.289 147.856 106.475 148.396C107.661 148.936 109.775 150.988 110.594 149.044C110.659 148.202 108.114 146.495 107.337 146.042C104.836 144.638 102.722 144.702 100.328 143.903C100.091 143.817 99.8538 143.903 99.746 143.579V143.601ZM103.197 171.725C100.35 171.336 101.169 175.138 102.205 176.607C102.981 177.708 105.504 179.328 106.583 177.859C106.734 177.643 106.583 177.341 106.647 177.103C106.712 176.931 107.014 176.758 107.014 176.563C107.014 176.455 106.518 174.555 106.432 174.317C106.022 173.345 104.232 171.854 103.197 171.703V171.725ZM101.148 156.194C99.6813 155.956 98.9696 157.036 98.9265 158.376C98.8618 160.255 100.889 162.393 102.787 162.609C106.151 162.977 104.771 158.246 102.83 156.928C102.593 156.756 101.407 156.237 101.148 156.194ZM117.043 183.54C117.819 184.599 119.717 185.938 121.011 184.966C123.383 183.173 120.04 178.011 117.366 178.788C115.209 179.415 116.072 182.201 117.064 183.54H117.043ZM111.716 169.284C112.535 170.342 114.088 171.314 115.468 171.055C117.84 170.602 116.741 167.491 115.641 166.26C112.708 163.02 108.804 165.525 111.716 169.284ZM130.198 183.411C131.298 174.749 125.238 163.257 119.695 156.842C118.789 155.784 117.625 154.164 116.094 154.466L115.749 154.833C115.619 156.626 117.366 157.944 118.272 159.24C122.715 165.612 127.632 174.555 127.869 182.46C127.891 183.476 127.093 186.132 128.192 186.629C128.3 186.672 129.271 186.435 129.443 186.262C130.22 185.528 130.112 184.296 130.22 183.411H130.198Z" fill="#F28E7A"/>
<path d="M144.368 174.425C144.368 174.23 144.669 173.842 144.669 173.388C144.885 166.973 136.043 152.371 131.967 147.403C128.667 143.406 123.491 137.985 118.682 136.041C117.948 135.738 116.439 135.63 115.943 135.069C115.684 134.766 115.835 134.853 115.943 134.637C117.28 132.39 121.097 131.612 123.383 132.563C128.947 134.853 136.151 143.817 139.537 148.828C143.203 154.25 149.306 165.072 149.824 171.595C150.04 174.403 147.344 177.622 144.475 177.579C144.54 176.542 144.346 175.462 144.368 174.425Z" fill="#F28E7A"/>
<path d="M48.8271 57.6087C46.3469 53.6342 53.9168 53.159 56.1813 53.159C57.691 53.159 59.2869 53.5478 60.6025 53.5694C61.7887 53.5694 62.7807 52.1654 61.8965 51.4093C60.7103 50.3941 56.1813 50.1565 54.5207 50.2213C52.9894 50.2645 51.5013 50.7397 49.9917 50.7829C50.7681 48.0396 51.7601 45.318 52.5365 42.5963C55.4696 32.2928 58.2086 21.9461 60.9691 11.5562C61.7024 9.78498 63.4062 9.24496 65.1315 8.94255C71.4937 7.84092 78.4597 9.67697 84.6494 11.4482C93.7505 14.0835 104.103 18.274 111.888 24.0414C114.174 25.7262 118.488 29.1823 117.711 32.4008C117.56 33.0704 116.848 34.6473 116.547 35.3601C112.406 45.0804 107.23 54.8006 102.765 64.3913C101.816 66.4434 101.105 68.625 100.005 70.5907L98.258 67.6962C92.9094 60.2224 81.4575 54.3902 72.6151 52.3382C71.5799 52.1006 67.6548 51.3445 66.8784 51.7981C66.4902 52.0142 66.0157 52.6838 66.2314 53.1374C67.396 54.3254 69.2507 54.2174 70.6957 54.6494C78.395 56.9391 87.0648 60.6328 93.0388 66.1625C95.4759 68.409 96.9424 70.5475 98.2795 73.5716C98.6677 75.5372 95.4327 74.738 94.3328 74.5004C87.8412 73.2044 82.924 68.7978 76.6481 67.0482C72.0113 65.7521 66.598 65.8817 61.8534 64.9097C58.187 64.1537 50.8328 60.8488 48.8486 57.6303L48.8271 57.6087ZM65.5844 60.6544C68.4528 61.3456 69.186 58.8615 67.1156 58.4727C66.7059 58.3863 66.4686 58.6887 66.253 58.6887C65.4981 58.6887 64.4845 58.1703 64.1179 59.2072C63.7728 60.1576 64.8727 60.5032 65.5844 60.676V60.6544ZM86.0081 66.357C87.6256 65.4713 85.3395 62.5552 83.7436 63.6353C81.9104 64.8449 84.9944 66.9186 86.0081 66.357ZM106.734 46.6356C107.23 46.29 109.3 44.5835 109.451 44.1731C109.667 43.6115 109.322 42.7691 108.653 42.7259C107.812 42.6611 105.569 44.6483 104.728 45.1884C103.693 45.858 99.8108 47.9964 99.4226 48.7525C98.7756 50.0053 100.652 50.0053 101.579 49.6381C102.809 49.1413 105.634 47.4564 106.734 46.6572V46.6356ZM64.01 31.3424C64.959 31.4936 67.1372 29.6791 68.043 29.0959C68.7331 28.6639 72.5073 26.8927 71.6878 25.683C71.3643 25.2078 70.6094 25.3158 70.135 25.4454C69.0998 25.7046 64.5492 28.6855 63.8159 29.5063C63.2336 30.1543 62.7807 31.1264 63.9885 31.3208L64.01 31.3424ZM100.113 41.0843C99.3579 41.6459 99.3147 42.5531 100.285 42.7043C101.493 42.8987 104.103 40.6954 105.181 39.9826C106.259 39.2698 108.61 38.7946 108.243 37.0017C107.877 36.6561 107.316 36.4617 106.82 36.6777C105.483 37.5634 104.21 38.5138 102.873 39.421C102.054 39.9826 100.846 40.501 100.091 41.0627L100.113 41.0843ZM100.63 30.5C101.622 30.8888 103.218 30.1111 104.059 29.5927C104.62 29.2471 106.367 27.9511 106.345 27.3679C106.13 26.6766 105.936 26.331 105.159 26.4606C104.944 26.5038 101.45 28.4047 101.126 28.6423C100.673 28.9663 100.436 29.5063 99.9402 29.8087C100.048 30.1327 100.328 30.392 100.652 30.5H100.63Z" fill="#F28E7A"/>
<path d="M158.429 104.374C160.133 103.121 161.815 101.782 163.454 100.443C172.21 93.2066 181.203 85.992 190.024 78.9286C192.224 77.1573 194.855 74.5005 197.141 72.9884C199.6 71.3468 202.943 73.442 205.056 74.8461C214.157 80.8726 222.978 93.4442 227.917 102.948C229.923 106.815 232.899 114.354 233.007 118.63C233.028 119.516 232.791 120.402 232.856 121.287L186.078 148.483L185.927 143.277C182.627 127.919 174.604 112.885 160.348 105.346C159.745 105.022 158.86 105.109 158.429 104.396V104.374ZM189.852 138.46C190.089 138.503 190.693 138.265 191.124 138.287C192.375 138.33 197.206 139.129 197.896 138.373C198.953 137.229 197.055 136.732 196.257 136.602C195.287 136.429 191.038 136.105 190.218 136.278C188.579 136.624 188.817 138.244 189.873 138.46H189.852ZM201.649 132.606C201.8 131.785 200.764 131.483 200.139 131.396C197.249 130.964 193.993 131.353 191.081 130.878C190.65 130.878 189.744 131.31 189.744 131.742C190.046 133.124 191.663 133.211 192.806 133.34C194.036 133.47 200.376 133.708 201.11 133.297C201.325 133.168 201.627 132.865 201.67 132.606H201.649ZM173.418 96.6195C172.21 96.7707 172.555 98.5635 174.539 98.7363C175.467 98.8227 179.802 98.4123 180.621 98.1315C181.894 97.6995 182.174 96.4467 180.858 96.1227C180.384 96.0147 177.451 96.2307 176.761 96.2955C175.747 96.3819 174.777 96.6411 173.785 96.8139C173.655 96.8355 173.483 96.6195 173.439 96.6195H173.418ZM211.354 111.265C211.311 110.271 209.995 110.012 209.24 109.947C208.248 109.861 204.517 109.666 203.741 109.839C203.352 109.925 202.555 110.228 202.533 110.703C202.727 111.416 203.202 111.826 203.913 111.978C204.625 112.129 208.701 112.15 209.564 112.064C210.017 112.021 211.375 111.913 211.354 111.265ZM192.483 85.2792C192.957 85.668 195.222 85.4088 195.955 85.4304C197.875 85.4736 201.951 85.8408 203.654 85.4736C205.229 85.1495 205.272 83.7023 203.762 83.3783C202.058 83.0111 199.708 83.2919 197.961 83.2919C196.645 83.2919 192.871 82.8383 191.965 83.7023C191.599 84.2207 192.073 84.9335 192.483 85.2792ZM193.971 80.3326C194.877 81.1318 200.355 80.3974 201.778 80.6782L202.425 80.3974C203.029 79.447 202.36 78.9286 201.433 78.7342C200.506 78.5398 195.394 78.3886 194.618 78.5614C193.691 78.7774 193.367 79.8142 193.993 80.3542L193.971 80.3326Z" fill="#F28E7A"/>
<path d="M175.143 145.955C174.777 145.437 174.69 144.983 174.41 144.573C169.665 137.855 167.358 129.69 162.333 123.447C160.241 120.855 157.523 118.803 155.776 115.887C153.555 112.15 151.592 105.389 158.688 108.154C170.55 112.777 183.835 135.393 183.08 147.964C182.67 154.682 176.912 148.353 175.143 145.955ZM176.2 141.074C177.904 142.564 179.327 139.885 178.012 138.481C177.839 138.287 176.976 137.79 176.696 137.682C174.324 136.775 174.82 139.842 176.2 141.052V141.074ZM162.872 118.306C164.813 120.38 166.818 118.609 165.266 116.492C163.713 114.375 160.262 115.498 162.872 118.306ZM171.757 129.906C171.93 130.057 172.21 130.079 172.447 130.122C176.674 128.588 170.291 124.29 170.808 128.2C170.895 128.783 171.304 129.539 171.757 129.928V129.906Z" fill="#F28E7A"/>
<path d="M0.19414 172.178C0.0431732 173.842 0.884275 175.57 2.30768 176.477C2.60961 176.671 2.97624 176.844 3.34288 176.844C4.52905 176.866 5.15448 175.375 4.98195 174.209C4.65845 171.898 2.32924 170.083 0.0216064 170.299" fill="#F28E7A"/>
<path d="M51.6091 195.054C50.2719 194.449 48.6113 195.766 48.6544 197.214C48.6976 198.661 50.0563 199.87 51.5228 200C52.062 200.043 52.6443 199.957 53.0972 199.654C54.003 199.028 54.1539 197.732 53.852 196.674C53.1403 194.125 50.0994 192.505 47.5977 193.347" fill="#F28E7A"/>
<path d="M84.0023 188.746C82.5574 189.113 82.5789 191.424 83.7435 192.332C84.9082 193.239 86.5472 193.174 88.0353 193.044C88.251 191.77 88.4451 190.388 87.8197 189.264C87.1942 188.141 85.4042 187.644 84.6493 188.681" fill="#F28E7A"/>
<path d="M3.79578 143.385C5.21918 145.545 8.15225 146.56 10.6109 145.739C11.3226 144.335 10.3736 142.521 8.97179 141.765C7.56995 141.009 5.90931 141.009 4.33494 141.052C4.27024 141.441 4.20554 141.83 4.16241 142.197" fill="#F28E7A"/>
<path d="M36.1673 166.541C34.8949 167.901 35.3478 170.45 37.03 171.271C38.7122 172.092 40.9983 170.926 41.3002 169.089C41.559 167.621 40.6316 166.13 39.3376 165.417C38.0436 164.705 36.4693 164.661 35.0243 165.029" fill="#F28E7A"/>
</g>
<defs>
<clipPath id="clip0_108_362">
<rect width="242" height="200" fill="white"/>
</clipPath>
</defs>
</svg>
