<svg width="56" height="60" viewBox="0 0 56 60" fill="none" xmlns="http://www.w3.org/2000/svg">
<g clip-path="url(#clip0_100_427)">
<path d="M47.1851 29.7652V50.9149H8.88885V29.7652C-7.27411 24.7309 0.607367 2.92074 16.5185 7.82289C21.9555 -2.61253 34.1333 -2.59785 39.5703 7.82289C55.4518 2.87671 63.2 24.863 47.1851 29.7798V29.7652ZM29.5111 26.1252H26.5629V46.5411H29.5111V26.1252ZM20.6666 31.9521H17.7185V46.5411H20.6666V31.9521ZM38.3407 31.9521H35.3926V46.5411H38.3407V31.9521Z" fill="currentColor"/>
<path d="M47.1852 53.8356L46.8148 58.2093C45.9556 59.7358 44.6519 59.5596 43.1704 59.7064C33.2148 60.6751 21.6297 58.9285 11.4815 59.6477C8.41484 59.0753 8.7704 56.3307 8.88892 53.8356H47.1852Z" fill="currentColor"/>
</g>
<defs>
<clipPath id="clip0_100_427">
<rect width="56" height="60" fill="white"/>
</clipPath>
</defs>
</svg>
