<svg width="178" height="209" viewBox="0 0 178 209" fill="none" xmlns="http://www.w3.org/2000/svg">
<g clip-path="url(#clip0_108_379)">
<path d="M149.971 141.063C149.407 143.299 148.809 145.588 148.056 147.777C136.497 181.313 105.593 200.577 70.5305 193.229C44.0895 187.672 23.2459 171.188 16.8788 144.463C13.9633 132.277 14.6657 119.895 17.1363 107.695L17.4548 107.312L17.943 107.375C19.3301 108.43 20.8028 109.386 22.2946 110.266C40.9017 121.227 64.4626 127.892 85.2812 133.04C103.162 137.447 124.172 141.756 142.63 141.39C143.602 141.372 149.663 140.602 149.966 141.082L149.971 141.063ZM83.9665 140.894C78.3938 132.13 69.1959 143.984 67.2073 149.793C66.616 151.499 66.947 154.344 68.8419 155.144C71.5375 156.287 78.7734 158.374 81.6181 158.446C85.5627 158.553 86.0825 154.652 86.1218 151.537C86.1611 148.422 85.6965 143.628 83.9665 140.894ZM25.1694 131.09C25.0087 130.848 24.2927 130.89 23.9891 130.974C23.1684 131.191 19.2864 135.393 18.8437 136.27C18.4772 137.004 18.6809 137.075 19.0258 137.707C20.1533 138.192 21.679 136.299 22.4297 135.48C22.8954 134.993 24.801 132.792 25.0104 132.361C25.1105 132.124 25.2593 131.214 25.1694 131.09ZM27.5878 138.131C26.2001 137.398 24.9168 138.97 24.0283 139.935C23.4153 140.607 20.7728 143.812 20.5534 144.442C20.2626 145.276 20.8199 146.344 21.845 145.877C22.2104 145.707 23.7309 144.074 24.1395 143.653C24.8284 142.919 28.3875 138.958 27.6068 138.136L27.5878 138.131ZM27.9692 146.695C27.1861 147.082 23.9687 150.887 23.6162 151.726C23.3304 152.38 23.4386 152.83 24.0114 153.277C24.5466 153.553 25.4349 152.749 25.8054 152.399C26.4467 151.774 29.5269 147.793 29.5187 147.186C29.5109 146.337 28.5435 146.416 27.9644 146.714L27.9692 146.695ZM33.1402 154.812C32.8798 154.646 32.5816 154.389 32.2877 154.356C31.3729 154.226 27.596 158.011 27.2527 158.973C26.6281 160.731 28.0361 160.824 29.1902 159.845C29.8551 159.286 33.3666 155.434 33.1402 154.812ZM36.9821 161.325C36.6692 161.287 36.2326 161.499 35.9809 161.698C35.3351 162.18 32.8549 164.821 32.4221 165.498C32.1321 165.929 31.9272 166.421 31.7272 166.895L31.9774 167.422C32.1762 167.593 32.4131 167.693 32.6691 167.717C33.0625 167.756 35.3756 165.698 35.8127 165.244C36.4113 164.629 39.1577 161.652 36.9869 161.306L36.9821 161.325ZM43.4373 167.388C43.0201 167.363 42.7495 167.557 42.4124 167.774C41.5626 168.346 38.7458 170.963 38.0946 171.786C36.7495 173.443 37.5769 174.64 39.4332 173.434C40.1785 172.957 44.4108 169.044 44.502 168.442C44.622 167.727 44.0726 167.427 43.4325 167.407L43.4373 167.388ZM44.7671 178.267C45.1744 178.49 45.6487 178.449 46.052 178.288C46.5455 178.09 49.6656 175.55 49.9842 175.086C50.9256 173.751 50.5482 172.769 48.9634 173.377C48.2232 173.675 44.8277 176.427 44.6604 177.091C44.5696 177.451 44.7821 177.888 44.7861 178.272L44.7671 178.267Z" fill="#F28E7A"/>
<path d="M154.032 115.918C155.226 96.9464 153.06 77.4699 146.917 59.5311C140.058 39.4762 125.797 15.1159 101.335 15.7026C83.9949 16.1091 65.6664 29.7132 53.96 41.7611C40.4909 55.6025 29.3085 73.5685 22.1517 91.4809C21.1701 93.9349 19.1691 98.8334 18.7661 101.232C18.7181 101.502 18.5419 101.881 18.7643 102.118C19.8113 102.523 20.5588 103.397 21.4916 104.015C21.9035 104.301 22.3822 104.401 22.7799 104.663C25.1854 106.237 27.5197 107.854 30.182 109.049C30.4523 109.016 30.5333 108.855 30.6285 108.637C31.4334 106.804 31.8411 104.467 32.6934 102.606C33.8674 101.148 36.0333 101.593 36.0294 103.608C36.0187 104.21 35.2033 106.565 34.96 107.29C34.7931 107.792 33.5073 110.653 33.6255 110.824L43.1237 114.973C46.938 116.237 50.5853 118.003 54.4235 119.172C54.7079 119.244 55.4185 119.544 55.6133 119.331C56.7212 117.735 56.6281 112.027 59.0177 112.065C59.5013 112.066 60.7617 112.504 60.7558 113.088C60.9216 115.549 59.4088 118.111 58.9156 120.547C59.0053 120.751 59.6684 121.079 59.9338 121.146C65.7387 122.831 71.7514 124.891 77.6562 126.34C78.7178 126.607 80.031 126.676 81.1161 127.01C81.4353 126.224 81.309 125.366 81.4907 124.565C81.6484 123.939 82.0145 123.447 82.1387 122.954C82.4494 121.722 82.0701 119.308 83.9526 119.198C85.2851 119.11 86.3449 120.264 86.2428 121.549C86.1306 123.114 85.0959 126.098 84.6706 127.785C84.532 128.335 87.3384 128.559 87.8692 128.693C92.523 129.826 97.1716 131.139 101.873 132.001C103.703 132.342 105.666 132.232 107.495 132.975C107.92 131.369 108.258 126.031 109.388 125.066C110.414 124.195 112.266 124.924 112.159 126.389L110.841 133.375C118.581 134.742 126.384 135.701 134.225 136.186C135.093 135.86 134.632 124.495 138.886 128.813C139.085 131.222 138.198 133.78 137.909 136.207C139.53 136.576 150.924 136.162 151.39 135.272C152.645 128.855 153.625 122.408 154.041 115.881L154.032 115.918ZM45.0138 87.0032C44.0745 89.6896 39.0197 85.109 38.7274 89.0674C41.012 89.4417 42.2939 90.9946 42.555 93.2378C43.2358 99.0139 36.6149 102.405 32.9357 97.5664C31.5548 95.7667 32.138 93.3735 34.8158 93.8672C35.5836 94.0204 35.4113 94.864 35.7988 95.4859C37.7838 98.7281 41.0979 93.9792 38.1758 92.2951C35.8363 90.9391 34.171 91.4669 35.4866 87.9278C36.4685 85.3125 37.7902 83.5088 40.7478 84.0125C42.3308 84.2906 45.7958 84.7811 44.9996 86.9795L45.0138 87.0032ZM62.2579 99.1323C61.4326 101.686 60.084 105.116 59.0123 107.608C58.2787 109.318 55.8815 108.351 55.9561 106.616L59.0679 98.6708C58.8364 98.2295 56.3946 100.638 55.5588 98.9152C55.0299 97.8141 55.9229 96.9909 56.768 96.4379C57.3234 96.0739 60.2426 94.4108 60.7503 94.2364C61.5237 93.9677 63.0026 94.1792 63.1999 95.0757C63.3175 95.569 62.5057 98.4691 62.272 99.1561L62.2579 99.1323ZM69.6471 110.047C66.9587 112.474 62.6517 111.005 61.7861 107.561C60.8357 103.814 64.1813 95.1014 69.1292 96.1875C70.2192 96.422 72.1076 98.1278 72.5228 99.2001C73.7211 102.204 72.0172 107.923 69.6471 110.047ZM93.9308 106.008C92.1379 108.722 89.8865 113.174 87.9001 115.455C87.1872 116.284 86.3853 116.585 85.3622 116.085C84.3911 115.619 84.2129 114.647 84.0536 113.679C83.5617 110.672 82.8084 103.184 83.0701 100.307C83.269 97.9983 84.2944 97.3697 86.4748 97.6775C87.7594 97.8602 88.517 98.3738 89.5075 98.6033C91.2704 99.0477 94.9349 99.3063 95.8846 100.977C97.0328 102.98 94.9056 104.541 93.9308 106.008ZM106.447 120.655L108.528 111.362C107.447 111.412 106.126 112.974 105.108 112.455C104.051 111.927 104.495 110.647 105.117 109.937C105.402 109.606 107.14 108.552 107.657 108.259C108.744 107.626 111.389 105.934 112.135 107.533C112.857 109.066 110.839 115.311 110.371 117.249C109.835 119.453 109.712 124.18 106.471 120.641L106.447 120.655ZM117.39 123.071C114.904 123.896 110.746 121.678 112.188 119.078C113.563 116.582 115.23 120.047 116.168 120.082C117.581 120.156 118.307 117.355 117.404 116.22C116.236 114.777 114.228 115.621 113.771 114.317C113.347 113.121 114.924 108.942 116.111 108.153C117.056 107.524 120.715 108.205 121.724 108.681C122.662 109.119 122.537 110.176 121.99 110.905C121.039 112.197 119.022 110.923 117.67 111.086C117.381 111.195 117.08 112.147 117.16 112.389C117.203 112.541 118.577 113.089 118.932 113.36C122.151 115.784 121.376 121.737 117.39 123.071ZM136.047 125.598C134.895 125.529 132.075 124.959 131.033 124.535C126.646 122.744 134.012 116.799 135.348 114.938C136.061 113.948 137.145 112.286 135.021 112.315C134.068 112.337 133.559 113.237 132.909 113.496C130.774 114.369 130.3 111.69 131.991 110.18C134.546 107.881 140.058 109.291 139.495 113.282C138.952 117.117 135.596 118.67 133.822 121.71C135.106 122.296 137.316 121.684 138.006 123.188C138.497 124.28 137.143 125.652 136.052 125.579L136.047 125.598ZM146.826 124.988C144.019 127.406 140.806 126.394 139.333 123.12C137.875 119.869 139.631 114.022 142.603 111.989C144.721 110.547 148.099 111.459 149.28 113.733C150.787 116.633 149.295 122.869 146.826 124.988Z" fill="#F28E7A"/>
<path d="M68.0364 99.6417C69.8857 99.5838 69.6577 102.167 69.3756 103.366C69.0935 104.565 67.1213 109.269 65.503 107.611C64.1261 106.196 65.9027 99.7086 68.0175 99.6369L68.0364 99.6417Z" fill="#F28E7A"/>
<path d="M145.063 114.625C147.529 114.763 146.148 119.838 145.425 121.188C144.702 122.538 143.215 123.877 142.413 121.779C141.739 119.976 142.533 116.266 144.048 115.055C144.352 114.809 144.608 114.591 145.044 114.621L145.063 114.625Z" fill="#F28E7A"/>
<path d="M81.2242 153.851C79.8882 153.312 78.2382 153.299 76.9303 152.97C76.627 152.893 76.3146 152.613 75.9165 152.513C74.4759 152.149 72.8168 151.933 71.5665 151.214C71.3448 150.654 73.8086 146.719 74.3267 146.023C78.0585 141.057 80.6281 141.181 81.3264 147.687C81.4148 148.536 81.6989 153.567 81.2242 153.851Z" fill="#F28E7A"/>
</g>
<defs>
<clipPath id="clip0_108_379">
<rect width="137" height="181" fill="white" transform="translate(44.2466) rotate(14.1497)"/>
</clipPath>
</defs>
</svg>
