<svg width="190" height="191" viewBox="0 0 190 191" fill="none" xmlns="http://www.w3.org/2000/svg">
<g clip-path="url(#clip0_99_337)">
<path d="M57.7407 70.6533C58.0452 71.0255 57.873 70.9626 57.7302 71.1781C56.9974 72.3176 55.6622 73.5572 54.8564 74.7534C52.5942 78.0852 47.9018 87.3831 47.7399 91.2774C47.6784 92.7642 49.1725 94.3805 50.6617 94.1306C51.9007 93.9293 55.0644 90.6993 56.4021 89.7525C59.6302 87.4742 63.3001 85.8227 66.5716 83.6248C69.2832 81.7982 71.6325 79.4922 73.9622 77.2141C74.591 79.4359 75.4511 81.4462 76.6173 83.4472C78.3742 86.479 81.2229 90.0292 83.697 92.5011C84.4141 93.2216 87.0921 95.6872 87.9123 95.7984C89.7844 96.0341 90.9403 94.7182 90.8551 92.8953C90.5369 86.9587 91.5133 80.8599 91.1756 74.9511C91.0463 72.5983 90.5412 70.4137 90.3461 68.131C93.6821 67.7498 96.9723 66.9953 100.292 66.5193C105.454 65.7757 110.935 65.2404 116.143 65.0948C117.796 65.0511 120.178 65.7207 121.553 64.6502C124.036 62.6876 120.849 59.856 119.342 58.4717C115.417 54.8795 109.514 52.0084 104.278 51.0786C102.314 50.7367 100.309 50.798 98.3458 50.4902C99.0568 49.9508 99.0955 49.0301 99.7787 48.4711C101.557 47.0272 106.521 45.8538 108.874 45.38C138.3 39.5901 163.338 61.8814 166.856 90.7496C173.61 146.042 97.3277 189.161 53.4173 155.492C34.1514 140.728 26.5937 112.378 37.5764 90.5323C41.9031 81.9334 48.9434 74.7775 57.7273 70.6605L57.7407 70.6533Z" fill="#F28E7A"/>
<path d="M73.2451 28.3711C73.4729 28.4731 72.898 32.4345 72.864 33.0758C72.4498 39.7364 73.0623 46.7947 75.185 53.1939C75.9902 55.6145 77.657 60.9446 81.094 59.2457C82.8295 58.3957 82.3744 56.4956 82.8468 54.8737C83.4237 52.9012 84.6038 50.6378 85.8942 49.059C89.3336 44.867 94.5557 42.3779 98.1003 38.2849C97.0234 42.7248 95.1858 46.139 92.1923 49.5885C91.0962 50.8548 88.7013 52.3721 89.0484 54.2959C89.6542 57.7239 93.6402 55.9538 96.0093 55.7656C100.293 55.4439 105.319 56.4006 109.252 58.1194C109.701 58.31 112.722 59.8116 112.684 60.092C109.423 60.2598 106.118 60.5719 102.872 60.9913C99.4495 61.4365 95.5048 61.9385 92.1445 62.627C90.1363 63.0357 84.9404 63.7803 84.9959 66.3806C85.0337 68.2117 85.7062 70.7386 85.8659 72.7635C86.2327 77.4453 86.0096 82.4109 85.7572 87.098C85.5565 87.2063 83.5026 84.6808 83.226 84.3282C81.0221 81.3645 79.1849 77.7357 78.0185 74.2294C77.4917 72.6448 77.5013 69.5249 75.1431 69.4131C73.3031 69.3331 71.5226 72.405 70.2514 73.7312C68.1502 75.9205 65.7409 78.0512 63.1794 79.6757C60.7177 81.229 57.9515 82.4102 55.6695 84.2645C55.7889 83.5252 56.2359 82.8168 56.5759 82.1662C59.2794 77.0908 61.8558 73.797 66.3117 70.1121C67.5514 69.0798 69.0551 68.8567 68.6253 66.6834C68.0107 63.6234 63.9687 65.1297 61.9012 65.1724C57.4398 65.2611 52.4118 64.0116 49.0026 61.0234C50.354 60.9345 51.6985 61.0568 53.0644 60.9947C60.0214 60.6322 64.7719 58.934 71.5407 62.0647C71.9551 62.2564 72.2802 62.6347 72.6946 62.8264C74.9872 63.8734 77.278 61.6509 76.3267 59.3437C75.5449 57.4468 73.1797 54.7605 72.0465 52.7244C68.0199 45.5184 66.1536 37.7696 67.4998 29.6025C69.2505 28.5886 71.344 28.7221 73.2523 28.3845L73.2451 28.3711Z" fill="#F28E7A"/>
</g>
<defs>
<clipPath id="clip0_99_337">
<rect width="139" height="141" fill="white" transform="translate(0 66.0086) rotate(-28.3517)"/>
</clipPath>
</defs>
</svg>
