<svg width="419" height="205" viewBox="0 0 419 205" fill="none" xmlns="http://www.w3.org/2000/svg">
<path d="M13.6291 166.413C13.5484 166.4 12.3583 166.803 12.0894 166.857C7.72569 167.758 4.51177 165.943 1.67437 162.762C1.30456 162.352 0.000165773 160.866 0.000165773 160.402C-0.0132816 159.299 0.793562 159.279 1.63402 159.225C6.07166 158.922 11.1884 159.602 13.8039 163.643C13.9249 163.824 14.3082 164.651 14.3754 164.705C14.7856 165.015 15.5185 165.095 15.9824 165.331L15.0344 164.235C12.8424 161.552 12.5668 158.089 12.2373 154.773C12.4659 153.859 13.0105 153.738 13.8039 154.128C14.9537 154.693 16.8632 156.118 17.8449 156.979C20.9445 159.689 22.1884 163.347 21.442 167.408L24.8577 168.74C22.9212 166.669 22.0539 164.342 21.5429 161.605C21.3479 160.577 20.9512 158.458 20.9848 157.483C21.005 156.838 21.4353 156.273 22.1279 156.441C22.7599 156.589 24.9384 158.122 25.5771 158.586C28.7171 160.886 30.3644 163.407 30.2434 167.388C30.2097 168.424 30.1156 169.587 29.7122 170.535L33.5111 172.055C33.6119 171.9 33.5312 171.934 33.4775 171.86C31.8839 169.728 31.1443 168.437 30.6132 165.781C30.4182 164.813 29.8601 161.491 29.9879 160.671C30.0887 160.012 30.6804 159.662 31.2923 159.897C32.3411 160.294 34.4524 161.861 35.3601 162.621C38.8228 165.519 39.865 169.587 38.5875 173.897L42.6351 175.431C40.9273 173.702 40.0936 171.423 39.6565 169.076C39.5221 168.357 39.3876 167.442 39.3069 166.716C39.2666 166.319 39.1119 164.779 39.1724 164.497C39.2733 164.033 39.7641 163.616 40.2549 163.717C40.9139 163.858 42.467 164.887 43.0722 165.31C45.7079 167.166 47.577 169.54 48.0208 172.788C48.2292 174.321 48.0343 175.807 47.6981 177.307L51.9071 179.183C53.7897 180.178 55.706 181.173 57.3466 182.538C57.9517 183.042 59.0611 183.796 58.5232 184.676C57.8172 185.826 56.4994 184.186 55.9077 183.728C53.1644 181.603 49.89 180.366 46.7433 178.961C45.6675 181.429 43.3209 183.843 40.7592 184.75C38.9573 185.389 36.4292 185.342 34.5532 185.06C34.0086 184.979 32.5429 184.771 32.1125 184.582C31.4872 184.307 31.3662 183.607 31.7293 183.069C32.0319 182.619 33.0539 181.691 33.4976 181.274C35.2122 179.667 37.0814 178.221 39.3607 177.542C40.0936 177.32 40.8533 177.212 41.5997 177.058L37.9756 175.639C37.6529 176.063 37.4444 176.553 37.1419 176.997C34.2238 181.281 30.4182 182.558 25.4157 181.819C24.9518 181.751 23.6205 181.556 23.244 181.388C22.6321 181.119 22.4439 180.521 22.7733 179.949C23.0826 179.411 24.4475 178.12 24.9653 177.629C27.2513 175.464 29.7122 173.992 32.9194 173.81C32.9866 173.696 32.8454 173.702 32.7647 173.669C32.2739 173.454 31.8033 173.306 31.3191 173.124C30.5594 172.842 29.7996 172.539 29.0398 172.257C28.2935 174.2 26.6798 175.948 24.9653 177.098C22.4775 178.766 19.5863 179.015 16.6615 178.618C16.0295 178.53 14.3015 178.282 13.8712 177.932C13.4812 177.616 13.5215 177.105 13.7703 176.715C14.1334 176.137 15.5924 174.839 16.1639 174.321C18.1004 172.566 20.0301 171.154 22.6321 170.596L24.0643 170.381L20.7428 169.123C18.5777 172.99 14.8528 175.518 10.3412 175.35C9.44696 175.316 6.67007 175.027 5.96409 174.684C5.35223 174.388 5.41947 173.857 5.71531 173.326C7.12728 170.777 11.0136 167.94 13.9115 167.462L15.6865 167.213L13.6291 166.433V166.413ZM2.9048 161.041C2.75688 161.108 3.05272 161.397 3.10651 161.457C5.19086 164.033 7.78621 165.647 11.1884 165.122C11.3767 165.095 12.2844 164.914 12.3718 164.826C11.0001 162.701 9.06371 161.679 6.58939 161.303C5.3455 161.115 4.14196 161.215 2.9048 161.041ZM14.2544 156.576C14.483 159.427 15.1823 161.767 17.0716 163.959C17.3473 164.275 19.5863 166.501 19.7746 166.427C20.0233 164.194 19.472 161.639 18.0735 159.857C17.0447 158.539 15.5991 157.544 14.2544 156.576ZM12.0961 169.997C10.6371 170.703 9.29904 171.981 8.28376 173.232C9.45368 173.433 10.7514 173.561 11.928 173.42C14.7116 173.084 16.9775 171.315 18.6584 169.15C16.4665 168.968 14.1065 169.022 12.0894 169.997H12.0961ZM23.0019 158.983C23.2104 163.004 24.6425 166.998 28.2128 169.211C28.3876 168.148 28.5019 167.059 28.3943 165.983C28.0514 162.695 25.5704 160.718 23.0019 158.976V158.983ZM27.0429 172.317C25.7721 172.27 24.4072 172.156 23.1431 172.378C20.4133 172.862 18.1945 174.825 16.3522 176.782C17.7843 176.903 19.2299 177.058 20.6554 176.822C23.3852 176.372 25.6309 174.677 27.0429 172.317ZM28.9121 176.856C28.3137 177.192 27.6883 177.65 27.1572 178.087C26.9218 178.282 25.2611 179.781 25.3216 179.922C27.1303 180.285 29.181 180.333 30.9426 179.734C33.0404 179.021 34.6138 177.414 35.9249 175.679C33.5447 175.323 31.0166 175.673 28.9053 176.856H28.9121ZM31.9646 162.372C31.7562 162.453 32.5563 166.38 32.6639 166.756C33.3766 169.251 34.9701 171.201 37.0477 172.714C38.2042 168.289 35.7164 164.524 31.9646 162.365V162.372ZM44.7934 178.867C43.7109 178.806 42.6284 178.766 41.5526 178.92C38.6547 179.324 36.1938 181.059 34.1902 183.116C37.162 183.722 40.3423 183.58 42.7024 181.469C43.0318 181.173 44.8808 179.169 44.7934 178.873V178.867ZM41.0954 166.158C41.2299 168.531 41.6938 171.04 42.9982 173.057C43.7849 174.274 44.8405 175.283 45.9701 176.177C47.2341 171.988 44.6388 168.182 41.0887 166.158H41.0954Z" fill="#F28E7A"/>
<path d="M32.7461 80.4785C33.6507 79.777 35.4543 78.7263 36.5362 78.2844C37.4549 77.9124 38.5413 77.7282 39.4746 77.4084C38.4365 73.8743 38.9498 69.9887 40.7439 66.7722C44 60.9143 51.2958 56.8569 57.9109 59.4719C61.7081 60.9686 64.4184 64.0292 65.6941 67.8589C68.196 65.6041 71.5898 64.3782 74.9678 64.9788C86.4841 67.0178 89.3548 81.976 79.8764 88.4795C79.9414 88.6346 80.0342 88.7342 80.1678 88.8372C84.5329 92.1271 93.051 95.7481 98.3836 96.7091C99.7237 96.9493 101.725 96.8775 102.941 97.2251C106.543 98.2567 105.97 104.665 105.413 107.458C104.788 110.574 102.599 117.178 99.3358 118.354C97.3762 119.06 96.5591 118.064 94.9589 117.342C89.0989 114.703 82.3642 113.527 75.9696 113.838C75.464 113.864 72.4273 114.084 72.2313 114.257C72.117 114.325 72.2782 114.483 72.3221 114.557C72.8409 115.443 73.4368 116.079 73.9098 117.064C76.7654 123.046 74.6724 130.757 69.1106 134.398C63.7301 137.925 55.8339 135.993 52.4636 130.596L52.3136 130.558C52.1125 130.889 51.4599 131.113 51.0797 131.246C45.1634 133.293 38.3569 130.061 34.9125 125.124C31.8895 120.799 31.3637 115.092 33.1393 110.13C33.2998 109.685 34.4039 107.557 34.339 107.374C26.089 102.274 23.567 91.5783 29.6443 83.657C30.4597 82.5933 31.693 81.302 32.7527 80.4801L32.7461 80.4785ZM47.2492 63.4865C43.3018 66.2234 40.9033 71.0975 41.8317 75.9215C42.0161 76.8694 42.909 78.3631 42.5081 79.2121C41.9862 80.3219 40.5141 79.9999 39.4571 80.2054C35.79 80.9188 32.1306 83.9986 30.4914 87.3164C27.3568 93.6556 29.3724 100.827 35.1161 104.782C36.0088 105.395 37.906 105.984 37.4536 107.423C37.2389 108.111 36.3369 109.299 35.9784 110.117C35.0962 112.134 34.7322 114.407 34.776 116.603C34.9326 124.824 43.5284 131.855 51.4613 128.187C52.3246 127.787 53.2671 126.797 54.1098 128.022C54.8355 129.078 55.0282 129.91 56.067 130.934C61.8471 136.619 70.8809 132.791 72.3068 125.224C73.0419 121.339 72.0564 117.569 69.0715 114.91C66.3097 115.553 63.8045 116.802 61.3611 118.191C61.0513 119.174 60.7841 121.09 59.4127 121.001C57.1136 120.852 58.6444 118.076 58.8796 116.838C59.4289 113.912 58.5065 110.441 56.6593 108.139C56.1841 107.548 54.681 106.247 54.5302 105.689C54.1638 104.335 55.8147 103.974 56.6604 103.341C60.9283 100.102 61.7835 93.5358 59.7607 88.8177C59.2961 87.7439 57.9415 86.349 58.9444 85.3394C59.6043 84.6734 60.5789 85.0158 61.049 85.7374C61.9112 87.05 61.7857 88.0447 63.691 88.6837C67.5098 89.957 71.1024 86.8396 72.4873 83.5132C72.7378 82.9036 72.6163 82.3946 73.3638 82.0141C75.1084 81.115 75.2234 83.661 75.7716 84.5687C76.0155 84.9768 77.0719 86.2342 77.4335 86.5055C77.8244 86.7981 78.2441 86.3976 78.587 86.1372C83.5325 82.3826 84.6588 75.5102 80.3856 70.8081C77.0403 67.13 71.2902 66.1472 67.6152 69.8679C66.7968 70.6951 66.2821 72.3823 64.9616 72.1192C63.8188 71.894 63.9801 71.0054 63.7449 70.2043C61.4398 62.5028 54.4079 58.5416 47.2672 63.498L47.2492 63.4865ZM63.0113 97.721C62.4187 100.158 61.2198 102.443 59.529 104.285C59.0896 104.763 58.5297 105.143 58.1228 105.657L59.1056 107.014C60.6864 106.628 62.2721 106.223 63.8691 105.911C66.0713 105.481 68.9106 105.356 70.9777 104.746C71.4427 104.607 72.7138 104.13 72.9216 103.69C73.3813 102.744 71.4461 101.453 70.7472 101.034C68.3897 99.6296 65.5864 98.6466 63.0048 97.7194L63.0113 97.721ZM83.9375 97.358C84.4447 98.4009 83.4009 99.4903 82.2599 99.1199C81.5346 98.8888 80.342 98.2281 79.6022 97.8616C75.7404 95.9603 72.0455 93.6712 68.5777 91.1411C68.2077 91.0133 67.7066 91.324 67.3445 91.3854C65.9074 91.6408 64.5099 91.6011 63.1032 91.1846C63.4339 92.4327 63.3732 93.721 63.4755 94.9949C66.5946 96.3209 69.9247 97.3047 72.7706 99.1929C74.8671 100.587 76.8903 102.99 74.9588 105.457C73.2431 107.647 68.1891 107.865 65.5889 108.334C63.8827 108.64 62.2024 109.063 60.5075 109.406L61.4645 112.6L61.6988 115.031C62.8007 114.261 64.2808 113.642 65.5551 113.179C74.4821 109.942 86.545 110.745 95.1899 114.606C95.9004 114.924 97.241 115.851 97.8719 115.989C98.9706 116.224 100.243 113.923 100.554 113.044C99.7931 112.818 99.0206 112.526 98.2758 112.235C95.9648 111.334 93.6017 110.448 91.2089 109.735C88.9644 109.066 86.527 108.695 84.2793 108.011C82.0316 107.328 82.8355 105.318 84.5459 105.492C85.7427 105.613 87.9106 106.228 89.1527 106.555C91.6434 107.209 94.088 108.13 96.5494 108.819L101.673 110.774C101.761 110.04 102.139 109.338 102.324 108.657C102.393 108.383 102.364 108.084 102.428 107.802C102.492 107.492 102.817 107.221 102.656 106.813C101.479 106.613 100.274 106.47 99.0974 106.243C98.041 106.032 96.0048 105.665 95.0612 105.282C93.5635 104.676 93.8449 103.118 95.3032 102.861C97.892 103.374 100.455 103.991 103.068 104.351C103.2 104.266 103.155 102.05 103.118 101.701C103.034 100.986 102.883 99.8524 102.087 99.6522C101.129 99.4109 99.6039 99.4917 98.5116 99.3138C91.4475 98.1251 81.0489 93.6285 75.8564 88.6395C75.1856 87.9991 74.4219 87.2591 73.9796 86.4821C73.4176 87.145 72.9614 87.883 72.357 88.5214C72.1757 88.7184 71.0376 89.6316 71.1027 89.7589C74.0918 91.8218 77.2051 93.7218 80.428 95.4068C81.2052 95.8174 83.5962 96.6758 83.9245 97.3547L83.9375 97.358Z" fill="#F28E7A"/>
<path d="M107.607 166.809C105.993 164.153 106.511 160.744 104.944 158.061C104.574 157.422 103.727 156.803 104.198 156.003C104.628 155.27 105.455 155.633 106.074 155.889C107.277 156.386 108.259 157.24 109.207 158.108C109.288 158.108 109.442 157.227 109.49 157.052C113.766 141.633 132.431 138.789 143.511 149.077C157.12 161.705 154.047 190.223 135.04 195.838C123.28 199.307 109.651 191.864 108.878 179.074C107.788 179.834 106.612 180.466 105.328 180.836C104.696 181.017 103.398 181.468 103.021 180.728C102.591 179.874 103.384 179.356 103.808 178.724C104.306 177.978 104.803 177.131 105.193 176.324C105.953 174.764 106.39 173.029 107.459 171.644C104.769 171.765 102.147 171.153 99.8276 169.794C98.8661 169.236 97.5482 168.463 97.4944 167.212C97.4608 166.298 98.5097 163.527 99.3771 163.151C100.399 162.707 100.937 163.574 101.677 164.072C103.465 165.282 105.496 166.298 107.6 166.802L107.607 166.809ZM100.029 165.249C99.8074 165.915 99.4107 166.547 99.4309 167.28C101.777 169.102 104.541 169.835 107.499 169.788C108.34 169.774 109.59 169.485 110.317 169.559C111.204 169.653 111.52 170.756 110.794 171.301C110.659 171.402 110.491 171.435 110.357 171.536C108.212 173.136 107.943 174.932 106.867 177.191C106.659 177.635 106.39 178.038 106.188 178.482C107.714 177.911 108.965 176.539 109.691 175.113C110.034 174.448 110.243 172.915 111.312 173.244C112.078 173.479 111.89 173.99 112.004 174.562C112.408 176.599 113.013 177.978 114.156 179.699C114.304 179.921 114.452 180.177 114.66 180.345C114.465 179.303 114.566 178.233 114.492 177.191C114.418 176.149 114.156 174.979 113.82 173.937C113.618 173.311 112.952 172.222 113.288 171.65C113.725 170.924 114.707 171.455 115.299 171.563C116.603 171.792 118.062 171.832 119.373 171.637C119.535 171.61 120.684 171.388 120.678 171.307C119.246 170.427 117.713 169.512 116.173 168.826C115.507 168.53 114.593 168.315 114.015 168.013C113.181 167.589 113.833 165.814 114.041 165.114C114.398 163.938 114.909 162.606 115.353 161.443C115.776 160.347 116.233 159.244 116.738 158.182C116.657 158.114 115.669 158.82 115.534 158.928C114.324 159.883 113.167 161.302 112.535 162.714C112.186 163.494 112.071 165.061 110.888 164.664C110.222 164.442 110.148 163.433 109.933 162.868C109.355 161.335 108.589 160.172 107.372 159.076C108.064 160.898 107.957 162.969 108.696 164.778C108.972 165.457 109.49 166.217 110.007 166.735C110.438 167.159 111.11 167.34 111.09 168.033C111.043 169.411 109.073 169.028 108.172 168.866C105.791 168.45 103.458 167.441 101.428 166.17C101.233 166.049 100.083 165.195 100.009 165.249H100.029ZM110.733 177.366C110.532 180.849 111.594 184.292 113.571 187.13C118.593 194.331 128.834 196.779 136.788 193.202C154.895 185.065 154.276 153.596 135.672 146.293C125.963 142.48 114.66 146.596 111.473 156.884C111.217 157.711 110.747 159.479 110.895 160.286C110.955 160.596 111.238 160.77 111.285 161.086C111.715 160.515 112.038 159.869 112.482 159.311C113.665 157.812 115.574 156.44 117.376 155.808C118.076 155.566 119.508 155.041 119.703 156.164C119.81 156.783 119.192 157.422 118.923 157.953C118.076 159.621 117.316 161.45 116.67 163.211C116.254 164.348 115.931 165.511 115.487 166.634C116.24 166.964 117.013 167.179 117.78 167.535C119.696 168.436 121.458 169.788 123.387 170.702C123.972 170.985 124.194 171.576 123.798 172.128C123.629 172.363 122.392 172.793 122.043 172.901C120.839 173.264 119.232 173.553 117.982 173.594C117.148 173.621 116.375 173.547 115.561 173.365C115.884 174.488 116.213 175.624 116.328 176.794C116.462 178.207 116.361 179.646 116.529 181.058C116.596 181.643 117.081 183.189 116.933 183.62C116.758 184.131 115.991 184.332 115.534 184.057C114.337 183.344 112.199 180.271 111.534 178.987C111.298 178.529 111.13 177.897 110.895 177.474C110.848 177.386 110.895 177.346 110.727 177.379L110.733 177.366Z" fill="#F28E7A"/>
<path d="M147.864 115.219C147.808 115.243 147.222 115.974 147.075 116.116C144.694 118.431 141.942 118.565 138.877 117.683C138.479 117.571 137.061 117.151 136.874 116.857C136.421 116.163 136.92 115.828 137.427 115.458C140.095 113.492 143.585 111.878 146.858 113.393C147.007 113.46 147.581 113.831 147.645 113.838C148.027 113.87 148.521 113.629 148.907 113.592L147.869 113.277C145.411 112.452 143.842 110.368 142.3 108.399C142.075 107.728 142.368 107.433 143.024 107.363C143.975 107.262 145.75 107.402 146.713 107.555C149.754 108.033 152.009 109.855 153.176 112.727L155.86 112.205C153.808 111.667 152.326 110.539 150.902 109.009C150.365 108.435 149.262 107.251 148.891 106.62C148.643 106.202 148.686 105.672 149.189 105.502C149.646 105.343 151.633 105.444 152.222 105.483C155.122 105.685 157.174 106.625 158.701 109.196C159.098 109.866 159.507 110.641 159.635 111.403L162.636 110.847C162.637 110.709 162.6 110.763 162.536 110.737C160.676 110.023 159.69 109.501 158.287 108.03C157.774 107.494 156.085 105.612 155.835 105.041C155.633 104.583 155.864 104.125 156.343 104.03C157.162 103.862 159.121 104.011 159.998 104.129C163.342 104.582 165.636 106.744 166.569 109.986L169.732 109.34C167.962 108.927 166.519 107.816 165.299 106.503C164.925 106.101 164.472 105.575 164.129 105.147C163.943 104.912 163.226 103.998 163.15 103.795C163.027 103.46 163.167 103 163.516 102.868C163.988 102.694 165.378 102.725 165.93 102.752C168.334 102.874 170.466 103.631 172.053 105.512C172.802 106.401 173.278 107.42 173.67 108.505L177.072 108.012C178.657 107.89 180.263 107.755 181.844 107.964C182.427 108.042 183.428 108.076 183.445 108.849C183.464 109.86 181.975 109.347 181.419 109.293C178.838 109.043 176.281 109.568 173.737 109.935C174.055 111.929 173.552 114.397 172.307 115.996C171.432 117.121 169.823 118.102 168.53 118.673C168.155 118.839 167.15 119.293 166.803 119.346C166.299 119.421 165.941 119.026 165.953 118.54C165.962 118.134 166.23 117.137 166.341 116.695C166.772 114.992 167.364 113.328 168.524 111.987C168.895 111.553 169.329 111.181 169.736 110.785L166.886 111.334C166.854 111.732 166.921 112.126 166.909 112.528C166.801 116.409 164.923 118.74 161.48 120.271C161.161 120.414 160.246 120.822 159.941 120.866C159.448 120.94 159.089 120.636 159.066 120.142C159.043 119.678 159.381 118.314 159.509 117.796C160.074 115.51 161.028 113.593 162.971 112.196C162.967 112.097 162.881 112.158 162.817 112.169C162.422 112.228 162.066 112.323 161.689 112.401C161.097 112.526 160.498 112.638 159.906 112.762C160.22 114.292 159.91 116.045 159.295 117.459C158.403 119.511 156.685 120.824 154.687 121.742C154.254 121.939 153.068 122.472 152.656 122.422C152.284 122.378 152.103 122.038 152.103 121.691C152.098 121.18 152.492 119.774 152.643 119.217C153.153 117.331 153.798 115.665 155.209 114.271L156.022 113.562L153.428 114.093C153.624 117.409 152.301 120.5 149.397 122.197C148.821 122.533 146.959 123.46 146.377 123.524C145.873 123.581 145.701 123.218 145.673 122.763C145.534 120.584 146.834 117.232 148.464 115.771L149.48 114.904L147.872 115.232L147.864 115.219ZM138.957 116.101C138.891 116.202 139.194 116.267 139.252 116.284C141.6 117.083 143.882 117.069 145.809 115.376C145.917 115.284 146.414 114.806 146.434 114.716C144.716 113.917 143.087 114.044 141.379 114.794C140.521 115.172 139.805 115.717 138.957 116.101ZM144.294 108.734C145.586 110.45 146.968 111.653 149.039 112.288C149.34 112.378 151.644 112.893 151.733 112.771C150.99 111.257 149.614 109.858 148.017 109.288C146.839 108.864 145.529 108.811 144.294 108.734ZM148.344 118.103C147.711 119.134 147.385 120.478 147.25 121.677C148.067 121.337 148.934 120.899 149.617 120.339C151.232 119.014 151.944 116.987 152.128 114.943C150.677 115.704 149.215 116.682 148.34 118.106L148.344 118.103ZM150.763 106.764C152.514 109.229 155.023 111.188 158.159 111.163C157.841 110.419 157.474 109.683 156.973 109.044C155.433 107.098 153.076 106.836 150.76 106.759L150.763 106.764ZM158.675 113.599C157.857 114.077 156.953 114.55 156.248 115.196C154.727 116.594 154.123 118.725 153.753 120.702C154.702 120.206 155.673 119.726 156.474 119.007C158.009 117.631 158.738 115.659 158.675 113.599ZM161.679 115.728C161.438 116.181 161.229 116.72 161.071 117.21C161.002 117.427 160.562 119.041 160.657 119.107C161.94 118.614 163.248 117.824 164.115 116.741C165.146 115.45 165.488 113.803 165.613 112.18C163.974 112.905 162.525 114.137 161.675 115.731L161.679 115.728ZM157.763 105.329C157.664 105.463 159.749 107.632 159.969 107.828C161.422 109.124 163.209 109.723 165.125 109.851C164.069 106.585 160.988 105.193 157.76 105.325L157.763 105.329ZM172.473 110.655C171.768 111.049 171.071 111.456 170.457 111.984C168.798 113.398 167.95 115.481 167.519 117.586C169.631 116.782 171.574 115.421 172.207 113.14C172.295 112.821 172.65 110.812 172.476 110.659L172.473 110.655ZM165.028 104.079C166.069 105.529 167.371 106.933 169.004 107.69C169.989 108.147 171.059 108.365 172.129 108.48C171.236 105.32 168.071 103.945 165.024 104.081L165.028 104.079Z" fill="#F28E7A"/>
<path d="M157.135 26.684C158.039 25.9826 159.843 24.9319 160.925 24.49C161.843 24.118 162.93 23.9338 163.863 23.614C162.825 20.0798 163.338 16.1943 165.132 12.9777C168.388 7.1199 175.684 3.06245 182.299 5.6775C186.097 7.17417 188.807 10.2348 190.083 14.0645C192.584 11.8097 195.978 10.5838 199.356 11.1844C210.872 13.2234 213.743 28.1815 204.265 34.6851C204.33 34.8401 204.423 34.9398 204.556 35.0427C208.921 38.3326 217.439 41.9537 222.772 42.9146C224.112 43.1549 226.113 43.083 227.329 43.4307C230.931 44.4623 230.359 50.8707 229.801 53.6636C229.177 56.7792 226.988 63.384 223.724 64.5596C221.765 65.2659 220.948 64.2698 219.347 63.548C213.487 60.9081 206.753 59.7329 200.358 60.044C199.852 60.0693 196.816 60.2896 196.62 60.4621C196.505 60.5304 196.667 60.6889 196.711 60.7623C197.229 61.6487 197.825 62.2841 198.298 63.2699C201.154 69.2516 199.061 76.9624 193.499 80.6035C188.119 84.1307 180.222 82.1986 176.852 76.8015L176.702 76.7637C176.501 77.0945 175.848 77.3185 175.468 77.4516C169.552 79.4988 162.745 76.2669 159.301 71.3297C156.278 67.0047 155.752 61.2973 157.528 56.3358C157.688 55.8908 158.792 53.7626 158.727 53.5798C150.477 48.48 147.955 37.7839 154.033 29.8626C154.848 28.7989 156.081 27.5076 157.141 26.6857L157.135 26.684ZM171.638 9.69208C167.69 12.4289 165.292 17.3031 166.22 22.1271C166.405 23.0749 167.297 24.5686 166.897 25.4177C166.375 26.5275 164.903 26.2055 163.845 26.4109C160.178 27.1243 156.519 30.2041 154.88 33.522C151.745 39.8612 153.761 47.0321 159.505 50.988C160.397 51.601 162.294 52.1895 161.842 53.6288C161.627 54.3167 160.725 55.5042 160.367 56.3223C159.485 58.34 159.121 60.6128 159.164 62.8081C159.321 71.0296 167.917 78.061 175.85 74.3927C176.713 73.9929 177.655 73.0028 178.498 74.2273C179.224 75.2836 179.417 76.1157 180.455 77.1399C186.235 82.8246 195.269 78.9966 196.695 71.4299C197.43 67.5447 196.445 63.7742 193.46 61.116C190.698 61.759 188.193 63.0076 185.749 64.3965C185.44 65.3794 185.172 67.2952 183.801 67.2066C181.502 67.0578 183.033 64.2812 183.268 63.0438C183.817 60.1172 182.895 56.6468 181.048 54.3444C180.573 53.7532 179.069 52.4526 178.919 51.8946C178.552 50.5404 180.203 50.1794 181.049 49.5463C185.317 46.3076 186.172 39.7414 184.149 35.0233C183.684 33.9494 182.33 32.5545 183.333 31.545C183.993 30.879 184.967 31.2214 185.437 31.943C186.3 33.2556 186.174 34.2502 188.079 34.8893C191.898 36.1626 195.491 33.0452 196.876 29.7187C197.126 29.1092 197.005 28.6001 197.752 28.2197C199.497 27.3206 199.612 29.8666 200.16 30.7742C200.404 31.1823 201.46 32.4398 201.822 32.7111C202.213 33.0037 202.633 32.6031 202.975 32.3427C207.921 28.5881 209.047 21.7158 204.774 17.0136C201.429 13.3356 195.679 12.3528 192.004 16.0735C191.185 16.9007 190.671 18.5878 189.35 18.3248C188.207 18.0996 188.368 17.211 188.133 16.4098C185.828 8.7084 178.796 4.74721 171.656 9.70352L171.638 9.69208ZM187.4 43.9266C186.807 46.3638 185.608 48.6484 183.917 50.4902C183.478 50.969 182.918 51.3481 182.511 51.8629L183.494 53.2197C185.075 52.834 186.661 52.4288 188.258 52.1166C190.46 51.6863 193.299 51.562 195.366 50.9521C195.831 50.8125 197.102 50.3351 197.31 49.8951C197.77 48.9499 195.835 47.6584 195.136 47.2398C192.778 45.8351 189.975 44.8521 187.393 43.9249L187.4 43.9266ZM208.326 43.5636C208.833 44.6065 207.789 45.6959 206.648 45.3255C205.923 45.0944 204.73 44.4336 203.991 44.0671C200.129 42.1659 196.434 39.8768 192.966 37.3467C192.596 37.2189 192.095 37.5296 191.733 37.591C190.296 37.8464 188.898 37.8066 187.492 37.3902C187.822 38.6383 187.762 39.9266 187.864 41.2005C190.983 42.5265 194.313 43.5103 197.159 45.3985C199.256 46.793 201.279 49.1952 199.347 51.6629C197.632 53.8521 192.578 54.0708 189.977 54.5396C188.271 54.8451 186.591 55.2681 184.896 55.6111L185.853 58.8059L186.087 61.2363C187.189 60.4667 188.669 59.8477 189.944 59.3849C198.87 56.1471 210.933 56.9508 219.578 60.8118C220.289 61.1293 221.629 62.0561 222.26 62.1941C223.359 62.4291 224.631 60.1283 224.943 59.2498C224.181 59.0235 223.409 58.732 222.664 58.4405C220.353 57.5398 217.99 56.6537 215.597 55.9405C213.353 55.2715 210.915 54.9007 208.668 54.2171C206.42 53.5334 207.224 51.5238 208.934 51.6978C210.131 51.8187 212.299 52.4337 213.541 52.7603C216.032 53.415 218.476 54.3354 220.938 55.0243L226.062 56.9797C226.149 56.246 226.527 55.5436 226.712 54.8622C226.781 54.5884 226.753 54.2899 226.817 54.0078C226.881 53.698 227.206 53.4262 227.045 53.0182C225.868 52.819 224.663 52.6752 223.486 52.4483C222.429 52.2378 220.393 51.8709 219.45 51.4878C217.952 50.882 218.233 49.3233 219.692 49.0663C222.28 49.5793 224.843 50.1966 227.456 50.5562C227.589 50.4717 227.543 48.2552 227.506 47.9061C227.423 47.1917 227.271 46.058 226.476 45.8577C225.517 45.6165 223.992 45.6972 222.9 45.5194C215.836 44.3306 205.437 39.834 200.245 34.8451C199.574 34.2047 198.81 33.4647 198.368 32.6877C197.806 33.3505 197.35 34.0886 196.745 34.727C196.564 34.924 195.426 35.8371 195.491 35.9644C198.48 38.0274 201.594 39.9274 204.816 41.6123C205.594 42.0229 207.985 42.8813 208.313 43.5603L208.326 43.5636Z" fill="#F28E7A"/>
<path d="M235.281 105.527C235.063 102.427 237.085 99.6329 236.92 96.5303C236.884 95.7931 236.414 94.8551 237.199 94.3593C237.917 93.9048 238.486 94.6064 238.919 95.1168C239.761 96.1104 240.243 97.3192 240.688 98.5245C240.76 98.5615 241.301 97.8492 241.423 97.7153C252.285 85.9669 270.18 91.9867 275.319 106.208C281.635 123.666 265.845 147.611 246.376 143.897C234.333 141.595 225.626 128.736 230.795 117.012C229.479 117.189 228.143 117.212 226.832 116.952C226.187 116.824 224.827 116.631 224.831 115.801C224.84 114.844 225.782 114.747 226.448 114.38C227.232 113.944 228.062 113.419 228.779 112.88C230.168 111.841 231.351 110.499 232.936 109.757C230.49 108.633 228.439 106.888 226.999 104.618C226.399 103.682 225.582 102.391 226.107 101.254C226.496 100.426 228.697 98.4432 229.64 98.5057C230.752 98.5793 230.833 99.5967 231.263 100.378C232.298 102.273 233.639 104.106 235.279 105.518L235.281 105.527ZM229.259 100.669C228.757 101.16 228.115 101.54 227.798 102.201C229.049 104.895 231.17 106.813 233.822 108.126C234.575 108.499 235.819 108.814 236.431 109.213C237.177 109.703 236.953 110.828 236.058 110.98C235.892 111.008 235.727 110.961 235.561 110.989C232.922 111.429 231.861 112.902 229.87 114.418C229.481 114.717 229.057 114.952 228.675 115.254C230.293 115.445 232.033 114.799 233.332 113.864C233.941 113.429 234.829 112.162 235.628 112.944C236.202 113.505 235.8 113.873 235.64 114.433C235.066 116.429 234.973 117.932 235.201 119.985C235.23 120.251 235.245 120.545 235.353 120.79C235.657 119.774 236.236 118.87 236.648 117.91C237.059 116.949 237.362 115.789 237.541 114.709C237.648 114.06 237.555 112.787 238.115 112.433C238.836 111.987 239.466 112.909 239.942 113.276C240.997 114.077 242.276 114.781 243.531 115.208C243.687 115.258 244.81 115.587 244.841 115.512C243.971 114.073 243.027 112.558 241.973 111.243C241.516 110.675 240.802 110.065 240.427 109.531C239.879 108.773 241.272 107.494 241.778 106.967C242.633 106.085 243.697 105.135 244.624 104.304C245.503 103.524 246.414 102.753 247.349 102.039C247.308 101.942 246.106 102.117 245.937 102.152C244.424 102.446 242.746 103.178 241.538 104.144C240.87 104.677 240.051 106.017 239.181 105.123C238.69 104.621 239.087 103.69 239.154 103.089C239.342 101.462 239.193 100.076 238.613 98.5446C238.394 100.482 237.35 102.274 237.18 104.22C237.114 104.95 237.226 105.863 237.449 106.56C237.638 107.134 238.152 107.603 237.817 108.21C237.144 109.414 235.568 108.171 234.841 107.615C232.916 106.154 231.304 104.189 230.081 102.129C229.963 101.932 229.332 100.646 229.242 100.66L229.259 100.669ZM233.227 116.344C231.452 119.348 230.82 122.895 231.278 126.323C232.445 135.025 240.428 141.891 249.137 142.354C268.959 143.414 282.82 115.155 269.625 100.142C262.74 92.3061 250.807 90.788 243.263 98.4743C242.657 99.0926 241.429 100.449 241.191 101.234C241.103 101.537 241.274 101.822 241.171 102.124C241.816 101.813 242.398 101.387 243.048 101.094C244.787 100.303 247.112 99.9582 249.004 100.222C249.736 100.327 251.25 100.516 250.909 101.604C250.721 102.203 249.879 102.488 249.396 102.837C247.88 103.931 246.367 105.209 244.986 106.48C244.095 107.299 243.275 108.185 242.367 108.98C242.885 109.618 243.474 110.164 243.992 110.832C245.283 112.51 246.23 114.519 247.527 116.215C247.918 116.734 247.844 117.362 247.239 117.67C246.982 117.803 245.685 117.619 245.325 117.554C244.089 117.326 242.528 116.847 241.397 116.31C240.644 115.952 239.99 115.532 239.35 114.998C239.123 116.144 238.896 117.305 238.461 118.398C237.934 119.715 237.186 120.948 236.689 122.28C236.48 122.831 236.203 124.427 235.874 124.742C235.485 125.117 234.711 124.945 234.431 124.49C233.693 123.309 233.199 119.597 233.196 118.151C233.196 117.637 233.336 116.998 233.321 116.513C233.319 116.414 233.379 116.4 233.214 116.353L233.227 116.344Z" fill="#F28E7A"/>
<path d="M279.51 158.466C279.459 158.426 278.479 158.258 278.271 158.194C274.898 157.175 273.353 154.695 272.587 151.405C272.486 150.979 272.143 149.45 272.319 149.126C272.727 148.352 273.296 148.642 273.9 148.922C277.098 150.387 280.396 152.793 280.681 156.6C280.696 156.772 280.649 157.494 280.676 157.557C280.843 157.928 281.322 158.261 281.555 158.6L281.312 157.477C280.806 154.778 281.927 152.258 282.955 149.822C283.46 149.27 283.885 149.391 284.288 149.963C284.873 150.791 285.659 152.507 286.015 153.478C287.141 156.539 286.619 159.56 284.561 162.111L286.429 164.33C285.869 162.154 286.148 160.203 286.831 158.102C287.085 157.31 287.612 155.683 288.005 155.016C288.264 154.573 288.777 154.341 289.195 154.72C289.578 155.062 290.51 156.954 290.778 157.519C292.088 160.309 292.277 162.69 290.684 165.421C290.268 166.131 289.761 166.907 289.122 167.416L291.185 169.91C291.314 169.841 291.245 169.833 291.236 169.762C290.937 167.673 290.912 166.493 291.55 164.44C291.781 163.691 292.653 161.163 293.053 160.639C293.373 160.217 293.916 160.197 294.252 160.592C294.83 161.265 295.703 163.155 296.046 164.028C297.353 167.357 296.535 170.589 294.014 173.113L296.245 175.711C295.714 173.86 295.998 171.955 296.584 170.153C296.764 169.601 297.017 168.912 297.236 168.375C297.358 168.083 297.835 166.951 297.984 166.776C298.23 166.491 298.729 166.385 299.032 166.641C299.436 166.989 300.125 168.293 300.385 168.817C301.513 171.107 301.912 173.468 300.989 175.901C300.553 177.049 299.854 178.012 299.052 178.931L301.265 181.83C302.196 183.235 303.15 184.653 303.773 186.224C304.002 186.805 304.487 187.749 303.78 188.16C302.853 188.696 302.559 187.054 302.322 186.511C301.221 183.993 299.415 181.893 297.761 179.725C296.078 181.04 293.533 181.837 291.409 181.503C289.915 181.268 288.176 180.28 286.98 179.375C286.632 179.113 285.692 178.414 285.465 178.12C285.135 177.692 285.316 177.158 285.772 176.92C286.153 176.72 287.215 176.459 287.681 176.336C289.482 175.862 291.328 175.56 293.17 175.947C293.763 176.069 294.332 176.281 294.909 176.455L292.929 174.096C292.544 174.27 292.213 174.534 291.834 174.729C288.183 176.615 285.055 176.069 281.859 173.663C281.562 173.441 280.711 172.802 280.513 172.543C280.19 172.124 280.286 171.636 280.732 171.361C281.151 171.103 282.589 170.718 283.134 170.571C285.543 169.924 287.812 169.826 290.109 170.911C290.199 170.857 290.098 170.808 290.055 170.754C289.795 170.419 289.524 170.138 289.257 169.828C288.836 169.344 288.423 168.846 288.002 168.362C286.747 169.436 284.963 170.046 283.336 170.201C280.975 170.424 278.872 169.506 276.99 168.125C276.584 167.825 275.478 166.999 275.311 166.592C275.16 166.225 275.382 165.883 275.703 165.705C276.174 165.439 277.68 165.085 278.273 164.94C280.284 164.447 282.16 164.19 284.179 164.784L285.256 165.175L283.425 163.043C280.455 164.922 276.908 165.279 273.837 163.458C273.229 163.097 271.409 161.846 271.049 161.341C270.736 160.903 270.984 160.558 271.391 160.299C273.338 159.055 277.114 158.543 279.308 159.305L280.636 159.802L279.502 158.48L279.51 158.466ZM274.095 150.669C273.967 150.66 274.062 150.973 274.077 151.036C274.549 153.619 275.74 155.725 278.303 156.644C278.444 156.696 279.144 156.913 279.237 156.885C279.09 154.884 278.132 153.44 276.555 152.243C275.763 151.642 274.888 151.258 274.095 150.669ZM283.673 151.841C282.751 153.916 282.35 155.812 282.832 158.054C282.904 158.379 283.616 160.777 283.774 160.797C284.793 159.333 285.379 157.343 285.083 155.572C284.868 154.264 284.24 153.024 283.673 151.841ZM277.086 160.387C275.804 160.329 274.39 160.715 273.211 161.204C273.947 161.786 274.8 162.365 275.672 162.711C277.733 163.528 279.978 163.15 281.967 162.275C280.512 161.32 278.852 160.466 277.081 160.385L277.086 160.387ZM288.839 156.823C287.459 159.707 286.94 163.034 288.582 165.925C289.106 165.25 289.599 164.534 289.932 163.742C290.94 161.319 289.965 159.003 288.841 156.819L288.839 156.823ZM286.592 167.65C285.726 167.138 284.821 166.542 283.859 166.22C281.779 165.527 279.493 166.058 277.471 166.727C278.42 167.353 279.366 168.006 280.446 168.381C282.513 169.097 284.716 168.763 286.592 167.65ZM286.17 171.522C285.627 171.531 285.019 171.614 284.484 171.718C284.247 171.765 282.524 172.184 282.513 172.305C283.632 173.241 285.039 174.049 286.49 174.297C288.217 174.592 289.92 174.065 291.488 173.35C289.97 172.202 288.081 171.492 286.165 171.52L286.17 171.522ZM293.781 162.572C293.606 162.55 292.673 165.591 292.605 165.894C292.155 167.904 292.523 169.866 293.393 171.706C295.873 169.056 295.572 165.49 293.784 162.567L293.781 162.572ZM296.442 178.923C295.713 178.472 294.976 178.035 294.17 177.736C292.004 176.923 289.636 177.204 287.464 177.882C289.299 179.427 291.563 180.529 294.003 179.948C294.344 179.866 296.388 179.167 296.44 178.927L296.442 178.923ZM298.69 168.661C297.884 170.368 297.256 172.292 297.397 174.192C297.482 175.338 297.834 176.44 298.279 177.491C300.746 175.046 300.385 171.411 298.686 168.659L298.69 168.661Z" fill="#F28E7A"/>
<path d="M302.706 100.014C302.916 99.001 303.539 97.2207 304.023 96.2822C304.436 95.4874 305.074 94.7234 305.528 93.956C302.741 92.1366 300.814 89.1653 300.16 85.9023C298.961 79.9663 301.594 72.897 307.674 70.8123C311.161 69.6125 314.819 70.1252 317.943 72.0083C318.339 68.9908 319.952 66.1569 322.625 64.5874C331.735 59.2308 342.484 67.825 339.786 77.8559C339.922 77.9243 340.044 77.9384 340.196 77.9307C345.126 77.63 353.104 75.1198 357.332 72.651C358.394 72.0297 359.727 70.8062 360.766 70.3315C363.847 68.9266 367.213 73.6664 368.468 75.9125C369.867 78.42 372.238 84.2432 370.685 86.9659C369.753 88.6012 368.607 88.3961 367.084 88.8392C361.508 90.4637 356.191 93.6081 351.979 97.5742C351.647 97.8883 349.689 99.8216 349.656 100.055C349.617 100.169 349.821 100.183 349.894 100.208C350.771 100.513 351.553 100.6 352.457 101C357.928 103.434 361.014 109.961 359.328 115.727C357.7 121.308 351.141 124.614 345.658 122.883L345.533 122.945C345.589 123.29 345.272 123.827 345.089 124.141C342.224 129.02 335.651 130.793 330.388 129.422C325.773 128.223 322.063 124.61 320.372 120.159C320.221 119.759 319.732 117.649 319.58 117.561C310.919 118.898 302.91 113.028 302.439 104.018C302.375 102.809 302.465 101.198 302.711 100.011L302.706 100.014ZM302.703 79.8272C301.596 84.0242 302.807 88.781 306.275 91.5511C306.958 92.0942 308.448 92.5967 308.671 93.4153C308.963 94.4842 307.763 95.1268 307.157 95.8882C305.056 98.5302 304.348 102.794 305.168 106.036C306.733 112.231 312.325 115.976 318.593 115.324C319.566 115.221 321.215 114.513 321.749 115.767C322.005 116.366 322.082 117.711 322.315 118.484C322.893 120.388 323.976 122.163 325.294 123.646C330.225 129.204 340.257 128.991 343.556 121.816C343.915 121.034 343.982 119.801 345.279 120.148C346.398 120.448 347.018 120.907 348.333 121.001C355.64 121.515 359.602 113.584 356.142 107.548C354.368 104.446 351.479 102.434 347.868 102.359C346.348 104.421 345.359 106.749 344.494 109.137C344.858 109.995 345.799 111.468 344.804 112.212C343.137 113.459 342.56 110.652 341.996 109.664C340.656 107.331 337.986 105.487 335.366 104.989C334.693 104.862 332.897 104.85 332.466 104.555C331.42 103.839 332.342 102.622 332.552 101.691C333.584 96.9612 330.32 91.9474 326.162 89.8922C325.212 89.4269 323.463 89.2633 323.56 87.981C323.623 87.1362 324.493 86.7996 325.24 87.0195C326.602 87.4156 327.1 88.1727 328.784 87.4938C332.155 86.1279 332.795 81.8776 331.795 78.7791C331.609 78.2133 331.227 77.9348 331.518 77.2348C332.189 75.5931 333.762 77.2752 334.671 77.5773C335.078 77.7145 336.542 77.9588 336.949 77.933C337.39 77.9046 337.443 77.3831 337.526 77.003C338.721 71.521 335.463 66.1376 329.768 65.4139C325.312 64.8495 320.784 67.5483 320.441 72.2616C320.364 73.3102 321 74.7716 319.939 75.3657C319.021 75.8815 318.611 75.1763 317.979 74.7638C311.877 70.8242 304.721 72.2285 302.722 79.8245L302.703 79.8272ZM333.619 94.1028C334.642 96.1253 335.158 98.3987 335.077 100.657C335.056 101.243 334.893 101.832 334.916 102.425L336.387 102.781C337.247 101.588 338.099 100.379 339.013 99.2273C340.274 97.6394 342.152 95.8879 343.215 94.2558C343.453 93.8871 344.046 92.8131 343.931 92.3888C343.692 91.4695 341.604 91.7177 340.879 91.8401C338.434 92.2582 335.931 93.2277 333.613 94.1055L333.619 94.1028ZM347.786 81.5739C348.746 81.993 348.668 83.354 347.667 83.769C347.033 84.0358 345.825 84.2816 345.102 84.4639C341.333 85.4235 337.451 86.0187 333.584 86.3149C333.254 86.4442 333.092 86.9518 332.879 87.2065C332.042 88.2253 331.058 89.018 329.847 89.5572C330.807 90.2209 331.521 91.1418 332.339 91.9571C335.26 91.038 338.125 89.76 341.189 89.3875C343.448 89.1155 346.247 89.579 346.368 92.4082C346.473 94.9193 343.128 98.0352 341.617 99.8831C340.624 101.094 339.717 102.371 338.754 103.601L341.286 105.235L342.872 106.768C343.178 105.592 343.832 104.298 344.436 103.232C348.671 95.7693 357.432 89.243 365.637 86.8234C366.312 86.6246 367.777 86.4749 368.291 86.1995C369.184 85.7162 368.709 83.3886 368.407 82.6022C367.751 82.8934 367.049 83.1464 366.367 83.3831C364.25 84.1203 362.106 84.8981 360.044 85.8121C358.109 86.6694 356.217 87.8448 354.271 88.694C352.325 89.5432 351.699 87.6905 352.976 86.8064C353.869 86.1873 355.72 85.3378 356.765 84.8333C358.861 83.8216 361.081 83.0196 363.176 82.0487L367.844 80.3857C367.474 79.8301 367.322 79.1258 367.049 78.5487C366.936 78.3201 366.741 78.1319 366.619 77.9005C366.482 77.6501 366.546 77.2726 366.196 77.0866C365.27 77.6404 364.358 78.2486 363.416 78.7833C362.566 79.2586 360.952 80.2013 360.079 80.4918C358.694 80.9543 357.973 79.7181 358.824 78.6858C360.904 77.5192 363.027 76.4397 365.034 75.1533C365.075 75.0176 363.744 73.5211 363.514 73.3029C363.037 72.8611 362.268 72.1709 361.604 72.5001C360.803 72.8968 359.803 73.8471 358.948 74.3658C353.396 77.6941 343.613 80.7061 337.118 80.3248C336.281 80.2784 335.322 80.218 334.562 79.9436C334.565 80.7289 334.684 81.5038 334.644 82.2971C334.635 82.5389 334.388 83.8342 334.508 83.8835C337.772 83.547 341.026 83.0258 344.229 82.2924C345.004 82.1185 347.151 81.3054 347.775 81.5793L347.786 81.5739Z" fill="#F28E7A"/>
<path d="M181.329 168.853C181.298 168.256 181.386 167.168 181.519 166.572C181.634 166.067 181.879 165.546 182.02 165.05C180.194 164.441 178.681 163.061 177.837 161.332C176.296 158.187 176.732 153.847 179.828 151.789C181.603 150.607 183.724 150.357 185.748 150.953C185.527 149.206 186.014 147.385 187.28 146.115C191.591 141.783 198.863 145.015 198.824 151.021C198.91 151.04 198.981 151.03 199.065 151.003C201.778 150.112 205.873 147.538 207.877 145.537C208.38 145.034 208.946 144.154 209.458 143.736C210.975 142.499 213.553 144.657 214.585 145.729C215.735 146.927 217.914 149.837 217.445 151.588C217.163 152.639 216.492 152.692 215.705 153.164C212.824 154.89 210.31 157.428 208.536 160.264C208.396 160.489 207.584 161.857 207.6 161.993C207.595 162.062 207.711 162.04 207.755 162.043C208.29 162.085 208.741 162.019 209.305 162.111C212.723 162.67 215.405 165.869 215.307 169.342C215.215 172.702 212.03 175.513 208.709 175.349L208.648 175.402C208.73 175.587 208.632 175.934 208.575 176.137C207.688 179.285 204.271 181.241 201.125 181.246C198.368 181.252 195.763 179.774 194.165 177.532C194.022 177.331 193.439 176.222 193.341 176.195C188.692 178.213 183.351 176.103 181.767 171.132C181.554 170.465 181.368 169.55 181.332 168.851L181.329 168.853ZM178.369 157.561C178.365 160.071 179.74 162.554 182.086 163.595C182.547 163.799 183.454 163.862 183.699 164.287C184.019 164.842 183.442 165.378 183.215 165.892C182.426 167.678 182.655 170.167 183.589 171.861C185.373 175.097 189.05 176.372 192.461 175.088C192.99 174.888 193.809 174.25 194.291 174.874C194.522 175.171 194.762 175.912 195.006 176.31C195.608 177.291 196.475 178.125 197.429 178.761C201.003 181.147 206.583 179.558 207.377 175.06C207.463 174.57 207.32 173.871 208.096 173.874C208.766 173.878 209.18 174.044 209.93 173.904C214.093 173.121 215.146 168.103 212.326 165.233C210.879 163.759 208.968 163.056 206.937 163.544C206.389 164.92 206.177 166.368 206.043 167.83C206.373 168.256 207.115 168.943 206.667 169.505C205.918 170.446 205.183 168.961 204.723 168.491C203.631 167.382 201.868 166.742 200.329 166.848C199.934 166.875 198.927 167.132 198.643 167.03C197.953 166.783 198.29 165.967 198.271 165.416C198.156 162.618 195.594 160.292 192.967 159.752C192.368 159.631 191.365 159.796 191.232 159.064C191.143 158.582 191.58 158.267 192.03 158.28C192.851 158.302 193.24 158.653 194.082 158.026C195.768 156.768 195.503 154.296 194.489 152.709C194.303 152.42 194.048 152.32 194.108 151.886C194.243 150.869 195.369 151.58 195.922 151.615C196.17 151.633 197.024 151.555 197.249 151.48C197.491 151.4 197.444 151.1 197.435 150.876C197.3 147.634 194.689 145.1 191.397 145.53C188.821 145.868 186.683 148.041 187.183 150.728C187.293 151.326 187.863 152.05 187.357 152.538C186.919 152.961 186.586 152.627 186.172 152.489C182.181 151.179 178.384 153.014 178.379 157.557L178.369 157.561ZM197.756 161.014C198.624 161.996 199.247 163.192 199.532 164.467C199.606 164.798 199.602 165.151 199.701 165.479L200.576 165.463C200.883 164.669 201.182 163.868 201.525 163.09C201.997 162.017 202.791 160.762 203.146 159.693C203.225 159.452 203.4 158.764 203.273 158.544C203.005 158.064 201.873 158.509 201.485 158.684C200.179 159.276 198.921 160.186 197.753 161.016L197.756 161.014ZM203.844 151.928C204.443 152.022 204.599 152.795 204.1 153.174C203.784 153.416 203.145 153.731 202.767 153.939C200.799 155.028 198.715 155.93 196.595 156.663C196.429 156.783 196.413 157.091 196.331 157.265C196.012 157.957 195.578 158.545 194.98 159.024C195.614 159.255 196.148 159.665 196.725 160.002C198.225 159.059 199.64 157.924 201.299 157.267C202.523 156.783 204.157 156.632 204.639 158.197C205.066 159.586 203.652 161.82 203.077 163.075C202.699 163.898 202.379 164.745 202.021 165.575L203.676 166.118L204.789 166.742C204.787 166.04 204.964 165.22 205.145 164.536C206.42 159.74 210.365 154.805 214.6 152.248C214.948 152.038 215.746 151.739 215.993 151.51C216.422 151.109 215.815 149.876 215.531 149.481C215.207 149.74 214.851 149.984 214.504 150.216C213.428 150.939 212.343 151.689 211.323 152.502C210.366 153.266 209.48 154.2 208.516 154.961C207.552 155.721 206.93 154.777 207.515 154.095C207.924 153.617 208.835 152.871 209.345 152.435C210.369 151.562 211.494 150.788 212.523 149.938L214.891 148.323C214.603 148.067 214.414 147.695 214.177 147.412C214.08 147.301 213.944 147.224 213.842 147.112C213.728 146.993 213.708 146.772 213.485 146.719C213.049 147.165 212.627 147.639 212.179 148.076C211.773 148.466 211.008 149.23 210.563 149.521C209.856 149.983 209.271 149.397 209.596 148.695C210.589 147.737 211.618 146.822 212.552 145.808C212.555 145.726 211.591 145.084 211.43 144.996C211.099 144.819 210.567 144.545 210.244 144.827C209.855 145.166 209.434 145.844 209.032 146.26C206.414 148.936 201.383 152.055 197.693 152.794C197.219 152.89 196.673 152.997 196.208 152.955C196.325 153.394 196.505 153.81 196.599 154.26C196.629 154.396 196.681 155.157 196.755 155.167C198.532 154.5 200.276 153.732 201.96 152.852C202.368 152.641 203.45 151.871 203.839 151.933L203.844 151.928Z" fill="#F28E7A"/>
<path d="M366.687 173.276C364.186 171.432 363.37 168.082 360.901 166.195C360.316 165.745 359.298 165.494 359.429 164.575C359.549 163.734 360.452 163.755 361.121 163.757C362.423 163.76 363.656 164.177 364.862 164.619C364.937 164.588 364.745 163.715 364.723 163.535C362.821 147.648 379.007 137.925 393.165 143.232C410.55 149.744 418.54 177.291 403.09 189.706C393.53 197.384 378.095 195.676 372.522 184.139C371.803 185.256 370.954 186.287 369.907 187.117C369.391 187.525 368.362 188.435 367.733 187.894C367.01 187.267 367.548 186.487 367.699 185.741C367.876 184.862 368.014 183.889 368.069 182.995C368.179 181.263 367.924 179.492 368.387 177.805C365.945 178.938 363.287 179.368 360.625 178.993C359.524 178.842 358.011 178.628 357.486 177.491C357.108 176.658 357.026 173.697 357.685 173.019C358.462 172.22 359.289 172.818 360.162 172.997C362.276 173.438 364.54 173.605 366.679 173.272L366.687 173.276ZM359.085 174.712C359.133 175.412 359.006 176.147 359.303 176.818C362.166 177.612 365.001 177.24 367.719 176.072C368.492 175.741 369.539 174.998 370.238 174.791C371.095 174.54 371.806 175.441 371.342 176.22C371.256 176.365 371.113 176.46 371.027 176.604C369.651 178.899 370.084 180.662 369.947 183.161C369.923 183.651 369.827 184.126 369.809 184.613C371.004 183.505 371.64 181.761 371.77 180.166C371.834 179.42 371.445 177.923 372.559 177.821C373.357 177.748 373.377 178.292 373.7 178.777C374.847 180.509 375.93 181.554 377.642 182.712C377.863 182.861 378.097 183.041 378.353 183.118C377.777 182.228 377.464 181.2 377 180.264C376.536 179.328 375.849 178.345 375.142 177.509C374.718 177.007 373.688 176.252 373.782 175.596C373.91 174.758 375.02 174.877 375.608 174.751C376.902 174.467 378.267 173.95 379.406 173.272C379.545 173.186 380.524 172.543 380.487 172.471C378.828 172.201 377.062 171.937 375.377 171.888C374.649 171.867 373.722 172.015 373.072 171.955C372.14 171.88 372.069 169.99 371.996 169.264C371.878 168.04 371.845 166.614 371.814 165.37C371.789 164.195 371.794 163.001 371.856 161.826C371.756 161.795 371.11 162.824 371.027 162.974C370.27 164.317 369.739 166.069 369.691 167.615C369.664 168.47 370.153 169.963 368.908 170.045C368.208 170.093 367.756 169.188 367.342 168.747C366.225 167.549 365.074 166.764 363.532 166.212C364.865 167.635 365.552 169.591 366.923 170.984C367.436 171.507 368.204 172.013 368.88 172.296C369.439 172.524 370.129 172.436 370.374 173.085C370.854 174.378 368.886 174.772 367.991 174.965C365.631 175.483 363.09 175.437 360.729 175.033C360.502 174.995 359.114 174.642 359.066 174.719L359.085 174.712ZM373.59 181.854C374.726 185.153 377.017 187.934 379.923 189.808C387.305 194.561 397.707 192.935 403.706 186.604C417.365 172.198 404.839 143.323 384.855 143.636C374.426 143.798 365.534 151.898 366.493 162.626C366.571 163.488 366.808 165.303 367.251 165.993C367.425 166.256 367.752 166.311 367.916 166.585C368.097 165.893 368.15 165.173 368.349 164.488C368.874 162.652 370.119 160.657 371.546 159.388C372.101 158.898 373.226 157.869 373.833 158.834C374.167 159.365 373.838 160.191 373.791 160.785C373.641 162.649 373.633 164.63 373.705 166.505C373.751 167.714 373.894 168.913 373.91 170.12C374.732 170.139 375.529 170.044 376.373 170.083C378.488 170.188 380.631 170.769 382.764 170.882C383.412 170.921 383.842 171.384 383.685 172.045C383.618 172.327 382.638 173.195 382.355 173.427C381.38 174.22 380.003 175.098 378.861 175.611C378.1 175.952 377.357 176.178 376.536 176.319C377.261 177.235 377.997 178.161 378.547 179.2C379.208 180.455 379.661 181.824 380.353 183.067C380.638 183.582 381.673 184.829 381.7 185.283C381.732 185.823 381.1 186.3 380.572 186.219C379.194 186.014 376.049 183.984 374.945 183.049C374.554 182.715 374.158 182.195 373.78 181.892C373.703 181.829 373.731 181.774 373.588 181.869L373.59 181.854Z" fill="#F28E7A"/>
</svg>
