<svg width="91" height="109" viewBox="0 0 91 109" fill="none" xmlns="http://www.w3.org/2000/svg">
<g clip-path="url(#clip0_99_341)">
<path d="M38.7646 56.6233C35.0692 51.5669 33.4616 45.4507 34.8266 39.5141C35.5403 36.4136 37.0728 33.6371 38.5198 30.862C41.0186 36.4151 43.1946 42.7237 41.9144 48.6905C41.3251 51.4426 39.9345 54.0891 38.7646 56.6233Z" fill="#F28E7A"/>
<path d="M55.1737 75.8584C47.5662 81.4358 37.7038 82.9486 29.5436 76.4792C34.4132 73.694 39.7849 72.2984 45.5324 73.1818C46.4183 73.3175 55.181 75.362 55.1737 75.8584Z" fill="#F28E7A"/>
<path d="M69.6902 60.9187C63.9504 64.4763 57.7759 67.6452 50.7029 65.2695C48.3881 64.4964 46.2353 63.2396 44.1981 61.8967C51.7619 56.7391 61.2172 57.5867 69.6936 60.9093L69.6902 60.9187Z" fill="#F28E7A"/>
<path d="M10.3381 86.3795C9.65401 86.2733 7.07719 80.6712 6.73662 79.7214C4.35129 72.9878 6.7386 66.418 10.4749 60.9773C13.0376 66.9461 14.5498 73.538 12.9508 79.7733C12.358 82.0888 11.3669 84.2409 10.3415 86.3701L10.3381 86.3795Z" fill="#F28E7A"/>
<path d="M27.8207 56.1682C28.5046 61.5407 27.0965 66.9735 24.3643 71.4453C21.886 67.1737 19.8939 62.4916 20.1774 57.5918C20.4127 53.4817 22.2328 49.3639 24.5071 46.0559C24.8609 46.076 26.5543 50.8214 26.765 51.4805C27.2274 52.9516 27.6408 54.6493 27.8301 56.1715L27.8207 56.1682Z" fill="#F28E7A"/>
<path d="M39.6864 90.7808C32.5249 96.0608 22.4943 97.7472 14.9032 91.2897C17.714 89.8402 20.6648 88.653 23.8437 88.195C29.1039 87.4391 34.6759 88.8439 39.6864 90.7808Z" fill="#F28E7A"/>
<path d="M56.1063 28.5915C56.4316 33.5706 54.5525 38.3893 52.3402 42.6539C49.2818 37.2408 47.5377 31.0015 49.1778 25.0675C49.8762 22.5455 51.2163 20.0402 52.619 17.8651C54.3478 21.0835 55.8661 24.9807 56.0969 28.5882L56.1063 28.5915Z" fill="#F28E7A"/>
<path d="M81.9969 45.477C78.8714 47.3026 75.6033 49.2897 72.0208 50.1347C67.1603 51.2879 61.4242 50.0157 57.025 47.437C57.0155 46.9876 63.4976 44.5337 64.3854 44.2772C70.499 42.4988 75.9135 43.2739 81.9969 45.477Z" fill="#F28E7A"/>
<path d="M82.3149 18.377C80.9089 20.7101 80.1217 23.2429 78.684 25.5753C75.8281 30.2153 72.0933 33.1826 66.5541 33.9768C66.4423 33.7246 66.8294 31.7179 66.9329 31.3089C68.714 23.9388 74.2298 20.2056 81.2898 18.3933C81.4647 18.3496 82.3068 18.0131 82.3244 18.3804L82.3149 18.377Z" fill="#F28E7A"/>
</g>
<defs>
<clipPath id="clip0_99_341">
<rect width="63.2" height="92.59" fill="white" transform="translate(31.1235) rotate(19.6421)"/>
</clipPath>
</defs>
</svg>
